SplineFontDB: 3.0
FontName: Mina-Regular
FullName: Mina
FamilyName: Mina
Weight: Regular
Copyright: Copyright (c) 2015, SAI
UComments: "2015-7-16: Created with FontForge (http://fontforge.org)"
Version: 001.000
ItalicAngle: 0
UnderlinePosition: -24
UnderlineWidth: 24
Ascent: 800
Descent: 200
InvalidEm: 0
LayerCount: 2
Layer: 0 0 "Back" 1
Layer: 1 0 "Fore" 0
XUID: [1021 37 -475828938 8093]
FSType: 0
OS2Version: 4
OS2_WeightWidthSlopeOnly: 0
OS2_UseTypoMetrics: 0
CreationTime: 1437065704
ModificationTime: 1445721099
PfmFamily: 17
TTFWeight: 400
TTFWidth: 5
LineGap: 0
VLineGap: 0
OS2TypoAscent: 917
OS2TypoAOffset: 0
OS2TypoDescent: -408
OS2TypoDOffset: 0
OS2TypoLinegap: 0
OS2WinAscent: 917
OS2WinAOffset: 0
OS2WinDescent: 408
OS2WinDOffset: 0
HheadAscent: 917
HheadAOffset: 0
HheadDescent: -408
HheadDOffset: 0
OS2SubXSize: 700
OS2SubYSize: 650
OS2SubXOff: 0
OS2SubYOff: 93
OS2SupXSize: 700
OS2SupYSize: 650
OS2SupXOff: 0
OS2SupYOff: 313
OS2StrikeYSize: 50
OS2StrikeYPos: 313
OS2CapHeight: 1274
OS2XHeight: 1274
OS2Vendor: 'PfEd'
OS2CodePages: 00000001.00000000
OS2UnicodeRanges: 80018003.80002042.00000000.00000000
Lookup: 4 0 0 "'half' Half Forms lookup 5" { "'half' Half Forms lookup 5 subtable"  } ['half' ('DFLT' <'dflt' > 'beng' <'dflt' > 'latn' <'dflt' > ) ]
Lookup: 4 0 0 "'blwf' Below Base Forms lookup 4" { "'blwf' Below Base Forms lookup 4 subtable"  } ['blwf' ('DFLT' <'dflt' > 'beng' <'dflt' > 'latn' <'dflt' > ) ]
Lookup: 4 0 0 "'rphf' Reph Form lookup 3" { "'rphf' Reph Form lookup 3 subtable"  } ['rphf' ('DFLT' <'dflt' > 'beng' <'dflt' > 'latn' <'dflt' > ) ]
Lookup: 4 0 0 "'akhn' Akhand lookup 2" { "'akhn' Akhand lookup 2 subtable"  } ['akhn' ('DFLT' <'dflt' > 'beng' <'dflt' > 'latn' <'dflt' > ) ]
Lookup: 4 0 0 "'nukt' Nukta Forms lookup 1" { "'nukt' Nukta Forms lookup 1 subtable"  } ['nukt' ('DFLT' <'dflt' > 'beng' <'dflt' > 'latn' <'dflt' > ) ]
MarkAttachClasses: 1
DEI: 91125
LangName: 1033
Encoding: UnicodeBmp
Compacted: 1
UnicodeInterp: none

StartChar: BNGa
Encoding: 2437 2437 0
Width: 960
VWidth: 0
GlyphClass: 2
Flags: W
HStem: 0 21G<817 885> 40 73<366.514 511.631> 446 72<320.271 643.438> 575 61<-14 817 885 971>
VStem: 674 69<283.063 418.171> 817 68<0 143 202 574>
LayerCount: 2
Back
Fore
SplineSet
311 447 m 5
 303 499 l 5
 303 499 485 518 557 518 c 4
 558 518 558 518 559 518 c 4
 691 518 743 440 743 359 c 4
 743 337 738 314 731 292 c 4
 728 284 714 251 714 251 c 5
 817 202 l 4
 817 574 l 5
 -14 575 l 1
 -14 636 l 1
 151 636 807 636 971 636 c 1
 971 575 l 1
 885 575 l 4
 885 0 l 5
 817 0 l 5
 817 143 l 4
 679 191 l 5
 679 191 600 94 519 57 c 4
 495 46 470 40 443 40 c 4
 386 40 321 67 246 142 c 4
 214 174 104 318 79 362 c 5
 116 389 l 5
 296 194 l 6
 348 137 396 113 441 113 c 4
 459 113 477 117 494 125 c 4
 566 158 649 265 663 304 c 4
 671 325 674 344 674 361 c 4
 674 423 631 446 540 446 c 4
 489 446 311 447 311 447 c 5
EndSplineSet
Validated: 1
EndChar

StartChar: BNGaa
Encoding: 2438 2438 1
Width: 1130
VWidth: 0
GlyphClass: 2
Flags: W
HStem: 0 21G<820 888 1003 1072> 40 73<369.514 514.631> 446 72<323.271 646.438> 575 61<-14 820 888 934 1072 1139>
VStem: 677 69<283.063 418.171> 820 68<1 143 202 574> 1003 69<0 575>
LayerCount: 2
Back
Fore
SplineSet
820 1 m 13
 820 143 l 20
 682 191 l 5
 682 191 603 94 522 57 c 4
 498 46 473 40 446 40 c 4
 389 40 324 67 249 142 c 4
 217 174 107 318 82 362 c 5
 119 389 l 5
 299 194 l 6
 351 137 399 113 444 113 c 4
 462 113 480 117 497 125 c 4
 569 158 652 265 666 304 c 4
 674 325 677 344 677 361 c 4
 677 423 634 446 543 446 c 4
 492 446 314 447 314 447 c 5
 306 499 l 5
 306 499 488 518 560 518 c 4
 561 518 561 518 562 518 c 4
 694 518 746 440 746 359 c 4
 746 337 741 314 734 292 c 4
 731 284 717 251 717 251 c 5
 820 202 l 4
 820 574 l 5
 -14 576 l 9
 -14 636 l 17
 151 636 934 636 934 636 c 1
 934 636 996 630 1006 628 c 1
 1004 652 1002 702 1002 702 c 1
 1038 702 l 1
 1061 636 l 9
 1139 636 l 17
 1139 575 l 1
 1072 575 l 0
 1072 0 l 1
 1003 0 l 1
 1004 575 l 9
 888 575 l 20
 888 0 l 5
 820 1 l 13
EndSplineSet
Validated: 1
EndChar

StartChar: BNGta
Encoding: 2468 2468 2
Width: 775
VWidth: 0
GlyphClass: 2
Flags: W
HStem: 40 73<339.514 484.596> 444 72<294.271 616.119> 575 61<-14 785>
VStem: 646 71<286.462 415.956>
LayerCount: 2
Back
Fore
SplineSet
646 359 m 4
 646 420 605 444 514 444 c 4
 463 444 285 445 285 445 c 5
 277 497 l 5
 277 497 459 516 531 516 c 4
 532 516 532 516 533 516 c 4
 665 516 717 438 717 357 c 4
 716 334 712 314 704 292 c 4
 682 232 592 101 492 57 c 4
 468 47 443 40 416 40 c 4
 359 40 294 67 219 142 c 4
 187 174 77 318 52 362 c 5
 89 389 l 5
 269 194 l 6
 321 137 369 113 414 113 c 4
 432 113 450 117 467 125 c 4
 539 158 618 266 634 304 c 4
 643 325 646 340 646 359 c 4
785 574 m 5
 -14 575 l 5
 -14 636 l 5
 151 636 621 636 785 636 c 5
 785 574 l 5
EndSplineSet
Validated: 1
EndChar

StartChar: BNGi
Encoding: 2439 2439 3
Width: 585
VWidth: 0
GlyphClass: 2
Flags: W
HStem: 443 72<94.1278 405.041> 575 61<-14 406 476 596> 708 64<119.018 394.718>
VStem: 406 70<636 696.221> 429 65<303.208 423.284>
LayerCount: 2
Back
Fore
SplineSet
321 443 m 0xe8
 270 443 94 444 94 444 c 1
 86 496 l 1
 86 496 216 515 311 515 c 0
 312 515 314 515 315 515 c 0
 485 515 494 424 494 319 c 0
 494 212 209 147 209 147 c 0
 248 125 492 -18 492 -18 c 2
 467 -65 l 1
 467 -65 244 33 94 128 c 0
 102 198 l 1
 102 198 429 251 429 342 c 0
 429 439 391 443 321 443 c 0xe8
406 636 m 0xf0
 406 690 390 708 342 708 c 0
 295 708 81 708 81 708 c 2
 77 758 l 1
 77 758 288 772 348 772 c 0
 442 772 476 714 476 636 c 0
 596 636 l 1
 596 575 l 0
 -14 575 l 1
 -14 636 l 1
 406 636 l 0xf0
EndSplineSet
Validated: 1
EndChar

StartChar: e
Encoding: 101 101 4
Width: 525
Flags: W
HStem: -5 73.9763<154.032 450.932> 225 73<124 403.251> 461 74<160.856 389.792>
VStem: 50 74<101.024 225 298 420.766> 411 74<306.569 441.221>
LayerCount: 2
Back
Fore
SplineSet
50 268 m 0
 50 505 118 535 282 535 c 0
 407 535 485 523 485 347 c 0
 485 270 444 225 348 225 c 2
 124 225 l 1
 124 100 147 69 225 69 c 0
 239.153846154 69 253.094674556 68.9763313609 266.826126536 68.9763313609 c 0
 342.349112426 68.9763313609 411.538461538 69.6923076923 475 79 c 1
 475 23 l 1
 394 0 308 -5 225 -5 c 0
 90 -5 50 60 50 268 c 0
124 298 m 1
 348 298 l 2
 392 298 411 314 411 347 c 0
 411 452 391 461 283 461 c 0
 170 461 124 460 124 298 c 1
EndSplineSet
Validated: 1
EndChar

StartChar: BNGha
Encoding: 2489 2489 5
Width: 585
VWidth: 0
GlyphClass: 2
Flags: W
HStem: 443 72<94.1278 405.041> 575 61<-14 593>
VStem: 429 65<303.208 423.284>
LayerCount: 2
Back
Fore
SplineSet
321 443 m 4
 270 443 94 444 94 444 c 5
 86 496 l 5
 86 496 216 515 311 515 c 4
 312 515 314 515 315 515 c 4
 485 515 494 424 494 319 c 4
 494 212 209 147 209 147 c 4
 248 125 492 -18 492 -18 c 6
 467 -65 l 5
 467 -65 244 33 94 128 c 4
 102 198 l 5
 102 198 429 251 429 342 c 4
 429 439 391 443 321 443 c 4
593 575 m 4
 -14 575 l 5
 -14 636 l 5
 151 636 429 636 593 636 c 5
 593 575 l 4
EndSplineSet
Validated: 1
EndChar

StartChar: BNGu
Encoding: 2441 2441 6
Width: 750
VWidth: 0
GlyphClass: 2
Flags: W
HStem: -0.356499 76.9109<347.063 449.277> 358 70<390.16 603.586> 575 61<-14 325 390 527 597 759> 708 64<243.425 515.718>
VStem: 325 65<412 575> 527 70<636 696.221> 613.638 69.363<250.444 347.265>
LayerCount: 2
Back
Fore
SplineSet
527 636 m 4
 527 690 511 708 463 708 c 0
 416 708 137 708 137 708 c 2
 133 758 l 1
 133 758 409 772 469 772 c 0
 563 772 597 714 597 636 c 0
 759 636 l 1
 759 575 l 0
 390 575 l 0
 390 412 l 1
 390 412 490 428 550 428 c 0
 632.997950811 428 683.001487567 365.597521243 683.001487567 305.791711193 c 0
 683.001487567 294.981688832 681.367806961 284.256503017 678 274 c 0
 664 232 607 134 496 41 c 0
 464.992319078 15.0894721061 435.969295509 -0.356498831844 403.949515313 -0.356498831844 c 0
 360.586555335 -0.356498831844 311.727520726 27.971530283 245 97 c 0
 198 146 113 282 74 398 c 1
 121 416 l 1
 124 411 224 225 294 150 c 0
 334.496291056 106.23787902 363.473685413 76.5544095615 397.094315935 76.5544095615 c 0
 414.947018848 76.5544095615 434.108954995 84.9241291624 457 104 c 0
 562 191 597 251 608 281 c 0
 611.864832569 291.628289565 613.638494828 301.02428234 613.638494828 309.267355338 c 0
 613.638494828 343.681100459 582.724401834 358 544 358 c 0
 497 358 325 342 325 342 c 2
 325 575 l 0
 -14 575 l 1
 -14 636 l 1
 527 636 l 4
EndSplineSet
Validated: 1
EndChar

StartChar: BNGdda
Encoding: 2465 2465 7
Width: 750
VWidth: 0
GlyphClass: 2
Flags: W
HStem: -0.356499 76.9109<347.063 449.277> 358 70<390.247 602.702> 575 61<-14 325 390 759>
VStem: 325 65<412 575> 613.638 69.363<249.539 347.349>
LayerCount: 2
Back
Fore
SplineSet
678 274 m 4
 664 232 607 134 496 41 c 4
 464.992319078 15.0894721061 435.969295509 -0.356498831844 403.949515313 -0.356498831844 c 4
 360.586555335 -0.356498831844 311.727520726 27.971530283 245 97 c 4
 198 146 113 282 74 398 c 5
 121 416 l 5
 124 411 224 225 294 150 c 4
 334.496291056 106.23787902 363.473685413 76.5544095615 397.094315935 76.5544095615 c 4
 414.947018848 76.5544095615 434.108954995 84.9241291624 457 104 c 4
 562 191 597 251 608 281 c 4
 611.864832569 291.628289565 613.638494828 301.02428234 613.638494828 309.267355338 c 4
 613.638494828 343.681100459 582.724401834 358 544 358 c 4
 497 358 325 342 325 342 c 6
 325 575 l 4
 -14 575 l 5
 -14 636 l 5
 151 636 595 636 759 636 c 5
 759 575 l 4
 390 575 l 4
 390 412 l 5
 390 412 490 428 550 428 c 4
 632.997950811 428 683.001487567 365.597521243 683.001487567 305.791711193 c 4
 683.001487567 294.981688832 681.367806961 284.256503017 678 274 c 4
EndSplineSet
Validated: 1
EndChar

StartChar: BNGrra
Encoding: 2524 2524 8
Width: 750
VWidth: 0
GlyphClass: 2
Flags: W
HStem: -152 98<332 427> -0.356499 76.9109<347.063 449.277> 358 70<390.247 602.702> 575 61<-14 325 390 759>
VStem: 325 65<412 575> 332 95<-152 -54> 613.638 69.363<249.539 347.349>
LayerCount: 2
Back
Fore
SplineSet
332 -132 m 6xf6
 332 -75 l 6
 332 -62 339 -54 352 -54 c 6
 406 -54 l 6
 421 -54 427 -62 427 -75 c 6
 427 -132 l 6
 427 -147 418 -152 406 -152 c 6
 352 -152 l 6
 340 -152 332 -144 332 -132 c 6xf6
678 274 m 4
 664 232 607 134 496 41 c 4
 464.992319078 15.0894721061 435.969295509 -0.356498831844 403.949515313 -0.356498831844 c 4
 360.586555335 -0.356498831844 311.727520726 27.971530283 245 97 c 4
 198 146 113 282 74 398 c 5
 121 416 l 5
 124 411 224 225 294 150 c 4
 334.496291056 106.23787902 363.473685413 76.5544095615 397.094315935 76.5544095615 c 4
 414.947018848 76.5544095615 434.108954995 84.9241291624 457 104 c 4
 562 191 597 251 608 281 c 4
 611.864832569 291.628289565 613.638494828 301.02428234 613.638494828 309.267355338 c 4
 613.638494828 343.681100459 582.724401834 358 544 358 c 4
 497 358 325 342 325 342 c 6
 325 575 l 4
 -14 575 l 5
 -14 636 l 5
 151 636 595 636 759 636 c 5
 759 575 l 4
 390 575 l 4
 390 412 l 5xfa
 390 412 490 428 550 428 c 4
 632.997950811 428 683.001487567 365.597521243 683.001487567 305.791711193 c 4
 683.001487567 294.981688832 681.367806961 284.256503017 678 274 c 4
EndSplineSet
Validated: 1
EndChar

StartChar: BNGuu
Encoding: 2442 2442 9
Width: 825
VWidth: 0
GlyphClass: 2
Flags: W
HStem: 0.618857 75.9356<395.612 505.124> 358 70<469.16 682.586> 575 61<-14 404 469 606 676 838> 708 64<317.419 594.718>
VStem: 404 65<412 575> 606 70<636 696.221> 692.638 69.363<256.755 347.265>
LayerCount: 2
Back
Fore
SplineSet
606 636 m 4
 606 690 590 708 542 708 c 0
 495 708 196 708 196 708 c 2
 192 758 l 1
 192 758 488 772 548 772 c 0
 642 772 676 714 676 636 c 0
 838 636 l 1
 838 575 l 0
 469 575 l 0
 469 412 l 1
 469 412 569 428 629 428 c 0
 711.997950811 428 762.001487567 365.597521243 762.001487567 305.791711193 c 0
 762.001487567 294.981688832 760.367806961 284.256503017 757 274 c 0
 743 232 605 86 552 41 c 0
 525.210970007 18.2545971755 488.969063995 0.618857063588 443.016012328 0.618857063588 c 0
 398.054546412 0.618857063588 343.796511903 17.5017124412 280 63 c 0
 225 102 135 186 68 300 c 1
 110 325 l 1
 114 321 202 216 279 136 c 1
 216 236 184 311 153 398 c 1
 200 416 l 1
 203 411 292 235 350 150 c 0
 380.045635299 106.23787902 412.224399617 76.5544095615 449.322867585 76.5544095615 c 0
 469.022317502 76.5544095615 490.108954995 84.9241291624 513 104 c 0
 618 191 676 251 687 281 c 0
 690.864832569 291.628289565 692.638494828 301.02428234 692.638494828 309.267355338 c 0
 692.638494828 343.681100459 661.724401834 358 623 358 c 0
 576 358 404 342 404 342 c 2
 404 575 l 0
 -14 575 l 1
 -14 636 l 1
 606 636 l 4
EndSplineSet
Validated: 1
EndChar

StartChar: BNGka
Encoding: 2453 2453 10
Width: 860
VWidth: 0
GlyphClass: 2
Flags: W
HStem: 0 21G<380.5 514.044> 575 61<-14 449 514 872>
VStem: 449 65<82 457 532 574> 729.146 71.5596<300.312 386.125>
LayerCount: 2
Back
Fore
SplineSet
515 457 m 5
 514 0 l 1
 449 0 l 1
 312 102 131 237 71 281 c 1
 71 362 l 1
 449 532 l 0
 449 574 l 1
 -14 575 l 1
 -14 636 l 1
 151 636 708 636 872 636 c 1
 872 575 l 1
 514 575 l 0
 515 532 l 5
 701 465 l 6
 749.154296875 449.19921875 800.705078125 411.88671875 800.705078125 348.375976562 c 4
 800.705078125 327.4765625 795.122070312 303.740234375 782 277 c 4
 761 233 735 199 700 164 c 5
 647 189 l 6
 648 190 716 307 716 307 c 6
 724.978515625 321.963867188 729.145507812 335.150390625 729.145507812 346.802734375 c 4
 729.145507812 377.979492188 699.315429688 398.168945312 652 412 c 6
 515 457 l 5
449 82 m 0
 449 459 l 8
 142 316 l 0
 449 82 l 0
EndSplineSet
Validated: 1
EndChar

StartChar: BNGVOCr
Encoding: 2443 2443 11
Width: 800
VWidth: 0
GlyphClass: 2
Flags: W
HStem: 0 21G<405.5 539> 451 60<149.053 266.926> 575 61<713 812>
VStem: 80 59<520.063 583.756> 474 65<82 198 271 418 491 636> 648 65<39 160 219 575>
LayerCount: 2
Back
Fore
SplineSet
648 160 m 0
 539 198 l 0
 539 0 l 1
 474 0 l 1
 337 83 146 202 86 240 c 1
 86 321 l 1
 366 443 l 25
 337 505 l 2
 337 505 254 451 188 451 c 4
 157 451 129 458 109 479 c 4
 92 497 80 532 80 557 c 0
 80 580 87.806640625 597.20703125 106 614 c 0
 132 638 209 648 209 648 c 1
 221 609 l 2
 221 609 185.208984375 594.557617188 158 583 c 0
 144.822265625 577.40234375 139 566 139 554 c 0
 139 545 143 532 152 523 c 0
 162 513 178 511 190 511 c 0
 255 511 365 589 365 589 c 2
 422 468 l 0
 474 491 l 0
 474 636 l 1
 539 636 l 16
 539 271 l 0
 648 219 l 0
 648 636 l 1
 646 660 643 702 643 702 c 1
 679 702 l 1
 702 636 l 1
 812 636 l 17
 812 575 l 1
 713 575 l 0
 713 39 l 1
 648 39 l 1
 648 160 l 0
474 82 m 0
 474 418 l 8
 157 275 l 0
 474 82 l 0
EndSplineSet
Validated: 1
EndChar

StartChar: BNGjha
Encoding: 2461 2461 12
Width: 775
VWidth: 0
GlyphClass: 2
Flags: W
HStem: 0 21G<378.5 512> 575 61<-14 447 686 790>
VStem: 447 65<82 198 271 459 532 575> 621 65<39 160 219 575>
LayerCount: 2
Back
Fore
SplineSet
512 271 m 4
 621 219 l 4
 621 636 l 5
 619 660 616 702 616 702 c 5
 652 702 l 5
 675 636 l 5
 790 636 l 21
 790 575 l 5
 686 575 l 4
 686 39 l 5
 621 39 l 5
 621 160 l 4
 512 198 l 4
 512 0 l 5
 447 0 l 5
 310 102 129 237 69 281 c 5
 69 362 l 5
 447 532 l 4
 447 575 l 13
 -14 575 l 21
 -14 636 l 5
 151 636 512 636 512 636 c 20
 512 271 l 4
447 82 m 4
 447 459 l 12
 140 316 l 4
 447 82 l 4
EndSplineSet
Validated: 1
EndChar

StartChar: BNGdha
Encoding: 2471 2471 13
Width: 575
VWidth: 0
GlyphClass: 2
Flags: W
HStem: 0 21G<378.5 512> 575 61<512 587> 606.29 55.7998<160.3 291.959>
VStem: 88.4199 62.707<516.104 597.539> 447 65<77 459 528 575>
LayerCount: 2
Back
Fore
SplineSet
273 450 m 5xb8
 447 528 l 4
 448 636 l 5
 446 660 443 702 443 702 c 5
 479 702 l 5
 502 636 l 13
 587 636 l 21
 587 575 l 5
 512 575 l 4xd8
 512 0 l 21
 447 0 l 5
 310 102 129 237 69 281 c 5
 69 358 l 5
 205 419.513671875 l 5
 205 419.513671875 98 481 90 534 c 4
 89.0888671875 540.036132812 88.419921875 546.204101562 88.419921875 552.463867188 c 4
 88.419921875 599.310546875 118.483398438 653.943359375 167 661 c 4
 171.954101562 661.75390625 177.40625 662.08984375 183.192382812 662.08984375 c 4
 231.13671875 662.08984375 302 639 302 639 c 5
 292 599 l 6
 292 599 236.110351562 606.290039062 204.51953125 606.290039062 c 4
 201.009765625 606.290039062 197.799804688 606.200195312 195 606 c 4
 172.469726562 604.197265625 151.126953125 584.526367188 151.126953125 554.307617188 c 4
 151.126953125 550.995117188 151.443511981 547.56152332 152 544 c 4
 157 512 273 450 273 450 c 5xb8
447 77 m 4
 447 459 l 12
 135 315 l 4
 447 77 l 4
EndSplineSet
Validated: 524289
EndChar

StartChar: BNGba
Encoding: 2476 2476 14
Width: 600
VWidth: 0
GlyphClass: 2
Flags: W
HStem: 0 21G<378.5 512.035> 575 61<-14 447 513 615>
VStem: 447 65<82 459 532 575>
LayerCount: 2
Back
Fore
SplineSet
513 575 m 21
 512 0 l 5
 447 0 l 5
 310 102 129 237 69 281 c 5
 69 362 l 5
 447 532 l 4
 447 575 l 13
 -14 575 l 21
 -14 636 l 5
 151 636 615 636 615 636 c 21
 615 575 l 13
 513 575 l 21
447 82 m 4
 447 459 l 12
 140 316 l 4
 447 82 l 4
EndSplineSet
Validated: 1
EndChar

StartChar: BNGra
Encoding: 2480 2480 15
Width: 608
VWidth: 0
GlyphClass: 2
Flags: W
HStem: -8.43359 97.9033<127.673 223> 0 21G<385.5 519.035> 575 61<-14 454 520 620>
VStem: 127.673 95.3271<-8.43359 89.4697> 454 65<82 459 532 575>
LayerCount: 2
Back
Fore
SplineSet
127.672851562 11.318359375 m 6xb8
 127.672851562 68 l 6
 127.672851562 80.8818359375 134.543945312 89.4697265625 148.284179688 89.4697265625 c 6
 201.530273438 89.4697265625 l 6
 216.989257812 89.4697265625 223 81.740234375 223 68 c 6
 223 11.318359375 l 6
 223 -4.1396484375 213.552734375 -8.43359375 201.530273438 -8.43359375 c 6
 148.284179688 -8.43359375 l 6
 136.26171875 -8.43359375 127.672851562 -0.705078125 127.672851562 11.318359375 c 6xb8
520 575 m 21
 519 0 l 5
 454 0 l 5x78
 317 102 136 237 76 281 c 5
 76 362 l 5
 454 532 l 4
 454 575 l 13
 -14 575 l 21
 -14 636 l 5
 151 636 620 636 620 636 c 21
 620 575 l 13
 520 575 l 21
454 82 m 4
 454 459 l 12
 147 316 l 4
 454 82 l 4
EndSplineSet
Validated: 1
EndChar

StartChar: BNGe
Encoding: 2447 2447 16
Width: 700
VWidth: 0
GlyphClass: 2
Flags: W
HStem: -0 72<242.42 416.639> 556 74<399.532 531.126>
VStem: 553 69<152 533.946> 575 47<0 26.7273>
LayerCount: 2
Back
Fore
SplineSet
222 435 m 6xe0
 192 473 l 5
 265 541 381 630 461 630 c 4
 559 630 622 589 622 463 c 6xe0
 622 0 l 5
 575 0 l 5xd0
 553 84 l 6
 553 84 411 0 327 0 c 4
 321 0 314 -0 306 -0 c 4
 263 -0 198 6 143 89 c 4
 118 127 82 206 65 254 c 5
 105 279 l 5
 200 138 l 6
 239 80 281 72 309 72 c 4
 311 72 312 72 314 72 c 4
 403 72 553 152 553 152 c 5
 553 473 l 5
 553 531 518 556 472 556 c 4
 404 556 222 435 222 435 c 6xe0
EndSplineSet
Validated: 1
EndChar

StartChar: BNGai
Encoding: 2448 2448 17
Width: 850
VWidth: 0
GlyphClass: 2
Flags: W
HStem: -0 72<242.42 416.639> 279 70<622 695.773> 556 74<399.532 531.126>
VStem: 553 69<152 279 349 533.946> 575 47<0 26.7273> 713 64<367.233 632.575>
LayerCount: 2
Back
Fore
SplineSet
622 279 m 0xf4
 622 0 l 1
 575 0 l 1xec
 553 84 l 2
 553 84 411 0 327 0 c 0
 321 0 314 -0 306 -0 c 0
 263 -0 198 6 143 89 c 0
 118 127 82 206 65 254 c 1
 105 279 l 1
 200 138 l 2
 239 80 281 72 309 72 c 0
 311 72 312 72 314 72 c 0
 403 72 553 152 553 152 c 1
 553 473 l 1
 553 531 518 556 472 556 c 0
 404 556 222 435 222 435 c 2
 192 473 l 1
 265 541 381 630 461 630 c 0
 559 630 622 589 622 463 c 2
 622 349 l 0
 676 349 713 365 713 413 c 0
 713 460 713 739 713 739 c 2
 763 743 l 1
 763 743 777 467 777 407 c 0
 777 313 700 279 622 279 c 0xf4
EndSplineSet
Validated: 1
EndChar

StartChar: BNGnya
Encoding: 2462 2462 18
Width: 925
VWidth: 0
GlyphClass: 2
Flags: W
HStem: 0 72<247.42 421.639> 103 63<639 781.981> 278 60<682 783.639> 444 56<627 699.333> 454 65<627.823 784.713> 554 76<404.888 537.482>
VStem: 558 69<174 444 500 533.558> 580 47<0 26.7273> 788 71<170.276 272.459 343.875 450.189>
LayerCount: 2
Back
Fore
SplineSet
627 500 m 5xf680
 630 501 705 519 742 519 c 4
 806 519 860 518 860 405 c 6
 860 397 l 6
 860 364 856 317 815 311 c 5
 856 304 859 257 859 224 c 6
 859 215 l 6
 859 103 806 103 742 103 c 4
 706 103 627 124 627 124 c 4
 627 0 l 5
 580 0 l 5xed80
 558 84 l 6
 558 84 416 0 332 0 c 4
 326 0 319 0 311 0 c 4
 268 0 203 6 148 89 c 4
 123 127 87 206 70 254 c 5
 110 279 l 5
 205 138 l 6
 244 80 286 72 314 72 c 4
 316 72 317 72 319 72 c 4
 408 72 558 152 558 152 c 5
 558 473 l 5
 558 531 523 554 477 554 c 4
 409 554 227 435 227 435 c 6
 197 473 l 5
 270 541 392 630 472 630 c 4
 570 630 627 575 627 500 c 5xf680
626 174 m 4
 730 166 l 6
 734 166 738 166 742 166 c 4
 768 166 788 176 788 208 c 6
 788 229 l 6
 788 267 772 278 735 278 c 6
 682 278 l 21
 682 302 682 338 682 338 c 29
 735 338 l 6
 772 338 788 349 788 387 c 6
 788 412 l 6
 788 445 769 454 744 454 c 4xee80
 740 454 725 454 720 453 c 6
 627 444 l 6xf680
 626 174 l 4
EndSplineSet
Validated: 1
EndChar

StartChar: BNGtta
Encoding: 2463 2463 19
Width: 610
VWidth: 0
GlyphClass: 2
Flags: W
HStem: 0 71<163.774 274.966> 337 66<269 457.897> 337 58<269 405.344> 575 61<-13 80 147 416 486 620> 708 64<132.908 404.718>
VStem: 80 67<86.6083 574> 416 70<636 696.221> 468 72<241.198 324.635>
LayerCount: 2
Back
Fore
SplineSet
269 337 m 5xdd
 269 337 263 395 263 395 c 5xbd
 316 401 372 403 407 403 c 4
 423 403 435 403 439 402 c 5
 510 399 540 346 540 297 c 4xdd
 540 271 532 243 516 222 c 4
 432 112 279 0 208 0 c 4
 143 0 80 37 80 159 c 6
 80 574 l 5
 -13 575 l 5
 -13 636 l 5
 416 636 l 4
 416 690 400 708 352 708 c 4
 305 708 47 708 47 708 c 6
 43 758 l 5
 43 758 298 772 358 772 c 4
 452 772 486 714 486 636 c 4xde
 620 636 l 5
 620 575 l 5
 147 575 l 21
 147 166 l 5
 147 106 163 71 212 71 c 4
 267 71 373 150 437 229 c 4
 459 256 468 277 468 292 c 4
 468 332 416 337 367 337 c 4
 339 337 269 337 269 337 c 5xdd
EndSplineSet
Validated: 1
EndChar

StartChar: BNGddha
Encoding: 2466 2466 20
Width: 600
VWidth: 0
GlyphClass: 2
Flags: W
HStem: 0 71<158.774 269.966> 337 66<264 452.897> 337 58<264 400.344> 575 61<-14 75 142 612>
VStem: 75 67<86.6083 575> 463 72<241.198 324.635>
LayerCount: 2
Back
Fore
SplineSet
142 575 m 21xdc
 142 166 l 5
 142 106 158 71 207 71 c 4
 262 71 368 150 432 229 c 4
 454 256 463 277 463 292 c 4
 463 332 411 337 362 337 c 4
 334 337 264 337 264 337 c 5xdc
 264 337 258 395 258 395 c 5xbc
 311 401 367 403 402 403 c 4
 418 403 430 403 434 402 c 5
 505 399 535 346 535 297 c 4
 535 271 527 243 511 222 c 4
 427 112 274 0 203 0 c 4
 138 0 75 37 75 159 c 6
 75 575 l 13
 -14 575 l 21
 -14 636 l 5
 151 636 448 636 612 636 c 5
 612 575 l 13
 142 575 l 21xdc
EndSplineSet
Validated: 1
EndChar

StartChar: BNGrha
Encoding: 2525 2525 21
Width: 600
VWidth: 0
GlyphClass: 2
Flags: W
HStem: -164 98<194 289> 0 71<155.774 266.966> 337 66<261 449.897> 337 58<261 397.344> 575 61<-14 72 139 613>
VStem: 72 67<86.6083 575> 194 95<-164 -66> 460 72<241.198 324.635>
LayerCount: 2
Back
Fore
SplineSet
613 575 m 13xef
 139 575 l 21
 139 166 l 5
 139 106 155 71 204 71 c 4
 259 71 365 150 429 229 c 4
 451 256 460 277 460 292 c 4
 460 332 408 337 359 337 c 4
 331 337 261 337 261 337 c 5xef
 261 337 255 395 255 395 c 5xdf
 308 401 364 403 399 403 c 4
 415 403 427 403 431 402 c 5
 502 399 532 346 532 297 c 4
 532 271 524 243 508 222 c 4
 424 112 271 0 200 0 c 4
 135 0 72 37 72 159 c 6
 72 575 l 13
 -14 575 l 21
 -14 636 l 5
 151 636 449 636 613 636 c 5
 613 575 l 13xef
194 -144 m 6
 194 -87 l 6
 194 -74 201 -66 214 -66 c 6
 268 -66 l 6
 283 -66 289 -74 289 -87 c 6
 289 -144 l 6
 289 -159 280 -164 268 -164 c 6
 214 -164 l 6
 202 -164 194 -156 194 -144 c 6
EndSplineSet
Validated: 1
EndChar

StartChar: BNGya
Encoding: 2479 2479 22
Width: 670
VWidth: 0
GlyphClass: 2
Flags: W
HStem: 0 21G<441.5 575.035> 575 61<-14 115 147 510 576 683>
VStem: 304.048 88.1683<380.118 431.281> 510 65<82 575>
LayerCount: 2
Back
Fore
SplineSet
115 575 m 4
 -14 575 l 5
 -14 636 l 5
 151 636 683 636 683 636 c 21
 683 575 l 13
 576 575 l 21
 575 0 l 5
 510 0 l 5
 373 69 187 167 127 197 c 5
 126 272 l 5
 248.250252525 352.46852065 304.048462473 386.241011379 304.048462473 408.984650997 c 4
 304.048462473 415.635593275 299.276833205 421.343394387 290 427 c 4
 250 452 102 545 102 545 c 6
 115 575 l 4
147 575 m 5
 147 575 258.419486178 523.054156706 328 481 c 4
 364.286491069 459.068604299 392.216796875 438.158203125 392.216796875 414.08984375 c 4
 392.216796875 377.799804688 340.083984375 329.782226562 203 242 c 5
 510 82 l 4
 510 575 l 4
 147 575 l 5
EndSplineSet
Validated: 1
EndChar

StartChar: BNGyya
Encoding: 2527 2527 23
Width: 670
VWidth: 0
GlyphClass: 2
Flags: W
HStem: -56 97<204 299> 0 21G<440.5 574.035> 575 61<-14 105 139 505 575 682>
VStem: 204 95<-56 41> 303.048 83.1682<380.053 431.095> 509 65<82 575>
LayerCount: 2
Back
Fore
SplineSet
204 -37 m 6xbc
 204 20 l 6
 204 33 211 41 224 41 c 6
 278 41 l 6
 293 41 299 34 299 20 c 6
 299 -37 l 6
 299 -52 290 -56 278 -56 c 6
 224 -56 l 6
 212 -56 204 -49 204 -37 c 6xbc
105 575 m 4
 -14 575 l 5
 -14 636 l 5
 151 636 682 636 682 636 c 21
 682 575 l 13
 575 575 l 21
 574 0 l 5
 509 0 l 5x7c
 372 69 186 167 126 197 c 5
 125 272 l 5
 247.250252525 352.46852065 303.048462473 386.241011379 303.048462473 408.984650997 c 4
 303.048462473 415.635593275 298.276833205 421.343394387 289 427 c 4
 249 452 86 547 86 547 c 6
 105 575 l 4
139 575 m 4
 139 575 257.419486178 523.054156706 327 481 c 4
 363.286491069 459.068604299 386.216673423 440.158278427 386.216673423 416.090017749 c 4
 386.216673423 379.799404996 334.084396004 331.782113231 197 244 c 5
 509 82 l 4
 505 575 l 4
 139 575 l 4
EndSplineSet
Validated: 1
EndChar

StartChar: BNGssa
Encoding: 2487 2487 24
Width: 610
VWidth: 0
GlyphClass: 2
Flags: W
HStem: 0 21G<406.5 540.035> 335 64<378.25 475> 575 61<-14 103 132 475 541 622>
VStem: 475 65<70 335 399 575>
LayerCount: 2
Back
Fore
SplineSet
103 575 m 4
 -14 575 l 5
 -14 636 l 5
 151 636 622 636 622 636 c 21
 622 575 l 13
 541 575 l 21
 540 0 l 5
 475 0 l 5
 338 69 147 166 87 196 c 5
 86 271 l 5
 195 339 257 371 257 394 c 4
 257 406 252 414 238 424 c 4
 213.587890625 441.4375 86 544 86 544 c 6
 103 575 l 4
132 575 m 21
 132 575 245 493 298 461 c 4
 323 446 402 399 475 399 c 4
 475 575 l 4
 132 575 l 21
475 335 m 4
 397 335 340 363 340 363 c 5
 340 363 236 293 151 238 c 5
 475 70 l 4
 475 335 l 4
EndSplineSet
Validated: 1
EndChar

StartChar: BNGpha
Encoding: 2475 2475 25
Width: 876
VWidth: 0
GlyphClass: 2
Flags: W
HStem: 0 21G<424.5 558.046> 432 61<559 723.115> 575 61<-14 104 139 885>
VStem: 303 81<379.507 431.383> 493 65<75 432> 741 70<321.78 414.661>
LayerCount: 2
Back
Fore
SplineSet
139 575 m 5
 139 575 257 523 327 481 c 4
 362 460 384 440 384 415 c 4
 384 376 332 327 193 238 c 5
 493 75 l 4
 493 493 l 4
 701 493 l 22
 753 493 811 443 811 370 c 4
 811 348 806 325 794 300 c 4
 772 256 746 222 711 186 c 5
 659 212 l 6
 660 213 728 329 728 329 c 6
 737 344 741 358 741 371 c 4
 741 407 710 432 664 432 c 6
 559 432 l 4
 558 0 l 5
 493 0 l 5
 356 69 186 167 126 197 c 5
 125 272 l 5
 247 352 303 386 303 409 c 4
 303 416 298 421 289 427 c 4
 249 452 93 543 93 543 c 6
 104 575 l 4
 -14 575 l 5
 -14 636 l 5
 151 636 885 636 885 636 c 21
 885 575 l 4
 139 575 l 5
EndSplineSet
Validated: 1
EndChar

StartChar: BNGgha
Encoding: 2456 2456 26
Width: 630
VWidth: 0
GlyphClass: 2
Flags: W
HStem: 0 21G<424.5 558.035> 365 60.8091<147.517 307> 575 61<-10 132 178.707 493 559 641>
VStem: 76 65<435.737 519.241> 493 65<78 575>
LayerCount: 2
Back
Fore
SplineSet
190 575 m 5
 158 518 141 494 141 469 c 4
 141 460 141 452 149 443 c 4
 161.996351871 428.704012942 220.597097467 425.809124316 281.996793899 425.809124316 c 4
 315.084684511 425.809124316 348.985407483 426.649817594 377 427 c 5
 381 412 398 342 398 342 c 5
 398 342 279 274 192 225 c 5
 493 78 l 4
 493 575 l 4
 190 575 l 5
132 575 m 5
 -10 575 l 5
 -10 636 l 5
 155 636 641 636 641 636 c 21
 641 575 l 13
 559 575 l 21
 558 0 l 5
 493 0 l 5
 356 66 170 156 110 185 c 5
 109 260 l 5
 200 309 307 365 307 365 c 5
 307 365 304 365 299 365 c 4
 289.925373134 365 274.862775674 364.543773669 256.781083444 364.543773669 c 4
 199.145689463 364.543773669 110.835820896 369.179104478 88 408 c 4
 80 422 76 436 76 451 c 4
 76 492 93 512 132 575 c 5
EndSplineSet
Validated: 524289
EndChar

StartChar: BNGbha
Encoding: 2477 2477 27
Width: 850
VWidth: 0
GlyphClass: 2
Flags: W
HStem: 37 75<363.864 504.38> 286 68<371.552 569.472> 340 85<612.14 671.224> 456 60.0979<371.122 500> 456 50<395.025 500> 575 61<-14 860>
VStem: 305 65<356.449 454.844> 692 79<245.224 318.398>
LayerCount: 2
Back
Fore
SplineSet
645 340 m 4xa7
 637 337 572 286 546 286 c 4
 477 286 433 286 391 286 c 4
 360 286 305 304 305 359 c 4
 305 388 305 398 305 428 c 4
 305 464 315 492 330 504 c 4
 341.945945946 513.135135135 366.236669102 516.097881665 392.722760745 516.097881665 c 4xd7
 441.620160701 516.097881665 505 506 505 506 c 5x8f
 500 456 l 6
 500 456 427 456 387 456 c 4
 370 456 370 430 370 414 c 4
 370 401 371 393 371 377 c 4
 371 363 385 354 401 354 c 4
 426 354 468 354 524 354 c 4xd7
 549 354 633 421 644 424 c 4
 646 425 648 425 650 425 c 4
 692 425 771 310 771 264 c 4
 771 258 770 254 769 251 c 4
 742 190 606 109 513 57 c 4
 491 44 466 37 438 37 c 4
 382 37 315 67 240 142 c 4
 208 174 106 303 73 362 c 5
 110 393 l 5
 290 194 l 6
 342 138 391 112 435 112 c 4
 453 112 471 116 488 125 c 4
 553 159 672 229 691 270 c 4
 692 272 692 274 692 277 c 4
 692 295 659 340 647 340 c 4
 646 340 646 340 645 340 c 4xa7
860 574 m 5
 -14 575 l 5
 -14 636 l 5
 151 636 696 636 860 636 c 5
 860 574 l 5
EndSplineSet
Validated: 1
EndChar

StartChar: BNGkha
Encoding: 2454 2454 28
Width: 750
VWidth: 0
GlyphClass: 2
Flags: W
HStem: 0 21G<515.5 647> 450.622 62.9746<164.998 297.321> 575 62<647 761>
VStem: 94.1729 62.1426<522.986 578.523> 582 65<82 575>
LayerCount: 2
Back
Fore
SplineSet
510 390 m 4
 252 273 l 4
 582 82 l 4
 582 636 l 4
 580 660 577 702 577 702 c 5
 613 702 l 5
 636 637 l 5
 761 637 l 21
 761 575 l 5
 647 575 l 5
 647 0 l 21
 582 0 l 5
 449 76 233 200 173 235 c 5
 173 316 l 5
 425 426 l 5
 425 426 412 466 406 485 c 4
 396.650368075 514.607167762 386 506 386 506 c 6
 386 506 287.709960938 450.622070312 206.05078125 450.622070312 c 4
 174.828125 450.622070312 145.745117188 458.42578125 125 480 c 4
 107.823242188 497.731445312 94.1728515625 527.5234375 94.1728515625 552.572265625 c 4
 94.1728515625 572.73046875 101.717773438 597.055664062 120 614 c 4
 154 646 247 653 247 653 c 5
 259 614 l 6
 259 614 204 591 177 578 c 4
 163.60546875 571.59375 156.315429688 561.45703125 156.315429688 550.35546875 c 4
 156.315429688 542.393554688 160.064453125 533.935546875 168 526 c 4
 176.435546875 517.205078125 189.833007812 513.596679688 206.138671875 513.596679688 c 4
 280.678710938 513.596679688 413 589 413 589 c 6
 413 589 417.3359375 591.2265625 423.76171875 591.2265625 c 4
 436.106445312 591.2265625 450.458333502 582.260416118 465 535 c 4
 481 483 510 390 510 390 c 4
EndSplineSet
Validated: 1
EndChar

StartChar: BNGtha
Encoding: 2469 2469 29
Width: 650
VWidth: 0
GlyphClass: 2
Flags: W
HStem: 0 21G<438.5 577> 533 72.0107<85.0734 333.609> 575 61<577 659>
VStem: 348 69<415.883 516.928> 512 65<82 575> 512 38<677.684 702>
LayerCount: 2
Back
Fore
SplineSet
237 533 m 4xd4
 186 533 85 534 85 534 c 5
 77 586 l 5
 77 586 167.993164062 605 235 605 c 4
 235.994140625 605 238.982421875 605.010742188 239.96484375 605.010742188 c 4
 396.3671875 605.010742188 417 548.219726562 417 441 c 4
 417 333 185 266 185 266 c 4
 512 82 l 4xd8
 512 702 l 4
 550 702 l 5xd4
 569 636 l 13
 659 636 l 21
 659 575 l 5
 577 575 l 4
 577 0 l 21xb8
 512 0 l 5
 365 84 168 194 108 231 c 5
 107 317 l 5
 107 317 348 375 348 454 c 4
 348 514 338 533 237 533 c 4xd4
EndSplineSet
Validated: 1
EndChar

StartChar: BNGca
Encoding: 2458 2458 30
Width: 620
VWidth: 0
GlyphClass: 2
Flags: W
HStem: 0 71<169.774 287.331> 575 61<-10 86 153 631>
VStem: 86 67<86.6083 408 463 574> 473 71<242.424 343.49>
LayerCount: 2
Back
Fore
SplineSet
153 408 m 4
 153 166 l 5
 153 106 169 71 218 71 c 4
 273 71 388 144 443 229 c 4
 465 263 473 288 473 307 c 4
 473 343 449 347 415 355 c 4
 409.159179688 356.374023438 397.987304688 358.9375 393 360 c 4
 285 383 153 408 153 408 c 4
153 463 m 4
 153 463 224.893554688 455.365234375 262 451 c 4
 381 437 405 434 434 429 c 4
 436.95703125 428.490234375 439 428 440 428 c 5
 514 414 544 369 544 312 c 4
 544 283 530.532226562 251.840820312 519 230 c 4
 453 105 285 0 214 0 c 4
 149 0 86 37 86 159 c 6
 86 574 l 5
 -10 575 l 5
 -10 636 l 5
 155 636 467 636 631 636 c 5
 631 575 l 5
 153 575 l 21
 153 463 l 4
EndSplineSet
Validated: 1
EndChar

StartChar: BNGcha
Encoding: 2459 2459 31
Width: 670
VWidth: 0
GlyphClass: 2
Flags: W
HStem: 174 82<151.064 215.307> 575 61<-14 79 146 682>
VStem: 79 67<259.941 463 516 574> 363 70<344.354 404.797> 528 66<254.791 377.555>
LayerCount: 2
Back
Fore
SplineSet
343 345 m 4
 349 349 363 359 363 379 c 4
 363 415 339 424 305 432 c 4
 299.159179688 433.374023438 287.987304688 435.9375 283 437 c 4
 175 460 146 463 146 463 c 5
 146 317 l 5
 147 273 156 256 175 256 c 4
 184 256 196.377929688 260.241210938 211 268 c 4
 260 294 337 341 343 345 c 4
428.66796875 405 m 21
 428.66796875 405 433 390.063476562 433 381 c 4
 433 349 417 316 373 289 c 4
 329 262 263.025390625 222.956054688 207 190 c 4
 190 180 171 174 153 174 c 4
 114 174 79 205 79 289 c 6
 79 574 l 5
 -14 575 l 5
 -14 636 l 5
 151 636 518 636 682 636 c 5
 682 575 l 5
 146 575 l 5
 146 516 l 4
 146 516 234.904440903 504.374015334 292 496 c 4
 367 485 409.327148438 478.064453125 482 461 c 4
 551.937898117 444.577746594 594 417 594 342 c 4
 594 314 587.897460938 274.482421875 582 244 c 4
 566.490234375 163.838867188 320 101 320 101 c 4
 374 81 620 -13 620 -13 c 6
 605 -61 l 5
 605 -61 412 -20 216 70 c 4
 224 143 l 5
 224 143 503.732421875 207.975585938 522 278 c 4
 528 301 528 312 528 337 c 4
 528 364 521.306640625 374.267578125 483 389 c 4
 458.840820312 398.291992188 428.66796875 405 428.66796875 405 c 21
EndSplineSet
Validated: 1
EndChar

StartChar: BNGnga
Encoding: 2457 2457 32
Width: 690
GlyphClass: 2
Flags: W
HStem: 3.16211 75.3477<305.991 413.621> 287 70<365.085 568.608> 428 59<366 513.76> 577 57<375.185 515.907>
VStem: 304.912 61.042<341 428 497.002 568.075> 518 55<491.683 573.301> 569.148 68.3691<214.913 282.735>
LayerCount: 2
Back
Fore
SplineSet
303 287 m 12xfa
 303 435 l 6
 303 435 232 456 177 484 c 4
 152.287109375 496.581054688 141 503 141 503 c 6
 164 549 l 5
 305 497 l 6
 305 497 304.912109375 499.350585938 304.912109375 503.3984375 c 4
 304.912109375 522.958984375 306.971679688 574.142578125 331 599 c 4
 354 623 373 634 433 634 c 4
 539 634 573 633 573 526 c 4xfc
 573 461 565 428 488 428 c 6
 366 428 l 5
 365 427 365 365 365 341 c 5
 365 341 482 357 525 357 c 4
 599.427734375 357 637.517578125 318.931640625 637.517578125 265.57421875 c 4
 637.517578125 248.67578125 633.697265625 230.2421875 626 211 c 4
 610 170 514 95 451 43 c 4
 420.670898438 17.966796875 392.525390625 3.162109375 361.516601562 3.162109375 c 4
 317.512695312 3.162109375 268.047851562 32.6064453125 200 103 c 4
 153 152 69 282 30 398 c 5
 77 416 l 5
 80 411 181 231 249 156 c 4
 290.0546875 110.234375 321.59765625 78.509765625 358.565429688 78.509765625 c 4
 376.525390625 78.509765625 395.607421875 86.2060546875 418 103 c 4
 466 139 539 195 554 218 c 4
 565.44921875 235.555664062 569.1484375 250.099609375 569.1484375 260.221679688 c 4
 569.1484375 280.35546875 548.923828125 286.334960938 507 287 c 4
 478 287 373 287 303 287 c 12xfa
366 487 m 5
 471 487 l 6
 503 487 518 499 518 524 c 4
 518 576 517 577 440 577 c 4
 381.825195312 577 365.954101562 571.359375 365.954101562 494.44921875 c 4
 365.954101562 492.037109375 365.969726562 489.5546875 366 487 c 5
EndSplineSet
Validated: 524289
EndChar

StartChar: BNGna
Encoding: 2472 2472 33
Width: 645
VWidth: 0
GlyphClass: 2
Flags: W
HStem: 0 21G<488 555> 362.225 70.1726<181.576 330.97> 575 61<-14 488 555 655>
VStem: 89.3553 68.3918<229.747 337.85> 488 67<0 290 363 574>
LayerCount: 2
Back
Fore
SplineSet
488 290 m 4
 488 290 358 341 244 361 c 4
 239.426076602 361.802442701 234.996430135 362.225323175 230.707858229 362.225323175 c 4
 186.444374688 362.225323175 157.747141609 320.187196362 157.747141609 281.704632379 c 4
 157.747141609 270.055743528 160.376689154 258.732653387 166 249 c 4
 194 203 282 118 282 118 c 5
 282 118 253 72 253 72 c 5
 253 72 156 150 135 172 c 4
 104.880634567 204.671854029 89.3553127274 248.028632832 89.3553127274 289.431560212 c 4
 89.3553127274 329.131693282 103.629863152 367.035383679 133 392 c 4
 168.503354419 422.177851256 208.908607296 432.397973075 246.964348702 432.397973075 c 4
 273.222093212 432.397973075 298.361296403 427.532438822 320 421 c 4
 406.010447409 395.034581913 434 383 488 363 c 4
 488 574 l 5
 -14 575 l 5
 -14 636 l 5
 151 636 491 636 655 636 c 5
 655 575 l 5
 555 575 l 5
 555 0 l 29
 488 0 l 21
 488 290 l 4
EndSplineSet
Validated: 524289
EndChar

StartChar: BNGnna
Encoding: 2467 2467 34
Width: 620
VWidth: 0
GlyphClass: 2
Flags: W
HStem: 0 21G<462 531> 538.592 68.2524<170.512 328.632> 575 61<531 632>
VStem: 77.3553 68.3918<406.747 513.054> 462 69<0 474.527 540 575>
LayerCount: 2
Back
Fore
SplineSet
531 575 m 4xb8
 531 0 l 5
 462 0 l 5
 462 465 l 5
 440 473 346 524 232 538 c 4
 228.707465447 538.399095097 225.484614535 538.591627969 222.335916795 538.591627969 c 4
 176.018837109 538.591627969 145.747141609 496.931050812 145.747141609 458.264707012 c 4
 145.747141609 446.868633322 148.376689154 435.732653387 154 426 c 4
 182 380 270 295 270 295 c 5
 270 295 241 249 241 249 c 5
 241 249 144 327 123 349 c 4
 92.880634567 381.671854029 77.3553127274 425.028632832 77.3553127274 466.431560212 c 4
 77.3553127274 506.131693282 91.6298631522 544.035383679 121 569 c 4
 155.547608888 598.365467554 199.378285507 606.844032712 237.792922667 606.844032712 c 4xd8
 266.094284206 606.844032712 291.455945777 602.242065185 308 598 c 4
 394 575 408 561 462 540 c 5
 462 636 l 20
 484 702 l 5
 531 702 l 5
 531 636 l 12
 632 636 l 21
 632 575 l 5
 531 575 l 4xb8
EndSplineSet
Validated: 524289
EndChar

StartChar: BNGga
Encoding: 2455 2455 35
Width: 555
VWidth: 0
GlyphClass: 2
Flags: W
HStem: 0 21G<400 469> 502 62<368.84 401.617> 549.388 71.3906<122.923 281.654> 575 61<469 572>
VStem: 15.8506 82.9395<446.022 515.932> 220.035 71.0049<258.289 339.419> 401.617 67.3828<0 502 564 575>
LayerCount: 2
Back
Fore
SplineSet
401.6171875 502 m 4xde
 219 541 l 4
 196.241210938 546.090820312 178.7734375 549.387695312 164.770507812 549.387695312 c 4
 132.01171875 549.387695312 118.213867188 531.342773438 100 476 c 4
 99.181640625 473.545898438 98.7900390625 471.240234375 98.7900390625 469.06640625 c 4
 98.7900390625 442.001953125 159.537109375 435.140625 216 412 c 4
 254 397 264 386 273 361 c 4
 278 348 289 297 291 265 c 4
 291.026367188 264.563476562 291.040039062 264.125 291.040039062 263.68359375 c 4
 291.040039062 230.756835938 217.756835938 184.338867188 125 135 c 5
 95 182 l 5
 138.477539062 210.65625 220.03515625 264.698242188 220.03515625 286.23828125 c 4
 220.03515625 286.497070312 220.0234375 286.750976562 220 287 c 4
 218 307 215 334 191 344 c 4
 129.75 368.682617188 15.8505859375 391.694335938 15.8505859375 448.177734375 c 4
 15.8505859375 453.48046875 16.8544921875 459.078125 19 465 c 4
 45 537 58 578 91 603 c 4
 108.905273438 616.428710938 135.889648438 620.778320312 161.793945312 620.778320312 c 4xae
 182.184570312 620.778320312 201.905273438 618.083007812 216 615 c 4
 313 593 347 581 401.837890625 564 c 4
 402 617 l 5
 400 641 394 702 394 702 c 5
 430 702 l 5
 456 636 l 13
 572 636 l 21
 572 575 l 5
 469 575 l 4
 469 0 l 5
 400 0 l 5
 401.6171875 502 l 4xde
EndSplineSet
Validated: 524289
EndChar

StartChar: BNGpa
Encoding: 2474 2474 36
Width: 700
VWidth: 0
GlyphClass: 2
Flags: W
HStem: 0 21G<554 623> 549 70<246.602 386.414> 575 61<623 711>
VStem: 556 67<0 384 455 575>
LayerCount: 2
Back
Fore
SplineSet
458 471 m 1xd0
 458 471 423 500 401 517 c 0
 371 540 347 549 316 549 c 0
 288 549 270 541 256 533 c 0
 232 519 166 475 166 475 c 1
 266 313 l 1
 458 471 l 1xd0
556 455 m 9
 556 617 l 1
 554 641 548 702 548 702 c 1
 584 702 l 1
 610 636 l 9
 711 636 l 17
 711 575 l 1
 623 575 l 0xb0
 623 0 l 1
 554 0 l 1
 555 384 l 1
 503 431 l 16
 277 240 l 1
 232 247 l 1
 115 442 l 1
 115 442 71 411 54 400 c 1
 23 440 l 1
 75 486 136 539 216 585 c 0
 247 603 278 619 307 619 c 0
 343 619 374 609 397 595 c 0
 473 547 556 455 556 455 c 9
EndSplineSet
Validated: 1
EndChar

StartChar: BNGla
Encoding: 2482 2482 37
Width: 750
VWidth: 0
GlyphClass: 2
Flags: W
HStem: 0 21G<588 655> 384 67<158.219 335.585 445.319 572.813> 575 61<-14 588 655 759>
VStem: 73 65<257.333 364.122> 357 52<206 258.182> 588 67<0 369.076 435 574>
LayerCount: 2
Back
Fore
SplineSet
588 435 m 4
 588 574 l 5
 -14 575 l 5
 -14 636 l 5
 151 636 595 636 759 636 c 5
 759 575 l 5
 655 575 l 5
 655 0 l 29
 588 0 l 21
 588 296 l 4
 588 345 578 384 520 384 c 6
 506 384 l 6
 448 384 430 360 420 288 c 6
 409 206 l 5
 357 205 l 5
 354 287 l 6
 351 362 329 385 282 385 c 6
 212 385 l 6
 169 385 138 355 138 309 c 4
 138 302 139 295 140 287 c 6
 180 109 l 5
 134 95 l 5
 115 132 89 201 75 294 c 4
 73 304 73 314 73 323 c 4
 73 410 139 455 209 455 c 6
 283 456 l 6
 342 456 379 441 391 400 c 5
 413 443 449 451 510 451 c 6
 526 451 l 6
 526 451 527 451 527 451 c 4
 551 451 588 435 588 435 c 4
EndSplineSet
Validated: 1
EndChar

StartChar: BNGda
Encoding: 2470 2470 38
Width: 575
GlyphClass: 2
Flags: W
HStem: 575.328 61<-11 112.9 179.9 590>
VStem: 112.9 67<332 574.656>
LayerCount: 2
Back
Fore
SplineSet
458.900390625 452 m 5
 504.099609375 429 l 5
 459.599609375 66 l 5
 408.19921875 -35 l 5
 370.499023438 -35 l 5
 425.099609375 363 l 5
 147.900390625 244 l 5
 112.900390625 294.500976562 l 6
 112.900390625 574.65625 l 5
 -11 575.328125 l 5
 -11 636.328125 l 5
 154 636.328125 426 636.328125 590 636.328125 c 5
 590 575.328125 l 5
 179.900390625 575.328125 l 5
 179.900390625 332 l 6
 458.900390625 452 l 5
EndSplineSet
Validated: 524289
EndChar

StartChar: BNGsha
Encoding: 2486 2486 39
Width: 645
VWidth: 0
GlyphClass: 2
Flags: W
HStem: 0 21G<487 556> 264 66.751<37 184.45 283.794 403.674> 526 69<15.3355 190.982 284.308 476.52> 575 61<556 660>
VStem: 201 71<348.986 511.392> 487 69<0 509.715 572 575 636 661.773> 509 47<691.227 717>
LayerCount: 2
Back
Fore
SplineSet
487 572 m 5xec
 487 589 487 636 487 636 c 4xdc
 509 717 l 5
 556 717 l 5xda
 556 636 l 12
 660 636 l 21
 660 575 l 5
 556 575 l 4xdc
 556 0 l 5
 487 0 l 5
 487 489 l 5
 487 519 400 521 349 521 c 4
 296.078125 521 271.969726562 511.395507812 271.969726562 462.063476562 c 4
 271.969726562 461.059570312 271.98046875 460.038085938 272 459 c 6
 272 384 l 6
 273 355 293 338 312 335 c 4
 331.602539062 331.9375 351.580078125 330.750976562 369.864257812 330.750976562 c 4
 381.427734375 330.750976562 392.314453125 331.225585938 402 332 c 5
 411 277 l 5
 391 274 342 264 307 264 c 4
 263 264 239 301 239 301 c 5
 239 301 204 264 154 264 c 4
 119 264 50 268 30 269 c 5
 37 329 l 5
 40.3330078125 328.833007812 44.6943359375 328.75 49.7958984375 328.75 c 4
 75.3056640625 328.75 119.333007812 330.833007812 146 335 c 4
 165 338 201 354 201 384 c 6
 201 469 l 6
 201 513 169 526 143 526 c 4
 108 526 44 516 -1 511 c 5
 -10 567 l 5
 25 576 105 595 157 595 c 4
 197 595 223 588 247 558 c 5
 267 588 299 590 342 590 c 4
 378 590 458 587 487 572 c 5xec
EndSplineSet
Validated: 524289
EndChar

StartChar: BNGma
Encoding: 2478 2478 40
Width: 585
VWidth: 0
GlyphClass: 2
Flags: W
HStem: 0 21G<450 515.035> 297 73<180.009 253.347> 575 61<-14 81 156 450 516 594>
VStem: 81 71<184.502 264.85> 257 64<357.798 431.023> 450 65<0 230.669 287 575>
LayerCount: 2
Back
Fore
SplineSet
81 575 m 13
 -14 575 l 21
 -14 636 l 5
 151 636 594 636 594 636 c 21
 594 575 l 13
 516 575 l 21
 515 0 l 5
 450 0 l 13
 450 224 l 20
 420 233 273 279 222 294 c 4
 216 296 211 297 207 297 c 4
 196 297 189 290 176 269 c 4
 166 252 152 233 152 216 c 4
 152 208 154.138425178 201.157823558 161 195 c 4
 200 160 248 117 248 117 c 5
 219 78 l 5
 219 78 161.23715598 109.249010124 114 148 c 4
 93.7651157794 164.599682544 81 185 81 211 c 4
 81 234 91 262 116 302 c 4
 149 355 170 370 197 370 c 4
 210 370 251 357 251 357 c 5
 255 374 257 392 257 399 c 4
 257 400 257 400 257 401 c 4
 257 412 247 420 230 436 c 4
 190 474 81 575 81 575 c 13
450 287 m 12
 450 575 l 20
 156 575 l 5
 156 575 197 545 234 516 c 4
 307 459 321 442 321 408 c 4
 321 394 318 367 312 339 c 5
 312 339 450 287 450 287 c 12
EndSplineSet
Validated: 524289
EndChar

StartChar: BNGsa
Encoding: 2488 2488 41
Width: 700
VWidth: 0
GlyphClass: 2
Flags: W
HStem: 0 21G<550 615.035> 119 75<145.706 233.766> 323 80<378 442.525> 575 61<-9 172 198 550 616 711>
VStem: 550 65<0 274.666 341 575>
LayerCount: 2
Back
Fore
SplineSet
550 266 m 0
 550 267 500 287 411 317 c 0
 400 321 392 323 386 323 c 4
 373 323 366 312 351 276 c 4
 315 190 284 119 218 119 c 4
 186 119 84 167 68 175 c 5
 87 226 l 5
 194 195 l 6
 196 194 199 194 201 194 c 4
 235 194 265 263 292 325 c 4
 296 335 310 366 310 384 c 4
 310 410 301.150390625 434.766601562 276 453 c 4
 236 482 153 541 153 541 c 6
 172 575 l 4
 -9 575 l 1
 -9 636 l 1
 156 636 711 636 711 636 c 17
 711 575 l 9
 616 575 l 17
 615 0 l 1
 550 0 l 1
 550 266 l 0
550 341 m 0
 550 575 l 0
 198 575 l 5
 198 575 247.833007812 546.704101562 260 540 c 4
 309 513 336.740234375 503.719726562 360 471 c 4
 377.625976562 446.205078125 378 403 378 403 c 5
 390 403 403 396 423 389 c 0
 502 361 550 341 550 341 c 0
EndSplineSet
Validated: 524289
EndChar

StartChar: BNGja
Encoding: 2460 2460 42
Width: 950
GlyphClass: 2
Flags: W
HStem: 24.8799 75.2969<357.951 466.021> 291 66<417.081 603.173> 575 62<-15 355 418 958>
VStem: 355 63<345 493 551.756 575> 604.099 71.1387<226.334 287.791> 716 35<-16 7.91089> 790.237 68.2441<306.531 395.602>
LayerCount: 2
Back
Fore
SplineSet
787 343 m 4
 789.209960938 350.043945312 790.237304688 356.342773438 790.237304688 362.006835938 c 4
 790.237304688 397.352539062 750.232421875 407.93359375 708 420 c 4
 650 437 495 473 418 493 c 5
 417 492 417 369 417 345 c 5
 417 345 528 357 571 357 c 4
 631.735351562 357 675.237304688 314.080078125 675.237304688 265.31640625 c 4
 675.237304688 251.5546875 668.935546875 238.715820312 662 226 c 4
 640 186 568 118 509 65 c 4
 479.8203125 38.697265625 446.823242188 24.8798828125 415.9140625 24.8798828125 c 4
 371.612304688 24.8798828125 321.327148438 55.3173828125 253 126 c 4
 206 175 121 311 82 427 c 5
 129 448 l 5
 132 443 242 254 302 179 c 4
 340.392521852 131.009347685 375.477539062 100.176757812 412.411132812 100.176757812 c 4
 430.375 100.176757812 449.40234375 108.001953125 471 126 c 4
 516 163 576 212 595 242 c 4
 601.315429688 251.735351562 604.098632812 259.740234375 604.098632812 266.250976562 c 4
 604.098632812 284.484375 582.264648438 291 555 291 c 4
 526 291 424 291 354 291 c 12
 355 575 l 4
 -15 576 l 5
 -15 637 l 5
 150 637 794 636 958 636 c 5
 958 575 l 4
 418 575 l 4
 418 555 l 5
 497 542 629 518 715 491 c 4
 790.010742188 467.1328125 858.481445312 447.625976562 858.481445312 373.022460938 c 4
 858.481445312 360.103515625 856.428710938 345.532226562 852 329 c 6
 751 -16 l 5
 716 -16 l 5
 709 73 l 5
 709 73 758 252 787 343 c 4
EndSplineSet
Validated: 1
EndChar

StartChar: BNGo
Encoding: 2451 2451 43
Width: 725
VWidth: 0
GlyphClass: 2
Flags: W
HStem: 25 73<335.238 470.405> 346 63<368 510.427> 563 72<253.094 514.101>
VStem: 521 69<414.879 554.233> 572 71<185.206 305.439>
LayerCount: 2
Back
Fore
SplineSet
434 563 m 4xf0
 383 563 253 564 253 564 c 5
 245 616 l 5
 245 616 360 635 432 635 c 4
 559 635 590 606 590 546 c 4xf0
 590 530 589.6875 503.8125 588 483 c 4
 585 446 585 398 565 384 c 5
 600 372 643 285 643 242 c 0
 643 238 643 240 643 237 c 0
 643 187 584 100 490 47 c 0
 462 31 426 25 402 25 c 0
 345 25 286 50 212 150 c 0
 185 186 96 334 70 400 c 1
 109 424 l 1
 271 190 l 2
 305 141 340 98 403 98 c 0
 446 98 501 137 517 150 c 0
 571 193 572 234 572 246 c 0xe8
 572 273 539 346 497 346 c 1
 368 346 l 5
 368 409 l 5
 368 409 458 409 473 409 c 4
 512 409 515 428 519 474 c 4
 520.706054688 493.623046875 521 503 521 516 c 4
 521 557 488 563 434 563 c 4xf0
EndSplineSet
Validated: 1
EndChar

StartChar: BNGau
Encoding: 2452 2452 44
Width: 850
VWidth: 0
GlyphClass: 2
Flags: W
HStem: 25 73<359.16 495.405> 346 63<368 512.139 626 657.493> 563 72<253.094 514.101>
VStem: 521 69<414.432 554.236> 597 71<185.206 305.95> 690 64<438.628 711.696>
LayerCount: 2
Back
Fore
SplineSet
570 406 m 1
 639 406 690 439 690 486 c 0
 690 534 690 736 690 736 c 2
 740 740 l 1
 740 740 754 542 754 482 c 0
 754 399 679 346 626 346 c 1
 626 346 668 284 668 243 c 0
 668 239 668 240 668 237 c 0
 668 187 609 100 515 47 c 0
 487 31 451 25 427 25 c 0
 370 25 313 50 239 150 c 0
 212 186 123 334 97 400 c 1
 134 424 l 1
 296 190 l 2
 330 141 365 98 428 98 c 0
 471 98 526 137 542 150 c 0
 596 193 597 234 597 246 c 0
 597 273 564 346 521 346 c 9
 368 346 l 17
 368 409 l 1
 368 409 458 409 473 409 c 0
 512 409 515 428 519 474 c 0
 521 494 521 503 521 516 c 0
 521 557 488 563 434 563 c 0
 383 563 253 564 253 564 c 1
 245 616 l 1
 245 616 360 635 432 635 c 0
 559 635 590 606 590 546 c 0
 590 530 590 504 588 483 c 0
 585 446 590 421 570 406 c 1
EndSplineSet
Validated: 1
EndChar

StartChar: BNGii
Encoding: 2440 2440 45
Width: 780
VWidth: 0
GlyphClass: 2
Flags: W
HStem: 398 42<675.25 693> 450.313 65.6865<155.719 333.931> 575 61<-14 564 634 791> 708 64<277.792 552.718>
VStem: 336 68<366.649 447.809> 520 42<-64 -16.7692> 564 70<636 696.221>
LayerCount: 2
Back
Fore
SplineSet
118 425 m 1
 118 425 104 478 104 478 c 1
 157 498 234 516 303 516 c 0
 355 516 404 485 404 431 c 0
 404 404 396 387 388 373 c 2
 328 272 l 0
 590 440 l 1
 693 440 l 1
 698 398 l 1
 620 374 l 1
 562 -64 l 1
 520 -69 l 1
 507 28 l 1
 550 328 l 1
 171 101 l 1
 150 147 l 1
 203 200 l 1
 306 354 l 2
 321 375 336 405 336 421 c 0
 336 443.201171875 317.139648438 450.313476562 292.877929688 450.313476562 c 0
 286.540039062 450.313476562 279.834960938 449.828125 273 449 c 0
 269 449 265 448 260 447 c 2
 118 425 l 1
634 636 m 0
 791 636 l 1
 791 575 l 0
 -14 575 l 1
 -14 636 l 1
 564 636 l 0
 564 690 548 708 500 708 c 0
 453 708 158 708 158 708 c 2
 154 758 l 1
 154 758 446 772 506 772 c 0
 600 772 634 714 634 636 c 0
EndSplineSet
Validated: 1
EndChar

StartChar: BNGVOCl
Encoding: 2444 2444 46
Width: 650
GlyphClass: 2
Flags: W
HStem: 2 71<359.297 493.885> 250 70<152.422 289.037>
VStem: 75 61<62.085 235.679> 287 68<456.582 542.829> 301 63<75.0336 241.229> 505 69<86.2611 276.18>
LayerCount: 2
Back
Fore
SplineSet
138 63 m 1xec
 87 55 l 1
 81 99 75 135 75 186 c 0
 75 276 109 320 202 320 c 0
 256 320 291 318 327 294 c 0
 356 275 364 222 364 177 c 0xec
 364 121 358 75 358 75 c 1
 358 75 422 73 448 73 c 0
 476 73 505 93 505 126 c 2
 505 240 l 2
 505 302 287 374 287 494 c 0
 287 548 314 580 335 599 c 0
 372 635 412 649 436 660 c 1
 463 618 l 1
 441 599 421 582 387 553 c 0
 365 534 355 518 355 492 c 0xf4
 355 438 574 334 574 258 c 2
 574 122 l 2
 574 28 504 2 453 2 c 0
 402 2 329 13 301 17 c 1
 301 86 l 1
 301 103 301 107 301 130 c 0
 301 174 299 219 284 237 c 0
 275 249 253 250 229 250 c 0
 220 250 210 250 201 250 c 0
 140 250 136 202 136 154 c 0
 136 108 138 63 138 63 c 1xec
EndSplineSet
Validated: 1
EndChar

StartChar: BNGttha
Encoding: 2464 2464 47
Width: 580
GlyphClass: 2
Flags: W
HStem: -0.148438 74.1484<239.079 318.497> 574.179 61.8213<-14 168 240 593>
VStem: 168 72<534.535 574> 455 73<186.759 263.177>
LayerCount: 2
Back
Fore
SplineSet
528 225 m 4
 528 143 311.399414062 -0.1484375 269.408203125 -0.1484375 c 4
 260.961914062 -0.1484375 258.936523438 0.869140625 253 3 c 4
 214 17 64 149 64 149 c 5
 64 149 65 189 65 217 c 5
 91 249 160.046169051 332.290152319 192.094726562 374.038085938 c 4
 212.725457115 400.912629958 226 421.7890625 226 444 c 4
 226 464.1328125 213.094726562 481.038085938 190.094726562 513.038085938 c 4
 170.250976562 540.646484375 168 562 168 574 c 5
 -14 575 l 5
 -14 636 l 5
 169.591796875 636 l 5
 169.591796875 636 171 660 196 687 c 4
 228.219726562 721.797851562 312 790 350 816 c 5
 382 779 l 5
 343 742 284.40234375 689.618164062 254 658 c 4
 247.306640625 651.0390625 237.81640625 636 237.81640625 636 c 5
 593 636 l 5
 593 575 l 5
 240 574.178710938 l 4
 240 507 528 317 528 225 c 4
455 222 m 4
 455 264.802734375 285.094726562 414.038085938 285.094726562 414.038085938 c 5
 285.094726562 387.907226562 270.845506637 369.026704197 249.094726562 340.038085938 c 4
 209.540038786 287.321091861 152 212 131 185 c 5
 171 144 206.888671875 119.3125 257 81 c 4
 266.0703125 74.0654296875 270.733398438 74 276 74 c 4
 303.641601562 74 455 185 455 222 c 4
EndSplineSet
Validated: 1
EndChar

StartChar: A
Encoding: 65 65 48
Width: 670
Flags: W
HStem: 0 21G<45 142.471 550.824 645> 204 74<229 468> 712 20G<306.65 395.022>
LayerCount: 2
Back
Fore
SplineSet
45 0 m 5
 314 732 l 5
 388 732 l 5
 645 0 l 5
 557 0 l 5
 494 204 l 5
 202 204 l 5
 136 0 l 5
 45 0 l 5
229 278 m 5
 468 278 l 5
 350 619 l 5
 229 278 l 5
EndSplineSet
Validated: 1
EndChar

StartChar: B
Encoding: 66 66 49
Width: 596
Flags: W
HStem: 0 74<155 437.089> 346 74<155 431.662> 658 74<155 438.829>
VStem: 80 75<74 346 420 658> 482 74<118.643 293.498 467.176 614.376>
LayerCount: 2
Back
Fore
SplineSet
80 0 m 5
 80 732 l 5
 362 732 l 6
 508 732 552 624 552 542 c 4
 552 468 531 402 460 380 c 5
 504 370 556 318 556 204 c 4
 556 102 516 0 362 0 c 6
 80 0 l 5
155 74 m 5
 362 74 l 6
 410 74 482 87 482 206 c 4
 482 280 446 346 362 346 c 6
 155 346 l 5
 155 74 l 5
155 420 m 5
 362 420 l 6
 437 420 478 460 478 542 c 4
 478 639 414 658 362 658 c 6
 155 658 l 5
 155 420 l 5
EndSplineSet
Validated: 1
EndChar

StartChar: C
Encoding: 67 67 50
Width: 578
Flags: W
HStem: -6 74<220.9 539.594> 666 74<203.384 525.638>
VStem: 55 74<193.881 566.781>
LayerCount: 2
Back
Fore
SplineSet
55 368 m 4
 55 602 100 740 299 740 c 4
 351 740 473 728 543 715 c 5
 543 656 l 6
 542 656 391 666 299 666 c 4
 174 666 129 609 129 366 c 4
 129 202 166 68 299 68 c 0
 404 68 543 75 543 75 c 1
 543 16 l 1
 473 3 351 -6 299 -6 c 0
 114 -6 55 153 55 368 c 4
EndSplineSet
Validated: 1
EndChar

StartChar: D
Encoding: 68 68 51
Width: 657
Flags: W
HStem: 0 77<154 432.267> 658 74<154 436.081>
VStem: 80 74<77 658> 538 74<215.053 531.866>
LayerCount: 2
Back
Fore
SplineSet
80 0 m 5
 80 732 l 5
 352 732 l 6
 577 732 612 513 612 363 c 4
 612 197 545 0 352 0 c 6
 80 0 l 5
154 77 m 5
 352 77 l 6
 484 77 538 210 538 364 c 4
 538 578 468 658 352 658 c 6
 154 658 l 5
 154 77 l 5
EndSplineSet
Validated: 1
EndChar

StartChar: E
Encoding: 69 69 52
Width: 567
Flags: W
HStem: -3.51911 74.5191<160.578 338.266> 14 57<396 522> 323 79<154 383.6> 333 59<252.4 482> 658 74.1761<160.901 342.745> 658 58<383.75 522>
VStem: 80 74<76.6798 323 402 652.375>
LayerCount: 2
Back
Fore
SplineSet
80 123 m 2x82
 80 602 l 2
 80 696.180545884 134.490684939 732.176123104 198.205696272 732.176123104 c 4x8a
 200.789632901 732.176123104 203.388740553 732.116922065 206 732 c 2
 522 716 l 1
 522 658 l 1x06
 206 658 l 2
 154 658 154 629 154 602 c 2
 154 402 l 1x2a
 482 392 l 1
 482 333 l 1x12
 154 323 l 1
 154 123 l 2
 154.963636364 71.9272727273 184.713719008 70.998677686 212.826097671 70.998677686 c 0
 213.886942149 70.998677686 214.945454545 71 216 71 c 2
 522 71 l 1
 522 14 l 1x62
 216 -3 l 2
 210.525242644 -3.33180347614 205.022961901 -3.51910917213 199.535394915 -3.51910917213 c 0
 138.868537602 -3.51910917213 80 19.373448201 80 123 c 2x82
EndSplineSet
Validated: 1
EndChar

StartChar: F
Encoding: 70 70 53
Width: 567
Flags: W
HStem: 0 21G<80 154> 323 79<154 383.6> 333 59<252.4 482> 658 74.1761<160.901 342.745> 658 58<383.75 522>
VStem: 80 74<0 323 402 652.375>
LayerCount: 2
Back
Fore
SplineSet
80 0 m 1xc4
 80 602 l 2
 80 696.180545884 134.490684939 732.176123104 198.205696272 732.176123104 c 0xd4
 200.789632901 732.176123104 203.388740553 732.116922065 206 732 c 2
 522 716 l 5
 522 658 l 1x8c
 206 658 l 2
 154 658 154 629 154 602 c 2
 154 402 l 1xd4
 482 392 l 1
 482 333 l 1xa4
 154 323 l 1
 154 0 l 1
 80 0 l 1xc4
EndSplineSet
Validated: 1
EndChar

StartChar: G
Encoding: 71 71 54
Width: 614
Flags: W
HStem: -5.01799 73.018<207.766 412.528> 314 75<328.605 485> 314 50<317 425.87> 666 74<205.82 510.876>
VStem: 55 74<173.936 567.504> 485 74<114 314> 503 56<0 21.4375>
LayerCount: 2
Back
Fore
SplineSet
55 370 m 0xda
 55 570 90 740 289 740 c 0
 341 740 473 726 543 713 c 1
 543 654 l 1
 537 654 388 666 289 666 c 0
 157 666 129 570 129 368 c 0
 129 146 170 70 293 68 c 0
 293.8 67.9894736842 294.604432133 67.984265928 295.413114448 67.984265928 c 0
 371.429252078 67.984265928 485 114 485 114 c 1
 485 314 l 1xdc
 317 314 l 1
 317 364 l 1xbc
 357 375 410 389 491 389 c 0
 512 389 535 388 559 386 c 1
 559 0 l 1
 503 0 l 1
 487 49 l 1
 449 28 383 -5 293 -5 c 0
 291.757800818 -5.01200192447 290.521939668 -5.01798992046 289.292385216 -5.01798992046 c 0
 85.6290566996 -5.01798992046 55 159.272203993 55 370 c 0xda
EndSplineSet
Validated: 1
EndChar

StartChar: H
Encoding: 72 72 55
Width: 638
Flags: W
HStem: 0 21G<80 154 504 578> 317 74<154 504> 712 20G<80 154 504 578>
VStem: 80 74<0 317 391 732> 504 74<0 317 391 732>
LayerCount: 2
Back
Fore
SplineSet
80 0 m 5
 80 732 l 5
 154 732 l 5
 154 391 l 5
 504 391 l 5
 504 732 l 5
 578 732 l 5
 578 0 l 5
 504 0 l 5
 504 317 l 5
 154 317 l 5
 154 0 l 5
 80 0 l 5
EndSplineSet
Validated: 1
EndChar

StartChar: I
Encoding: 73 73 56
Width: 214
Flags: W
HStem: 0 21G<80 154> 712 20G<80 154>
VStem: 80 74<0 732>
LayerCount: 2
Back
Fore
SplineSet
80 0 m 5
 80 732 l 5
 154 732 l 5
 154 0 l 5
 80 0 l 5
EndSplineSet
Validated: 1
EndChar

StartChar: J
Encoding: 74 74 57
Width: 359
Flags: W
HStem: -6.04957 64.9118<44.4683 197.867> 712 20G<225 299>
VStem: 225 74<88.3998 732>
LayerCount: 2
Back
Fore
SplineSet
35 21 m 1
 39 75 l 1
 68.0529903498 67.9330564014 102.809198593 58.8622794888 134.372626352 58.8622794888 c 0
 183.203458393 58.8622794888 224.392607978 80.5725089004 225 165 c 2
 225 732 l 1
 299 732 l 1
 299 165 l 2
 299 118 297 50 247 18 c 0
 221.66685093 1.74854587993 183.996394685 -6.04956813839 145.891905114 -6.04956813839 c 0
 104.277211659 -6.04956813839 62.1448348752 3.25145412007 35 21 c 1
EndSplineSet
Validated: 1
EndChar

StartChar: K
Encoding: 75 75 58
Width: 591
Flags: W
HStem: 0 21G<80 155 452.061 556> 330 74<155 236> 712 20G<80 154 451.976 556>
VStem: 80 75<0 330 404 732>
LayerCount: 2
Back
Fore
SplineSet
80 0 m 5
 80 732 l 5
 154 732 l 5
 154 404 l 5
 236 404 l 5
 466 732 l 5
 556 732 l 5
 304 367 l 5
 556 0 l 5
 466 0 l 5
 236 330 l 5
 155 330 l 5
 155 0 l 5
 80 0 l 5
EndSplineSet
Validated: 1
EndChar

StartChar: L
Encoding: 76 76 59
Width: 557
Flags: W
HStem: 0 74<161.01 522> 712 20G<80 154>
VStem: 80 74<80.0236 732>
LayerCount: 2
Back
Fore
SplineSet
80 126 m 2
 80 732 l 1
 154 732 l 1
 154 126 l 2
 154 74.9272727273 184.643636364 73.998677686 212.822274981 73.998677686 c 0
 213.885619835 73.998677686 214.945454545 74 216 74 c 2
 522 74 l 1
 522 0 l 1
 216 0 l 2
 150 0 80 13 80 126 c 2
EndSplineSet
Validated: 1
EndChar

StartChar: M
Encoding: 77 77 60
Width: 801
Flags: W
HStem: 0 21G<55 130.338 356.512 445.288 670.495 746> 712 20G<101.689 211.404 582.793 691.53>
LayerCount: 2
Back
Fore
SplineSet
55 0 m 5
 103 732 l 5
 205 732 l 5
 400 123 l 5
 589 732 l 5
 690 732 l 5
 746 0 l 5
 672 0 l 5
 627 598 l 5
 439 0 l 5
 363 0 l 5
 169 598 l 5
 129 0 l 5
 55 0 l 5
EndSplineSet
Validated: 1
EndChar

StartChar: N
Encoding: 78 78 61
Width: 680
Flags: W
HStem: 0 21G<80 155 532.835 620> 712 20G<80 169.131 546 620>
VStem: 80 75<0 594> 546 74<138 732>
LayerCount: 2
Back
Fore
SplineSet
80 0 m 1
 80 732 l 1
 156 732 l 1
 546 138 l 1
 546 732 l 1
 620 732 l 1
 620 0 l 1
 546 0 l 1
 155 594 l 1
 155 0 l 1
 80 0 l 1
EndSplineSet
Validated: 1
EndChar

StartChar: O
Encoding: 79 79 62
Width: 676
Flags: W
HStem: -4 74<219.697 475.299> 663 74<215.42 480.653>
VStem: 65 74<165.414 559.094> 557 74<169.3 563.994>
LayerCount: 2
Back
Fore
SplineSet
65 361 m 4
 65 704 181 737 349 737 c 4
 522 737 631 704 631 361 c 4
 631 38 529 -4 349 -4 c 4
 169 -4 65 28 65 361 c 4
139 361 m 4
 139 104 191 70 349 70 c 4
 505 70 557 112 557 361 c 4
 557 660 485 663 349 663 c 4
 216 663 139 660 139 361 c 4
EndSplineSet
Validated: 1
EndChar

StartChar: P
Encoding: 80 80 63
Width: 581
Flags: W
HStem: 0 21G<60 134> 298 74<134.363 426.956> 318 54<134 354.472> 657 75<134 425.273>
VStem: 60 74<0 318 372 657> 461 75<409.245 618.009>
LayerCount: 2
Back
Fore
SplineSet
60 0 m 5xbc
 60 732 l 5
 361 732 l 6
 440 732 536 699 536 520 c 4
 536 311 435 298 361 298 c 4xdc
 321 298 139 315 134 318 c 5
 134 0 l 5
 60 0 l 5xbc
134 372 m 5xbc
 361 372 l 6xdc
 413 372 461 387 461 520 c 4
 459 651 396 657 361 657 c 6
 134 657 l 5
 134 372 l 5xbc
EndSplineSet
Validated: 1
EndChar

StartChar: Q
Encoding: 81 81 64
Width: 676
Flags: W
HStem: -142.846 75.0458<390.139 536.007> -4 74<218.166 473.746> 663 74<216.209 479.207>
VStem: 65 74<165.414 563.994> 557 74<174.009 563.994>
LayerCount: 2
Back
Fore
SplineSet
65 361 m 0
 65 704 175 737 347 737 c 0
 520 737 631 704 631 361 c 0
 631 38 527 -4 347 -4 c 0
 167 -4 65 28 65 361 c 0
139 361 m 0
 139 104 189 70 347 70 c 0
 503 70 557 112 557 361 c 0
 557 660 483 663 347 663 c 0
 214 663 139 660 139 361 c 0
317 -33 m 1
 369 -33 l 1
 404.179551058 -57.966133009 434.851711019 -67.8003101921 465.400848415 -67.8003101921 c 0
 488.691127998 -67.8003101921 511.909902603 -62.0843456093 537 -53 c 1
 537 -133 l 1
 519.728852636 -139.476680262 499.005245418 -142.846146656 477.25846491 -142.846146656 c 0
 408.347215379 -142.846146656 329.161967252 -109.012295327 317 -33 c 1
EndSplineSet
Validated: 1
EndChar

StartChar: R
Encoding: 82 82 65
Width: 593
Flags: W
HStem: 0 21G<60 134 477.699 568> 313 66<134 234> 657 75<134 430.774>
VStem: 60 74<0 313 379 657> 466 75<404.847 621.147>
LayerCount: 2
Back
Fore
SplineSet
60 0 m 5
 60 732 l 5
 372 732 l 6
 467 732 541 678 541 512 c 4
 541 322 442 306 414 302 c 5
 568 0 l 5
 488 0 l 5
 334 299 l 5
 134 313 l 5
 134 0 l 5
 60 0 l 5
134 379 m 5
 372 379 l 6
 418 379 466 379 466 512 c 4
 466 643 416 657 372 657 c 6
 134 657 l 5
 134 379 l 5
EndSplineSet
Validated: 1
EndChar

StartChar: S
Encoding: 83 83 66
Width: 584
Flags: W
HStem: -8 74<108.551 432.534> 322 74<162.037 442.271> 664.518 73.4818<167.448 263>
VStem: 65 74<417.897 635.158> 465 74<97.8527 300.228>
LayerCount: 2
Back
Fore
SplineSet
65 494 m 2
 65 560 l 2
 65 705 151 738 263 738 c 0
 316 738 475 719 513 714 c 1
 513 654 l 1
 449 658 263 664 263 664 c 2
 255.67821785 664.313790664 248.531483843 664.518176238 241.60328302 664.518176238 c 0
 182.294323595 664.518176238 139 649.540311214 139 560 c 2
 139 494 l 2
 139 403 181 396 241 396 c 2
 383 396 l 2
 516 396 539 306 539 224 c 2
 539 156 l 2
 539 14 436 -8 337 -8 c 0
 288 -8 133 9 87 17 c 1
 87 77 l 1
 127 73 244 66 337 66 c 0
 378 66 465 68 465 156 c 2
 465 224 l 2
 465 281 448 322 383 322 c 2
 243 322 l 2
 83 322 65 410 65 494 c 2
EndSplineSet
Validated: 1
EndChar

StartChar: T
Encoding: 84 84 67
Width: 578
Flags: W
HStem: 0 21G<259 333> 658 74<45 259 333 553>
VStem: 259 74<0 658>
LayerCount: 2
Back
Fore
SplineSet
45 658 m 5
 45 732 l 5
 553 732 l 5
 553 658 l 5
 333 658 l 5
 333 0 l 5
 259 0 l 5
 259 658 l 5
 45 658 l 5
EndSplineSet
Validated: 1
EndChar

StartChar: U
Encoding: 85 85 68
Width: 677
Flags: W
HStem: -5.01681 74.0049<221.825 466.311> 712 20G<80 154 542 617>
VStem: 80 74<152.981 732> 542 75<163.07 732>
LayerCount: 2
Back
Fore
SplineSet
80 320 m 2
 80 732 l 1
 154 732 l 1
 154 320 l 2
 154 74.4646840149 227.021655312 68.9880598665 335.566717196 68.9880598665 c 0
 340.634969113 68.9880598665 345.780669145 69 351 69 c 0
 450 69 542 71 542 320 c 2
 542 732 l 1
 617 732 l 1
 617 320 l 2
 617 -3 472 -5 351 -5 c 0
 344.76504298 -5 338.532187749 -5.01681431187 332.314346157 -5.01681431187 c 0
 202.905518017 -5.01681431187 80 2.2664756447 80 320 c 2
EndSplineSet
Validated: 1
EndChar

StartChar: V
Encoding: 86 86 69
Width: 670
Flags: W
HStem: 0 21G<294.978 383.35> 712 20G<45 132.971 556.704 645>
LayerCount: 2
Back
Fore
SplineSet
45 732 m 5
 126 732 l 5
 340 118 l 5
 564 732 l 5
 645 732 l 5
 376 0 l 5
 302 0 l 5
 45 732 l 5
EndSplineSet
Validated: 1
EndChar

StartChar: W
Encoding: 87 87 70
Width: 962
Flags: W
HStem: 0 21G<294.978 382.471 626.674 714.257> 712 20G<45 133.065 513.997 604 849.859 937>
LayerCount: 2
Back
Fore
SplineSet
45 732 m 5
 126 732 l 5
 339 129 l 5
 520 732 l 5
 604 732 l 5
 536 498 l 5
 669 123 l 5
 856 732 l 5
 937 732 l 5
 708 0 l 5
 634 0 l 5
 497 374 l 5
 376 0 l 5
 302 0 l 5
 45 732 l 5
EndSplineSet
Validated: 1
EndChar

StartChar: X
Encoding: 88 88 71
Width: 596
Flags: W
HStem: 0 21G<48 140.494 473.377 566> 712 20G<45 137.726 478.013 571>
LayerCount: 2
Back
Fore
SplineSet
45 732 m 5
 126 732 l 5
 306 425 l 5
 490 732 l 5
 571 732 l 5
 355 371 l 5
 566 0 l 5
 485 0 l 5
 306 308 l 5
 129 0 l 5
 48 0 l 5
 257 371 l 5
 45 732 l 5
EndSplineSet
Validated: 1
EndChar

StartChar: Y
Encoding: 89 89 72
Width: 630
Flags: W
HStem: 0 21G<278 352> 712 20G<45 135.844 513.115 605>
VStem: 278 74<0 260>
LayerCount: 2
Back
Fore
SplineSet
45 732 m 5
 126 732 l 5
 315 348 l 5
 524 732 l 5
 605 732 l 5
 352 260 l 5
 352 0 l 5
 278 0 l 5
 278 260 l 5
 45 732 l 5
EndSplineSet
Validated: 1
EndChar

StartChar: Z
Encoding: 90 90 73
Width: 563
Flags: W
HStem: 0 74<132 528> 658 74<35 431>
LayerCount: 2
Back
Fore
SplineSet
35 0 m 5
 35 74 l 5
 431 658 l 5
 35 658 l 5
 35 732 l 5
 528 732 l 5
 528 658 l 5
 132 74 l 5
 528 74 l 5
 528 0 l 5
 35 0 l 5
EndSplineSet
Validated: 1
EndChar

StartChar: a
Encoding: 97 97 74
Width: 519
Flags: W
HStem: -6 74<124.061 278.286> 262 57.5556<297.875 395> 469 72.0163<92.8965 373.315>
VStem: 40 74<78.9822 232.113> 395 74<119 262 319.623 449.467> 414 55<0 23.5789>
LayerCount: 2
Back
Fore
SplineSet
40 126 m 2xf8
 40 187 l 2
 40 267 90 320 173 320 c 2
 173 320 271.666666667 319.555555556 337.444444444 319.555555556 c 0
 370.333333333 319.555555556 395 319.666666667 395 320 c 2
 395 320 395.444444444 349.333333333 395.444444444 369.185185185 c 0
 395.444444444 379.111111111 395.333333333 386.666666667 395 387 c 0
 395 448 363 469 313 469 c 0
 241 469 154 464 57 457 c 1
 57 511 l 1
 128 531 217 540 316 541 c 0
 316.900157753 541.010845274 317.798786447 541.01628003 318.695813371 541.01628003 c 0
 400.510104981 541.01628003 469 495.807019845 469 387 c 2xf8
 469 0 l 1
 414 0 l 1xf4
 395 64 l 2
 393 64 264 -6 173 -6 c 0
 100 -6 40 41 40 126 c 2xf8
114 131 m 2
 114 83 139 68 173 68 c 0
 253 68 395 119 395 119 c 1
 395 262 l 1
 173 246 l 2
 130 242 114 213 114 181 c 2
 114 131 l 2
EndSplineSet
Validated: 1
EndChar

StartChar: b
Encoding: 98 98 75
Width: 554
Flags: W
HStem: -6 74<225.261 383.478> 465 74<187.279 387.269>
VStem: 60 73<105.707 443.8 499 785> 430 74<128.042 415.865>
LayerCount: 2
Back
Fore
SplineSet
60 0 m 5
 60 785 l 5
 132 785 l 5
 132 499 l 5
 196 525 284 539 329 539 c 4
 480 539 504 399 504 263 c 4
 504 141 474 -6 329 -6 c 4
 261 -6 159 40 133 59 c 5
 113 0 l 5
 60 0 l 5
133 114 m 5
 187 92 250 68 329 68 c 4
 394 68 430 133 430 263 c 4
 430 426 393 465 329 465 c 4
 252 465 202 457 133 439 c 5
 133 114 l 5
EndSplineSet
Validated: 1
EndChar

StartChar: c
Encoding: 99 99 76
Width: 500
Flags: W
HStem: -5 74<162.645 431.709> 462 74<158.815 440.878>
VStem: 50 74<113 420.51>
LayerCount: 2
Back
Fore
SplineSet
50 266 m 4
 50 498 123 536 225 536 c 4
 277 536 383 523 453 510 c 5
 453 456 l 5
 453 456 314 462 225 462 c 4
 165 462 124 451 124 262 c 4
 124 109 153 69 225 69 c 4
 317 69 460 80 460 80 c 5
 460 24 l 5
 379 1 308 -4 225 -5 c 4
 126 -5 50 33 50 266 c 4
EndSplineSet
Validated: 1
EndChar

StartChar: d
Encoding: 100 100 77
Width: 554
Flags: W
HStem: -6 74<170.522 328.739> 465 74<166.731 366.308>
VStem: 50 74<128.042 415.865> 421 73<105.707 443.8 499 785>
LayerCount: 2
Back
Fore
SplineSet
50 263 m 4
 50 399 74 539 225 539 c 4
 270 539 357 525 421 499 c 5
 421 785 l 5
 494 785 l 5
 494 0 l 5
 441 0 l 5
 421 59 l 5
 395 40 293 -6 225 -6 c 4
 80 -6 50 141 50 263 c 4
124 263 m 4
 124 133 160 68 225 68 c 4
 304 68 367 92 421 114 c 5
 421 439 l 5
 352 457 302 465 225 465 c 4
 161 465 124 426 124 263 c 4
EndSplineSet
Validated: 1
EndChar

StartChar: f
Encoding: 102 102 78
Width: 400
Flags: W
HStem: 0 21G<117 191> 457 74<77.0588 117 191 339> 457 57<20 59.9412> 713 49<279.994 380> 714.02 71.9802<204.675 257 257.088 373.154>
VStem: 117 74<0 457 531 703.09>
LayerCount: 2
Back
Fore
SplineSet
20 457 m 1xa4
 20 514 l 1xa4
 117 531 l 1
 117 630 l 2
 117 684 120 786 240 786 c 0xcc
 289 786 331 777 380 762 c 1
 380 713 l 2x94
 379 713 257 714 257 714 c 2
 256.153921065 714.013219983 255.318677744 714.019798784 254.494131411 714.019798784 c 0
 192.947469603 714.019798784 191 677.365440799 191 630 c 2
 191 531 l 1
 339 531 l 1
 339 457 l 1
 191 457 l 1
 191 0 l 1
 117 0 l 1
 117 457 l 1xcc
 20 457 l 1xa4
EndSplineSet
Validated: 1
EndChar

StartChar: g
Encoding: 103 103 79
Width: 554
Flags: W
HStem: -270 74<140.344 413.093> 11 74<124.085 421.923> 149 74<155.811 372.113> 459 74<157.929 380.441> 477 56<502.5 534>
VStem: 48 74<-176.54 -31 87.9633 146.13 259.919 423.39> 410.139 73.8612<260.463 427.75> 431 74<-178.305 0.397503>
LayerCount: 2
Back
Fore
SplineSet
48 115 m 0xf5
 48 148 66 190 107 198 c 1
 63 226 49 291 49 344 c 0
 49 471 115 533 222 533 c 2xf5
 534 533 l 1
 534 477 l 1xed
 453 459 l 1
 464 438 484 417 484 344 c 0xf6
 484 284 461 149 319 149 c 2
 163 149 l 2
 147 149 122 145 122 119 c 0
 122 93 141 85 163 85 c 2
 376 85 l 2
 459 85 505 30 505 -53 c 2
 505 -116 l 2
 505 -176 486 -270 355 -270 c 2
 205 -270 l 2
 111 -270 45 -220 45 -116 c 2
 45 -31 l 1
 85 34 l 1
 57 54 48 88 48 115 c 0xf5
119 -116 m 2
 119 -189 170 -196 205 -196 c 2
 355 -196 l 2
 414 -196 431 -163 431 -116 c 2
 431 -58 l 2
 431 -11 421 11 363 11 c 2
 164 11 l 2
 133 11 119 19 119 19 c 1
 119 -116 l 2
123 344 m 0
 123 295 138 223 215 223 c 2
 313 223 l 2
 389.349151158 223 410.138807654 290.400042704 410.138807654 337.406286745 c 0xf6
 410.138807654 339.654022169 410.091271221 341.855126305 410 344 c 0
 407 414 391 459 312 459 c 2
 222 459 l 2
 140 459 123 399 123 344 c 0
EndSplineSet
Validated: 1
EndChar

StartChar: h
Encoding: 104 104 80
Width: 544
Flags: W
HStem: 0 21G<60 134 420 494> 466 74<227.78 392.774> 764 20G<60 134>
VStem: 60 74<0 418.956 469 784> 420 74<0 437.431>
LayerCount: 2
Back
Fore
SplineSet
60 0 m 5
 60 784 l 5
 134 784 l 5
 134 469 l 5
 195 504 249 540 330 540 c 4
 436 540 494 458 494 370 c 6
 494 0 l 5
 420 0 l 5
 420 370 l 6
 420 436 382 466 330 466 c 4
 250 466 211 446 134 409 c 5
 134 0 l 5
 60 0 l 5
EndSplineSet
Validated: 1
EndChar

StartChar: i
Encoding: 105 105 81
Width: 197
Flags: W
HStem: 0 21G<60 134> 511 20G<60 134> 594 102<50.1465 146.837>
VStem: 50 97<594.104 695.928> 60 74<0 531>
LayerCount: 2
Back
Fore
SplineSet
50 617 m 6xf0
 50 671 l 6
 50 686 58 696 74 696 c 6
 124 696 l 6
 139 696 147 685 147 671 c 6
 147 617 l 6
 147 602 138 594 124 594 c 6
 74 594 l 6
 60 594 50 603 50 617 c 6xf0
60 0 m 5xe8
 60 531 l 5
 134 531 l 5
 134 0 l 5
 60 0 l 5xe8
EndSplineSet
Validated: 1
EndChar

StartChar: j
Encoding: 106 106 82
Width: 217
Flags: W
HStem: -270 21G<71 130.009> 511 20G<71 145> 594 102<60.1465 156.837>
VStem: 60 97<594.104 695.928> 71 74.1958<-253.213 531> 71 48<-270 -151.818>
LayerCount: 2
Back
Fore
SplineSet
60 617 m 2xf0
 60 671 l 2
 60 686 68 696 84 696 c 2
 134 696 l 2
 149 696 157 685 157 671 c 2
 157 617 l 2
 157 602 148 594 134 594 c 2
 84 594 l 2
 70 594 60 603 60 617 c 2xf0
71 -270 m 1xe4
 71 531 l 1
 145 531 l 1
 145 -4 l 2
 145.11925824 -14.2562086707 145.195848897 -24.7115327319 145.195848897 -35.3083029594 c 0xe8
 145.195848897 -113.567197513 141.018543991 -199.540659229 119 -270 c 1
 71 -270 l 1xe4
EndSplineSet
Validated: 1
EndChar

StartChar: k
Encoding: 107 107 83
Width: 500
Flags: W
HStem: 0 21G<60 134 372.03 480> 268 74<134 174> 511 20G<355.519 480> 762 20G<60 134>
VStem: 60 74<0 268 342 782>
LayerCount: 2
Back
Fore
SplineSet
60 0 m 5
 60 782 l 5
 134 782 l 5
 134 342 l 5
 174 342 l 5
 377 531 l 5
 480 531 l 5
 244 305 l 5
 480 0 l 5
 388 0 l 5
 174 268 l 5
 134 268 l 5
 134 0 l 5
 60 0 l 5
EndSplineSet
Validated: 1
EndChar

StartChar: l
Encoding: 108 108 84
Width: 300
Flags: W
HStem: 0 74<154.414 191> 0 53<191.059 280> 763 20G<60 134>
VStem: 60 74<95.4826 783>
LayerCount: 2
Back
Fore
SplineSet
60 189 m 6x70
 60 783 l 5
 134 783 l 5
 134 189 l 6
 134 102 157 82 191 74 c 6xb0
 191 74 273 53 280 53 c 5
 280 0 l 5
 192 0 l 6
 115 0 60 48 60 189 c 6x70
EndSplineSet
Validated: 1
EndChar

StartChar: m
Encoding: 109 109 85
Width: 898
Flags: W
HStem: 0 21G<60 134 414 488 774 848> 463 74<222.499 382.263 566.626 742.395>
VStem: 60 74<0 416.931> 414 74<0 418.709> 774 74<0 431.686>
LayerCount: 2
Back
Fore
SplineSet
60 0 m 5
 60 531 l 5
 112 531 l 5
 134 467 l 5
 195 502 244 537 323 537 c 4
 388 537 447 508 470 459 c 5
 522 502 595 537 684 537 c 4
 776 537 848 468 848 366 c 6
 848 0 l 5
 774 0 l 5
 774 366 l 6
 774 425 736 463 684 463 c 4
 605 463 554 450 488 407 c 5
 488 368 l 5
 488 0 l 5
 414 0 l 5
 414 366 l 6
 414 425 375 463 323 463 c 4
 246 463 211 444 134 407 c 5
 134 0 l 5
 60 0 l 5
EndSplineSet
Validated: 1
EndChar

StartChar: n
Encoding: 110 110 86
Width: 544
Flags: W
HStem: 0 21G<60 134 420 494> 466 74<227.78 392.581> 511 20G<60 119.097>
VStem: 60 74<0 418.956> 420 74<0 437.431>
LayerCount: 2
Back
Fore
SplineSet
60 0 m 5xd8
 60 531 l 5
 112 531 l 5xb8
 134 469 l 5
 195 504 249 540 330 540 c 4
 436 540 494 458 494 370 c 6
 494 0 l 5
 420 0 l 5
 420 370 l 6
 420 436 381 466 330 466 c 4
 250 466 211 446 134 409 c 5
 134 0 l 5
 60 0 l 5xd8
EndSplineSet
Validated: 1
EndChar

StartChar: o
Encoding: 111 111 87
Width: 568
Flags: W
HStem: -5 74<175.515 395.003> 462 74<173.221 396.872>
VStem: 50 74<124.237 406.335> 444 74<126.206 409.804>
LayerCount: 2
Back
Fore
SplineSet
50 258 m 4
 50 475 110 536 284 536 c 4
 463 536 518 469 518 258 c 4
 518 61 463 -5 284 -5 c 4
 105 -5 50 68 50 258 c 4
124 258 m 4
 124 81 181 69 284 69 c 4
 392 69 444 83 444 258 c 4
 444 448 401 462 284 462 c 4
 172 462 124 449 124 258 c 4
EndSplineSet
Validated: 1
EndChar

StartChar: p
Encoding: 112 112 88
Width: 554
Flags: W
HStem: -270 21G<60 132> -8 74<186.875 387.269> 463 74<224.808 383.478>
VStem: 60 72<-270 32 87.1995 425.293> 60 53<509.263 531> 430 74<115.135 402.958>
LayerCount: 2
Back
Fore
SplineSet
60 -270 m 5xf4
 60 531 l 5
 113 531 l 5xec
 132 472 l 5
 158 491 261 537 329 537 c 4
 474 537 504 390 504 268 c 4
 504 132 480 -8 329 -8 c 4
 284 -8 196 6 132 32 c 5
 132 -270 l 5
 60 -270 l 5xf4
132 92 m 5xf4
 201 74 252 66 329 66 c 4
 393 66 430 105 430 268 c 4
 430 398 394 463 329 463 c 4
 250 463 186 439 132 417 c 5
 132 92 l 5xf4
EndSplineSet
Validated: 1
EndChar

StartChar: q
Encoding: 113 113 89
Width: 555
Flags: W
HStem: -270 21G<421 495> -10 74<170.87 370.126> 463 74<175.36 419.713>
VStem: 50 73.9828<116.185 404.035> 421 74<-270 29 84.3832 463>
LayerCount: 2
Back
Fore
SplineSet
50 268 m 0
 50 436 109 537 234 537 c 0
 340 537 448 518 495 514 c 1
 495 -270 l 1
 421 -270 l 1
 421 29 l 1
 357 3 279 -10 234 -10 c 0
 81 -10 50 110 50 268 c 0
124 268 m 0
 124 262.295081967 123.982800322 256.461166353 123.982800322 250.539701561 c 0
 123.982800322 166.158828272 127.475409836 64 234 64 c 0
 308 64 338 68 421 89 c 1
 421 463 l 1
 234 463 l 2
 127 463 124 331 124 268 c 0
EndSplineSet
Validated: 1
EndChar

StartChar: r
Encoding: 114 114 90
Width: 426
Flags: W
HStem: 0 21G<60 134> 462 75<230.081 405.422>
VStem: 60 74<0 413.98> 60 52<509.682 531>
LayerCount: 2
Back
Fore
SplineSet
60 0 m 5xe0
 60 531 l 5
 112 531 l 5xd0
 134 464 l 5
 195 499 250 537 332 537 c 4
 361 537 394 535 406 529 c 5
 406 456 l 5
 394 459 361 462 332 462 c 4
 252 462 211 441 134 404 c 5
 134 0 l 5
 60 0 l 5xe0
EndSplineSet
Validated: 1
EndChar

StartChar: s
Encoding: 115 115 91
Width: 506
Flags: W
HStem: -5 74<97.198 383.312> 14 55<62 282.5> 227 74<120.694 383.578> 463 73<119.823 414.988> 463 57<216.94 439>
VStem: 40 74<307.663 456.151> 392 74<78.2272 217.859>
LayerCount: 2
Back
Fore
SplineSet
40 358 m 2xa6
 40 404 l 2
 40 486 75 536 178 536 c 0xb6
 230 536 387 525 439 520 c 1
 439 463 l 1x2e
 178 463 l 2
 114 463 114 438 114 404 c 2
 114 358 l 2
 114 303 141 301 178 301 c 2
 336 301 l 2
 423 301 466 247 466 172 c 2
 466 123 l 2
 466 14 400 -5 336 -5 c 0xb6
 287 -5 100 10 62 14 c 1
 62 69 l 1x66
 336 69 l 1
 336 69 337.555555556 68.8333333333 340.148148148 68.8333333333 c 0
 353.111111111 68.8333333333 392 73 392 123 c 2
 392 172 l 2
 392 207 380 227 336 227 c 2
 178 227 l 2
 84 227 40 255 40 358 c 2xa6
EndSplineSet
Validated: 1
EndChar

StartChar: t
Encoding: 116 116 92
Width: 378
Flags: W
HStem: 1 74<213.414 250> 1 53<250.059 339> 458 74<193 348> 458 56<20 58.5>
VStem: 119 74<96.4826 458> 137 56<622.444 680>
LayerCount: 2
Back
Fore
SplineSet
20 458 m 5x58
 20 514 l 5x58
 119 532 l 5x28
 137 680 l 5
 193 680 l 5
 193 532 l 5x24
 348 532 l 5
 348 458 l 5
 193 458 l 5
 193 190 l 6
 193 103 216 83 250 75 c 6xa8
 250 75 332 54 339 54 c 5
 339 1 l 5
 251 1 l 6
 174 1 119 49 119 190 c 6
 119 458 l 5
 20 458 l 5x58
EndSplineSet
Validated: 1
EndChar

StartChar: u
Encoding: 117 117 93
Width: 544
Flags: W
HStem: -9 74<151.419 316.22> 0 21G<424.903 484> 511 20G<50 124 410 484>
VStem: 50 74<93.5694 531> 410 74<112.044 531>
LayerCount: 2
Back
Fore
SplineSet
50 161 m 6xb8
 50 531 l 5
 124 531 l 5
 124 161 l 6
 124 95 163 65 214 65 c 4xb8
 294 65 333 85 410 122 c 5
 410 531 l 5
 484 531 l 5
 484 0 l 5
 432 0 l 5x78
 410 62 l 5
 349 27 295 -9 214 -9 c 4
 108 -9 50 73 50 161 c 6xb8
EndSplineSet
Validated: 1
EndChar

StartChar: v
Encoding: 118 118 94
Width: 536
Flags: W
HStem: 0 21G<221.128 311.023> 511 20G<20 108.867 427.038 516>
LayerCount: 2
Back
Fore
SplineSet
20 531 m 5
 101 531 l 5
 267 109 l 5
 435 531 l 5
 516 531 l 5
 303 0 l 5
 229 0 l 5
 20 531 l 5
EndSplineSet
Validated: 1
EndChar

StartChar: w
Encoding: 119 119 95
Width: 801
Flags: W
HStem: 0 21G<211.505 305.692 494.923 585.646> 511 20G<20 108.441 389.46 476 692.322 781>
LayerCount: 2
Back
Fore
SplineSet
20 531 m 5
 101 531 l 5
 258 109 l 5
 396 531 l 5
 476 531 l 5
 422 361 l 5
 538 109 l 5
 700 531 l 5
 781 531 l 5
 578 0 l 5
 504 0 l 5
 386 260 l 5
 299 0 l 5
 219 0 l 5
 20 531 l 5
EndSplineSet
Validated: 1
EndChar

StartChar: x
Encoding: 120 120 96
Width: 524
Flags: W
HStem: 0 21G<24 130.455 393.545 492> 511 20G<24 130.118 393.49 500>
LayerCount: 2
Back
Fore
SplineSet
24 0 m 5
 216 266 l 5
 24 531 l 5
 116 531 l 5
 260 327 l 5
 408 531 l 5
 500 531 l 5
 306 263 l 5
 492 0 l 5
 408 0 l 5
 262 202 l 5
 116 0 l 5
 24 0 l 5
EndSplineSet
Validated: 1
EndChar

StartChar: y
Encoding: 121 121 97
Width: 554
Flags: W
HStem: -270 21G<177 237.706> 0 74.3028<240.509 271> 511 20G<21 108.217 442.304 532>
LayerCount: 2
Back
Fore
SplineSet
21 531 m 1
 102 531 l 1
 231 116 l 2
 242.032258065 81.064516129 264.709677419 74.3028095734 280.383035145 74.3028095734 c 0
 290.024169105 74.3028095734 297.015082 76.8613274863 297.015082 76.9946060236 c 0
 297.015082 76.9981702358 297.010082339 77 297 77 c 2
 449 531 l 1
 532 531 l 1
 298 -168 l 1
 223 -270 l 1
 177 -270 l 1
 271 0 l 1
 250 0 184 2 151 110 c 2
 21 531 l 1
EndSplineSet
Validated: 1
EndChar

StartChar: z
Encoding: 122 122 98
Width: 456
Flags: W
HStem: 1 74<142 426> 457 74<30 334>
LayerCount: 2
Back
Fore
SplineSet
30 457 m 1
 30 531 l 1
 426 531 l 1
 426 457 l 1
 142 75 l 1
 426 75 l 2
 426.333333333 74.6666666667 426.444444444 66.3333333333 426.444444444 55.3703703704 c 0
 426.444444444 33.4444444444 426 1 426 1 c 1
 45 1 l 1
 45 75 l 1
 334 457 l 1
 30 457 l 1
EndSplineSet
Validated: 1
EndChar

StartChar: VOWSIGaa
Encoding: 2494 2494 99
Width: 235
VWidth: 0
GlyphClass: 2
Flags: W
HStem: 0 21G<85 154> 575 61<-10 16 154 246>
VStem: 85 69<0 575>
LayerCount: 2
Back
Fore
SplineSet
-10 575 m 25
 -10 636 l 25
 16 636 l 17
 16 636 78 630 88 628 c 1
 86 652 84 702 84 702 c 1
 120 702 l 1
 143 636 l 9
 246 636 l 17
 246 575 l 1
 154 575 l 0
 154 0 l 1
 85 0 l 1
 86 575 l 9
 -10 575 l 25
EndSplineSet
Validated: 1
EndChar

StartChar: VOWSIGi
Encoding: 2495 2495 100
Width: 233
VWidth: 0
GlyphClass: 2
Flags: W
HStem: 0 21G<96 165> 575 61<-12 82.25 165 244> 726 34<660.181 697.471> 813.1 66.3999<144.906 341.066>
VStem: 62 73<640.731 800.62> 96 69<0 575>
LayerCount: 2
Back
Fore
SplineSet
135 706 m 2xf8
 135 677 135 655 162 636 c 0
 244 636 l 17
 244 575 l 1
 165 575 l 0
 165 0 l 1
 96 0 l 1xf4
 97 575 l 9
 -12 575 l 25
 -12 636 l 25
 14 636 l 17
 92 628 l 0
 65 646 62 680 62 704 c 2
 62 764 l 2
 62 851.02616028 110.844013951 879.500179613 188.3128601 879.500179613 c 0
 251.492270202 879.500179613 333.71049504 860.561672826 424 839 c 0
 502 820 665 778 707 760 c 1
 695 726 l 1
 282 803 l 2
 258.015172365 807.471747525 229.237788928 813.100318865 203.528158927 813.100318865 c 0
 165.994967545 813.100318865 135 801.104289826 135 756 c 2
 135 706 l 2xf8
EndSplineSet
Validated: 1
EndChar

StartChar: VOWSIGii
Encoding: 2496 2496 101
Width: 235
GlyphClass: 2
Flags: W
HStem: 0 21G<73 142> 575 61<-19 73 151.5 251> 680 60<-471.719 -195.861> 844 69<-294.449 10.6025>
VStem: -535 58<746.981 829.942> -193 63<635 673.36> 73 69<0 575 636 760.272>
LayerCount: 2
Back
Fore
SplineSet
143 628 m 0
 211 636 l 9
 251 636 l 25
 251 575 l 25
 141 575 l 17
 142 0 l 1
 73 0 l 1
 73 575 l 0
 -19 575 l 1
 -19 636 l 1
 73 636 l 0
 73 703 55 844 -51 844 c 0
 -143 844 -398 835 -426 833 c 0
 -474 830 -477 830 -477 783 c 0
 -477 740 -461 740 -303 740 c 0
 -143 740 -130 740 -130 635 c 9
 -193 635 l 4
 -193 680 -200 680 -319 680 c 0
 -511 680 -535 685 -535 783 c 0
 -535 882 -512 889 -422 894 c 2
 -422 894 -126 913 -74 913 c 0
 119 912 143 751 143 628 c 0
EndSplineSet
Validated: 1
EndChar

StartChar: VOWSIGe
Encoding: 2503 2503 102
Width: 270
VWidth: 0
GlyphClass: 2
Flags: W
HStem: 575 61<-14 144 214 283>
VStem: 60.0088 71.0781<142.141 356.348>
LayerCount: 2
Back
Fore
SplineSet
214 575 m 5
 214 575 131.086914062 327 131.086914062 217.426757812 c 0
 131.086914062 215.42658592 130.797851562 213.313476562 130.971679688 212.329101562 c 0
 131.4453125 205.37109375 132.060546875 197.255859375 133.6171875 188.432617188 c 0
 138.348632812 161.623046875 151.772460938 128.2734375 196.314453125 100.990234375 c 2
 343.80078125 13.2861328125 l 1
 325.78515625 -28.4794921875 l 1
 277.47265625 -13.650390625 196.778320312 17.8046875 158.08203125 41.439453125 c 0
 91.76953125 80.5498046875 70.9443359375 131.297851562 63.7080078125 172.302734375 c 0
 61.544921875 184.5625 60.595703125 195.952148438 60.0087890625 205.8984375 c 0
 59.603515625 213.950195312 59.314453125 221.017305261 59.314453125 227.100585938 c 0
 59.314453125 322 144 575 144 575 c 2
 -14 575 l 0
 -14 636 l 9
 283 636 l 17
 283 575 l 1
 214 575 l 5
EndSplineSet
Validated: 1
EndChar

StartChar: VOWSIGai
Encoding: 2504 2504 103
Width: 270
VWidth: 0
GlyphClass: 2
Flags: W
HStem: 575 61<-14 169 270 283> 709 64<-83 189.626>
VStem: 85.0088 71.0781<142.141 356.348> 202 68<636 696.414>
LayerCount: 2
Back
Fore
SplineSet
239 575 m 5
 239 575 156.086914062 327 156.086914062 217.426757812 c 0
 156.086914062 215.426757812 155.797851562 213.313476562 155.971679688 212.329101562 c 0
 156.4453125 205.37109375 157.060546875 197.255859375 158.6171875 188.432617188 c 0
 163.348632812 161.623046875 176.772460938 128.2734375 221.314453125 100.990234375 c 2
 368.80078125 13.2861328125 l 1
 350.78515625 -28.4794921875 l 1
 302.47265625 -13.650390625 221.778320312 17.8046875 183.08203125 41.439453125 c 0
 116.76953125 80.5498046875 95.9443359375 131.297851562 88.7080078125 172.302734375 c 0
 86.544921875 184.5625 85.595703125 195.952148438 85.0087890625 205.8984375 c 0
 84.603515625 213.950195312 84.314453125 221.017578125 84.314453125 227.100585938 c 0
 84.314453125 322 169 575 169 575 c 2
 -14 575 l 0
 -14 636 l 1
 202 636 l 0
 202 690 185 709 137 709 c 0
 90 709 -83 709 -83 709 c 2
 -87 759 l 1
 -87 759 83 773 143 773 c 0
 237 773 270 714 270 636 c 0
 283 636 l 1
 283 575 l 1
 239 575 l 5
EndSplineSet
Validated: 1
EndChar

StartChar: LNGTHau
Encoding: 2519 2519 106
Width: 233
VWidth: 0
GlyphClass: 2
Flags: W
HStem: 0 21G<85 154> 575 61.3281<-10 74 154 246> 708 64<-212.208 62.626>
VStem: 74 69<636 696.221> 85 69<0 575>
LayerCount: 2
Back
Fore
SplineSet
143 636 m 12xf0
 246 636 l 21
 246 575 l 5
 154 575 l 4
 154 0 l 5
 85 0 l 5xe8
 86 575 l 13
 -10 575 l 29
 -10 636.328125 l 29
 16 636 l 5
 74 630 l 4
 74 689 58 708 10 708 c 4
 -37 708 -332 708 -332 708 c 6
 -336 758 l 5
 -336 758 -44 772 16 772 c 4
 110 772 143 714 143 636 c 12xf0
EndSplineSet
Validated: 1
EndChar

StartChar: SIGnukta
Encoding: 2492 2492 107
Width: 0
VWidth: 0
GlyphClass: 2
Flags: W
HStem: -179.752 97.9033<-204.327 -109>
VStem: -204.327 95.3271<-179.752 -81.8486>
LayerCount: 2
Back
Fore
SplineSet
-204.327148438 -160 m 2
 -204.327148438 -103.318359375 l 2
 -204.327148438 -90.4365234375 -197.456054688 -81.8486328125 -183.715820312 -81.8486328125 c 2
 -130.469726562 -81.8486328125 l 2
 -115.010742188 -81.8486328125 -109 -89.578125 -109 -103.318359375 c 2
 -109 -160 l 2
 -109 -175.458007812 -118.447265625 -179.751953125 -130.469726562 -179.751953125 c 2
 -183.715820312 -179.751953125 l 2
 -195.73828125 -179.751953125 -204.327148438 -172.0234375 -204.327148438 -160 c 2
EndSplineSet
Validated: 1
EndChar

StartChar: VOWSIGu
Encoding: 2497 2497 108
Width: 0
VWidth: 2048
GlyphClass: 2
Flags: W
HStem: -286.098 67.918<-298.07 -206.995> -96.6025 74.3525<-303.362 -235.099>
VStem: -412.729 80.6592<-189.638 -130.92>
LayerCount: 2
Back
Fore
SplineSet
-78 4.6201171875 m 17
 -109.799804688 -109.60546875 l 1
 -109.799804688 -109.60546875 -91.9160471792 -119.387921757 -63 -140 c 4
 -22.9853515625 -168.5234375 23.2412109375 -210.474609375 44 -232 c 5
 22 -261 l 1
 -137 -161 l 0
 -137 -161 -190.66015625 -286.09765625 -223.330078125 -286.09765625 c 0
 -275.020507812 -286.09765625 -412.729492188 -213.482421875 -412.729492188 -186.697265625 c 0
 -412.729492188 -146.520507812 -322.095703125 -22.25 -295.669921875 -22.25 c 0
 -263.3203125 -22.25 -173.620117188 -77.16796875 -173.620117188 -77.16796875 c 1
 -149.790039062 4.6201171875 l 1
 -78 4.6201171875 l 17
-196.190429688 -137.432617188 m 1
 -196.190429688 -137.432617188 -266.629882812 -96.6025390625 -281.150390625 -96.6025390625 c 0
 -293.490234375 -96.6025390625 -332.0703125 -155.858398438 -332.0703125 -169.740234375 c 0
 -332.0703125 -183.1328125 -260 -218.1796875 -247.26953125 -218.1796875 c 0
 -234 -218.1796875 -196.190429688 -137.432617188 -196.190429688 -137.432617188 c 1
EndSplineSet
Validated: 1
EndChar

StartChar: VOWSIGuu
Encoding: 2498 2498 109
Width: 0
VWidth: 2048
GlyphClass: 2
Flags: W
HStem: -298.059 76.0293<-280.824 -189.915> -271 21G<23.2785 75.2857> -101 70<-354 -270.083>
VStem: -416 78<-208.5 -109.764>
LayerCount: 2
Back
Fore
SplineSet
-123 -118 m 1xb0
 -74 -118 l 1
 -74 -118 -17 -154 1 -168 c 0
 43 -198 70 -221 86 -236 c 1
 61 -271 l 1x70
 -88 -192 l 0
 -88 -192 -158.393554688 -298.05859375 -182.103515625 -298.05859375 c 0
 -182.415039062 -298.05859375 -196.713867188 -298.0390625 -197 -298 c 0
 -210 -297 -224 -293 -239 -289 c 0
 -318 -268 -416 -225 -416 -192 c 0
 -416 -152 -368 -31 -340 -31 c 0
 -319 -31 -280 -51 -280 -51 c 1
 -250 11 l 1
 -186 11 l 1
 -244 -117 l 1
 -244 -117 -293 -101 -305 -101 c 0
 -320 -101 -338 -149 -338 -163 c 0
 -338 -180 -277 -205 -233 -218 c 0
 -225 -220 -219 -221 -213 -222 c 0
 -212.892578125 -222.01953125 -212.776367188 -222.029296875 -212.65234375 -222.029296875 c 0
 -200.146484375 -222.029296875 -123 -118 -123 -118 c 1xb0
EndSplineSet
Validated: 1
EndChar

StartChar: VOWSIGr
Encoding: 2499 2499 110
Width: 0
VWidth: 2048
GlyphClass: 3
Flags: W
LayerCount: 2
Back
Fore
SplineSet
24 -325 m 5
 -114 -266 -269 -203 -350 -170 c 5
 -363 -99 l 1
 -123 22 l 1
 -90 -37 l 1
 -263 -127 l 5
 -263 -127 -196 -155 -126 -189 c 4
 -62 -220 -39 -230 48 -281 c 5
 24 -325 l 5
EndSplineSet
Validated: 1
EndChar

StartChar: BNGNUM1
Encoding: 2535 2535 113
Width: 563
Flags: W
HStem: -2.06487 84.3218<229.51 348.752>
VStem: 423 87<177.039 286.016>
LayerCount: 2
Back
Fore
SplineSet
284 555 m 0
 309 506 510 321 510 250 c 0
 510 179 454 105 417 54 c 0
 388.035952879 14.8985363867 347.65332652 -2.06486543924 303.839096082 -2.06486543924 c 0
 256.890671173 -2.06486543924 206.002131675 17.412249477 161 50 c 0
 106 90 73 121 44 145 c 1
 85 197 l 1
 118 173 146 155 198 122 c 0
 226.021266973 104.230416066 268.989663564 82.2569519271 303.920204495 82.2569519271 c 0
 320.099136221 82.2569519271 334.553702685 86.9709303649 345 99 c 0
 378 137 423 198 423 239 c 0
 423 301 241 448 213 526 c 0
 198 570 189 628 185 654 c 1
 240 666 l 1
 250 639 264 595 284 555 c 0
EndSplineSet
Validated: 1
EndChar

StartChar: BNGNUM2
Encoding: 2536 2536 114
Width: 596
VWidth: 0
Flags: W
VStem: 420.53 89.8055<349.88 442.183>
LayerCount: 2
Back
Fore
SplineSet
467 303 m 0
 421 260 253 207 253 207 c 0
 284 186 517 29 517 29 c 2
 487 -27 l 1
 487 -27 272 78 69 244 c 0
 109 307 l 1
 173 265 l 1
 173 265 352 310 399 350 c 0
 414.377283415 363.32697896 420.529674597 378.171978161 420.529674597 392.859087938 c 0
 420.529674597 421.152257715 397.698173268 448.859500412 374 464 c 0
 343 484 125 628 125 628 c 2
 153 675 l 1
 153 675 329 591 413 531 c 0
 445.226021904 507.881332112 510.335127307 451.879580726 510.335127307 387.750667249 c 0
 510.335127307 360.34082274 498.440602175 331.44625911 467 303 c 0
EndSplineSet
Validated: 1
EndChar

StartChar: BNGNUM3
Encoding: 2537 2537 115
Width: 836
VWidth: 0
Flags: W
HStem: -5 86<378.081 515.444> 523 78<355.024 635.413>
VStem: 688 76.5069<306.439 473.528>
LayerCount: 2
Back
Fore
SplineSet
558 601 m 0
 714.759408056 601 764.50686076 503.797473888 764.50686076 406.236801144 c 0
 764.50686076 400.485832971 764.333997299 394.733620302 764 389 c 0
 762 360 757 330 748 302 c 0
 723 225 648 74 535 17 c 0
 509 4 480 -5 449 -5 c 0
 385 -5 317 26 232 123 c 0
 196 164 72 350 44 407 c 1
 85 442 l 1
 289 190 l 2
 354 109 397 81 447 81 c 0
 468 81 488 87 507 97 c 0
 589 140 659 279 675 329 c 0
 683 357 688 382 688 403 c 0
 688 483 633 523 537 523 c 0
 479 523 287 503 287 503 c 1
 276 566 l 1
 276 566 462 601 558 601 c 0
EndSplineSet
Validated: 1
EndChar

StartChar: BNGNUM4
Encoding: 2538 2538 116
Width: 680
Flags: W
HStem: -1 77<158.02 497.308> 311 80<187.086 472.622> 564 72<186.004 472.155>
VStem: 76 76<83.9189 302.281> 105 76<397.315 556.77> 478 80<398.249 556.693> 506 80<84.5189 301.179>
LayerCount: 2
Back
Fore
SplineSet
426 391 m 2xec
 452 391 478 401 478 435 c 2
 478 518 l 2
 477 554 459 564 427 564 c 2
 233 564 l 2
 201 564 182 554 181 518 c 2
 181 434 l 2
 181 401 207 391 233 391 c 2
 426 391 l 2xec
435 635 m 0
 497 635 558 622 558 518 c 2
 558 456 l 18xec
 558 422 557 376 517 362 c 1
 559 349 585 326 586 279 c 2
 586 124 l 2
 586 123 586 121 586 120 c 0
 586 27 552 -1 451 -1 c 2
 211 -1 l 2
 128 -1 76 21 76 122 c 2
 76 274 l 2xf2
 76 321 104 350 146 363 c 1
 106 377 105 422 105 456 c 2
 105 520 l 2
 105 618 166 636 236 636 c 0
 293 636 376 635 435 635 c 0
152 123 m 2xf2
 152 80 186 76 220 76 c 2
 438 76 l 2
 493 76 506 96 506 124 c 0
 506 124 506 140 506 160 c 0
 506 200 506 260 506 260 c 2
 506 293 491 311 438 311 c 6
 220 311 l 2
 178 311 152 303 152 258 c 2
 152 123 l 2xf2
EndSplineSet
Validated: 1
EndChar

StartChar: BNGNUM6
Encoding: 2540 2540 117
Width: 750
VWidth: 0
Flags: W
HStem: -0 77<345.837 450.505> 370 69<405.767 618.541>
VStem: 340 65<432 614> 623 70<268.519 361.863>
LayerCount: 2
Back
Fore
SplineSet
340 614 m 25
 405 614 l 25
 405 432 l 1
 405 432 497 439 557 439 c 4
 669 439 693 391 693 327 c 4
 693 311 683 284 678 274 c 0
 657 235 607 134 496 41 c 0
 465 15 436 -0 404 -0 c 0
 361 -0 312 28 245 97 c 0
 198 146 113 282 74 398 c 1
 121 416 l 1
 124 411 224 225 294 150 c 0
 334 106 363 77 397 77 c 0
 415 77 434 85 457 104 c 0
 562 191 593 253 608 281 c 0
 614 292 623 317 623 329 c 0
 623 364 590 370 551 370 c 0
 504 370 340 357 340 357 c 2
 340 614 l 25
EndSplineSet
Validated: 1
EndChar

StartChar: BNGNUM9
Encoding: 2543 2543 118
Width: 688
Flags: W
HStem: 1 21G<347 347> 258.829 71.1658<176.56 270.315>
VStem: 61.9861 70.009<117.883 224.907> 539 79<217.591 295.319>
LayerCount: 2
Back
Fore
SplineSet
347 1 m 1
 347 1 326 89 303 164 c 0
 290 206 272 246 251 256 c 0
 247.0656336 257.9671832 242.657412947 258.828706473 237.864115004 258.828706473 c 0
 225.601001726 258.828706473 210.817424229 253.189738286 195 246 c 0
 187 242 178 238 170 234 c 0
 141.629319007 221.334517414 131.995045673 203.022446217 131.995045673 182.314548671 c 0
 131.995045673 162.147774831 141.132386069 139.708750648 151 118 c 0
 167 82 179 57 179 57 c 9
 124 35 l 17
 124 35 85 112 78 130 c 0
 67.6303186945 154.627993101 61.9860896029 177.260795266 61.9860896029 197.898406497 c 0
 61.9860896029 240.946798716 86.5444659677 275.31399655 144 301 c 0
 183.541238731 318.753209226 213.314612653 329.99450858 245.93182705 329.99450858 c 0
 253.734274675 329.99450858 261.699454397 329.35125161 270 328 c 0
 304 322 328 294 346 253 c 0
 358 228 391 115 391 115 c 1
 391 115 539 211 539 252 c 0
 539 300 308 532 225 617 c 1
 262 663 l 1
 459 495 618 333 618 250 c 0
 618 143 347 1 347 1 c 1
EndSplineSet
Validated: 1
EndChar

StartChar: BNGNUM8
Encoding: 2542 2542 119
Width: 655
VWidth: 0
Flags: W
HStem: 0 75<128.752 244.371> 355 71<184.039 424.931>
VStem: 46 67<90.6372 336 394 636> 432 75.4513<244.237 346.612>
LayerCount: 2
Back
Fore
SplineSet
113 336 m 0
 113 166 l 1
 113 106 129 75 178 75 c 0
 231 75 338 144 400 229 c 0
 424 262 432 288 432 307 c 0
 432 343 402 355 375 355 c 0
 369 355 355 355 350 355 c 0
 309 355 113 336 113 336 c 0
46 636 m 9
 113 636 l 17
 113 394 l 0
 113 394 147 401 184 407 c 0
 315 429 371 424 421 426 c 0
 450 427 588 464 626 474 c 1
 636 428 l 1
 636 428 584 397 493 367 c 1
 503.255172444 351.047509531 507.451250789 333.219585175 507.451250789 315.050475199 c 0
 507.451250789 285.383629999 496.264112362 254.807151935 482 230 c 0
 411 106 251 0 174 0 c 0
 109 0 46 37 46 159 c 2
 46 636 l 9
EndSplineSet
Validated: 1
EndChar

StartChar: BNGNUM7
Encoding: 2541 2541 120
Width: 548
VWidth: 0
Flags: W
HStem: 246 70<117.129 389.92> 561 71<258.668 373.836>
VStem: 33 71<328.646 429.863> 390 67<58.0011 257 316 545.391>
LayerCount: 2
Back
Fore
SplineSet
390 101 m 0
 390 133 390 257 390 257 c 1
 390 257 280 246 158 246 c 0
 79 246 33 293 33 369 c 0
 33 398 40.59591876 426.255588557 54 447 c 0
 138 577 258 632 329 632 c 0
 394 632 457 594.999023438 457 473 c 2
 457 473 457 152 457 117 c 0
 457 94.7294921875 485 45 503.9375 9.9873046875 c 1
 456 -21 l 1
 404.981445312 45.791015625 390 65 390 101 c 0
390 316 m 17
 390 466 l 1
 390 526 377 561 325 561 c 0
 283 561 190 508 139 448 c 0
 112.772441519 417.144048846 104 389 104 370 c 0
 104 334 135 316 162 316 c 0
 168 316 390 316 390 316 c 17
EndSplineSet
Validated: 1
EndChar

StartChar: BNGNUM0
Encoding: 2534 2534 121
Width: 600
Flags: W
HStem: 1 74<193.515 413.003> 468 74<191.221 414.872>
VStem: 68 74<130.237 412.335> 462 74<132.206 415.804>
LayerCount: 2
Back
Fore
SplineSet
68 264 m 4
 68 481 128 542 302 542 c 4
 481 542 536 475 536 264 c 4
 536 67 481 1 302 1 c 4
 123 1 68 74 68 264 c 4
142 264 m 4
 142 87 199 75 302 75 c 4
 410 75 462 89 462 264 c 4
 462 454 419 468 302 468 c 4
 190 468 142 455 142 264 c 4
EndSplineSet
Validated: 1
EndChar

StartChar: BNGNUM5
Encoding: 2539 2539 122
Width: 619
VWidth: 0
Flags: W
HStem: -0.157068 84.9448<144.855 256.752>
VStem: 57.1837 78.3915<88.2473 472.706> 373 70<261.524 398.793>
LayerCount: 2
Back
Fore
SplineSet
153 662 m 1
 153 647 154 604 155 586 c 1
 428 507 l 1
 445 536 459 561 476 588 c 1
 523 572 l 1
 523 572 443 358 443 298 c 0
 443 271.593495935 546.172450261 180.259501619 546.172450261 158.206082434 c 0
 546.172450261 156.875272655 545.796747967 155.796747967 545 155 c 0
 516.12062644 126.12062644 265.750255752 -0.157068332131 148.706458499 -0.157068332131 c 0
 127.953322644 -0.157068332131 111.391859541 3.81299373943 101 13 c 0
 68.1095890411 41.8630136986 57.1836648527 124.905094764 57.1836648527 222.508388451 c 0
 57.1836648527 415.723071871 100 666 100 666 c 1
 153 662 l 1
406 445 m 1
 151 517 l 1
 148.547851562 478.994140625 135.575195312 347.036132812 135.575195312 236.2734375 c 0
 135.575195312 166.34375 136.74573359 107.25426641 153 91 c 0
 157.315691513 86.6843084869 165.250927415 84.7877094547 175.799969142 84.7877094547 c 0
 243.469987848 84.7877094547 418.697307196 162.832172555 436 181 c 0
 436.641025641 181.576923077 436.940992768 182.379848784 436.940992768 183.384543738 c 0
 436.940992768 198.053090072 373 255.730769231 373 281 c 0
 373 323 395 412 406 445 c 1
EndSplineSet
Validated: 1
EndChar

StartChar: BNGSIGchandrabindu
Encoding: 2433 2433 123
Width: 0
VWidth: 0
GlyphClass: 2
Flags: W
HStem: 656.862 62.0538<-151.147 -63.265>
LayerCount: 2
Back
Fore
SplineSet
-270 763 m 1
 -232 806 l 1
 -174.513272813 757.812596328 -133.46440191 718.916154905 -103.41564622 718.916154905 c 0
 -97.9202774333 718.916154905 -92.792815547 720.217074844 -88 723 c 0
 -47 747 42 835 42 835 c 2
 74 804 l 1
 74 804 7 716 -41 682 c 0
 -65.6947566072 664.483951709 -87.008892452 656.86240321 -107.168005676 656.86240321 c 0
 -157.21342068 656.86240321 -200.140536599 703.833311609 -270 763 c 1
-111 771 m 2
 -142 795 l 2
 -150 801 -152 809 -146 817 c 2
 -122 849 l 2
 -116 857 -107 857 -99 851 c 2
 -68 828 l 2
 -59 821 -60 813 -65 806 c 2
 -89 774 l 2
 -95 767 -103 766 -111 771 c 2
EndSplineSet
Validated: 1
EndChar

StartChar: BNGSIGanusvara
Encoding: 2434 2434 124
Width: 445
GlyphClass: 2
Flags: W
HStem: 219 69.3058<93.0392 232.552> 359 61<158.898 289.959> 569 60<160.476 288.865>
VStem: 92 58<428.065 559.238> 298 59<426.934 561.407>
LayerCount: 2
Back
Fore
SplineSet
88 279 m 1
 88 279 160 287 176 288 c 0
 179.186773245 288.199173328 182.448478739 288.305783288 185.775166813 288.305783288 c 0
 232.555911955 288.305783288 292.186773245 267.223973494 337 186 c 0
 358 146 412 62 431 -17 c 1
 388 -33 l 1
 275 149 l 2
 236 212 195 219 167 219 c 0
 147 219 93 213 93 213 c 1
 88 279 l 1
92 490 m 0
 92 608 138 629 224 629 c 0
 314 629 357 608 357 490 c 0
 357 383 314 359 224 359 c 0
 135 359 92 386 92 490 c 0
150 490 m 0
 150 420 175 420 224 420 c 0
 278 420 298 421 298 490 c 0
 298 568 275 569 224 569 c 0
 176 569 150 568 150 490 c 0
EndSplineSet
Validated: 1
EndChar

StartChar: BNGSIGvisarga
Encoding: 2435 2435 125
Width: 445
Flags: W
HStem: 9 60.208<159.161 290.055> 218.283 60.208<160.623 288.922> 359.342 60.208<159.161 290.055> 568.625 60.208<160.623 288.922>
VStem: 92.1709 58.21<77.6899 208.884 428.032 559.226> 298.22 59.1602<76.4482 209.296 426.79 559.638>
LayerCount: 2
Back
Fore
SplineSet
92.1708984375 140.006835938 m 0
 92.1708984375 257.693359375 137.551757812 278.491210938 224.299804688 278.491210938 c 0
 313.54296875 278.491210938 357.379882812 257.552734375 357.379882812 140.006835938 c 0
 357.379882812 32.2900390625 313.54296875 9 224.299804688 9 c 0
 135.05859375 9 92.1708984375 35.7802734375 92.1708984375 140.006835938 c 0
150.380859375 140.006835938 m 0
 150.380859375 69.341796875 175.28515625 69.2080078125 224.299804688 69.2080078125 c 0
 278.14453125 69.2080078125 298.219726562 70.3388671875 298.219726562 140.006835938 c 0
 298.219726562 217.931640625 274.840820312 218.283203125 224.299804688 218.283203125 c 0
 176.251953125 218.283203125 150.380859375 217.65234375 150.380859375 140.006835938 c 0
92.1708984375 490.348632812 m 0
 92.1708984375 608.03515625 137.551757812 628.833007812 224.299804688 628.833007812 c 0
 313.54296875 628.833007812 357.379882812 607.89453125 357.379882812 490.348632812 c 0
 357.379882812 382.631835938 313.54296875 359.341796875 224.299804688 359.341796875 c 0
 135.05859375 359.341796875 92.1708984375 386.122070312 92.1708984375 490.348632812 c 0
150.380859375 490.348632812 m 0
 150.380859375 419.68359375 175.28515625 419.549804688 224.299804688 419.549804688 c 0
 278.14453125 419.549804688 298.219726562 420.680664062 298.219726562 490.348632812 c 0
 298.219726562 568.2734375 274.840820312 568.625 224.299804688 568.625 c 0
 176.251953125 568.625 150.380859375 567.994140625 150.380859375 490.348632812 c 0
EndSplineSet
Validated: 1
EndChar

StartChar: SIGvirama
Encoding: 2509 2509 126
Width: 0
VWidth: 2048
GlyphClass: 2
Flags: W
HStem: -231 218.148
VStem: -197 275
LayerCount: 2
Back
Fore
SplineSet
-162.615234375 -12.8515625 m 1
 -162.615234375 -12.8515625 -153.456054688 -18.3671875 -117 -44 c 0
 -43 -96 20 -143 78 -194 c 1
 50 -231 l 1
 -77 -150 -124 -120 -197 -73 c 1
 -162.615234375 -12.8515625 l 1
EndSplineSet
Validated: 524289
EndChar

StartChar: BNGkhandata
Encoding: 2510 2510 127
Width: 500
VWidth: 0
GlyphClass: 2
Flags: W
HStem: 561 76<171.803 345.941>
VStem: 88 73<346.067 547.531> 354.045 67.9551<88.2913 177.527>
LayerCount: 2
Back
Fore
SplineSet
413 548 m 1
 413 548 244 561 218 561 c 0
 190 561 161 541 161 508 c 2
 161 385 l 2
 161 300 422 256 422 183 c 1
 422 137 408 60 381 -15 c 1
 337 -6 l 1
 354 154 l 2
 354.030273438 154.365234375 354.044921875 155.731445312 354.044921875 156.09765625 c 0
 354.044921875 192.764648438 88 256.903320312 88 366 c 2
 88 523 l 2
 88 617 162 637 213 637 c 0
 264 637 394 603 422 599 c 1
 422 599 413 548 413 548 c 1
EndSplineSet
Validated: 1
EndChar

StartChar: NameMe.65536
Encoding: 65536 -1 128
Width: 633
VWidth: 2048
Flags: W
HStem: 0 48<132 495> 648 48<132 495>
VStem: 84 48<48 648> 495 48<48 648>
LayerCount: 2
Back
Fore
SplineSet
84 696 m 1
 543 696 l 1
 543 0 l 1
 84 0 l 1
 84 696 l 1
132 48 m 1
 495 48 l 1
 495 648 l 1
 132 648 l 1
 132 48 l 1
EndSplineSet
Validated: 1
EndChar

StartChar: BNGka_SIGvirama_BNGssa.akhn
Encoding: 65564 -1 156
Width: 980
VWidth: 0
GlyphClass: 3
Flags: W
HStem: 0 21G<604 669.053> 256 73<273.014 348.74> 377 61<505.149 604 670 825.115> 456 70<151.041 225.772> 575 61<-14 239 302 449 501 604 670 990>
VStem: 75 67<380.571 452.385> 182 72<163.093 238.238> 264 66<497.257 564.886> 354.586 72.4984<319.73 382.849> 442.701 58.2991<439.431 575> 604 66<0 164.01 221 377 438 575> 843 70<267.916 359.661>
LayerCount: 2
Back
Fore
SplineSet
670 377 m 0
 669 0 l 1
 604 0 l 9
 604 158 l 0
 574 167 366 237 315 253 c 0
 309 255 304 256 300 256 c 0
 289 256 282 249 269 228 c 0
 259 211 254 201 254 194 c 0
 254 186 257 179 264 173 c 0
 303 138 364 88 364 88 c 1
 335 49 l 1
 335 49 264 81 217 126 c 0
 198 144 182 169 182 191 c 0
 182 214 187 222 210 261 c 0
 242 315 263 329 290 329 c 0
 303 329 344 319 344 319 c 1
 347.638405691 329.308816123 354.586310373 344.39801968 354.586310373 357.355012541 c 0
 354.586310373 365.765058921 351.659179135 373.276811381 343 378 c 0
 324 388 216 442 183 454 c 0
 179 455 175 456 173 456 c 0
 165 456 160 451 152 436 c 0
 145 423 142 418 142 410 c 0
 142 404 144 399 149 394 c 0
 175 370 190 356 190 356 c 1
 167 317 l 1
 167 317 114 348 102 359 c 0
 88 371 75 383 75 402 c 0
 75 419 85 439 102 467 c 0
 124 506 132 526 161 526 c 0
 184 526 242 497 242 497 c 1
 242 497 264 521 264 531 c 0
 264 542 239 575 239 575 c 1
 -14 575 l 1
 -14 636 l 1
 151 636 990 636 990 636 c 17
 990 575 l 0
 670 575 l 1
 670 438 l 0
 803 438 l 2
 855 438 913 388 913 315 c 0
 913 293 908 270 896 245 c 0
 874 201 848 179 813 143 c 1
 761 169 l 2
 762 170 830 274 830 274 c 2
 839 289 843 303 843 316 c 0
 843 352 812 377 766 377 c 2
 670 377 l 0
604 438 m 0
 604 575 l 0
 501 575 l 0
 501 575 501 569 501 543 c 0
 501 523 502 495 504 466 c 0
 505 444 519 438 532 438 c 1
 604 438 l 0
604 377 m 1
 545 377 477 377 452 423 c 0
 444.921568627 436.411764706 442.700884275 460.926951173 442.700884275 486.410965617 c 0
 442.700884275 529.331410996 449 575 449 575 c 0
 302 575 l 0
 325 537 330 526 330 518 c 0
 330 508 316 491 303 471 c 1
 303 471 385 426 411 404 c 0
 419.487004213 396.455996255 427.084758544 388.022742626 427.084758544 377.023113003 c 0
 427.084758544 376.358241924 427.056999532 375.683994382 427 375 c 0
 424 346 416 319 410 300 c 1
 604 221 l 0
 604 377 l 1
EndSplineSet
Validated: 524289
LCarets2: 2 0 0
Ligature2: "'akhn' Akhand lookup 2 subtable" BNGka SIGvirama BNGssa
EndChar

StartChar: BNGja_SIGvirama_BNGnya.akhn
Encoding: 65565 -1 157
Width: 975
VWidth: 0
GlyphClass: 3
Flags: W
HStem: 24.8799 75.2969<357.951 466.021> 103 66<616.5 829.81> 275 60<751 829.639> 291 66<404.073 570.805> 438 78<742.416 830.064> 575 62<-15 385 448 987>
VStem: 604.099 71.1387<225.991 287.673> 834 71<175.018 269.459 340.875 434.708>
LayerCount: 2
Back
Fore
SplineSet
606 402 m 5xdf
 672 453 761 516 804 516 c 4
 868 516 906 483 906 399 c 6
 906 394 l 6
 906 361 902 314 861 308 c 5
 902 301 905 254 905 221 c 6
 905 215 l 6
 905 106 833.708470536 103 779 103 c 4
 689 103 576 128.766601562 576 128.766601562 c 4
 576 128.766601562 526.939472664 81.1707415234 509 65 c 4
 479.8203125 38.697265625 446.823242188 24.8798828125 415.9140625 24.8798828125 c 4
 371.612304688 24.8798828125 321.327148438 55.3173828125 253 126 c 4
 206 175 121 311 82 427 c 5
 129 448 l 5
 132 443 242 254 302 179 c 4
 340.392521852 131.009347685 375.477539062 100.176757812 412.411132812 100.176757812 c 4
 430.375 100.176757812 449.40234375 108.001953125 471 126 c 4
 516 163 576 212 595 242 c 4
 601.315429688 251.735351562 604.098632812 259.740234375 604.098632812 266.250976562 c 4
 604.098632812 284.484375 582.264648438 291 555 291 c 4
 526 291 405 291 335 291 c 12
 385 575 l 4
 -15 576 l 5
 -15 637 l 5
 150 637 823 636 987 636 c 5
 987 575 l 4
 448 575 l 4
 444 555 l 5
 499 503 546 458 606 402 c 5xdf
619 347 m 5
 619 347 675.237304688 322 675.237304688 265.31640625 c 4
 675.237304688 251.5546875 668.980238282 238.691342332 662 226 c 4
 654.225336873 211.864248859 616 170 616 170 c 4
 776 169 l 6
 776 169 789 169 793 169 c 4
 823 169 834 182 834 214 c 6
 834 226 l 6
 834 264 818 275 781 275 c 6
 751 275 l 21
 751 299 751 335 751 335 c 29
 781 335 l 6xef
 818 335 834 346 834 384 c 6
 834 391 l 6
 834 424 824 438 792 438 c 4
 777 438 759.505859375 429.701171875 750 426 c 6
 619 347 l 5
571 357 m 5xdf
 531 397 473 453 433 492 c 5
 432 491 411 380 404 347 c 5
 404 347 504 356 571 357 c 5xdf
EndSplineSet
Validated: 524289
LCarets2: 2 0 0
Ligature2: "'akhn' Akhand lookup 2 subtable" BNGja SIGvirama BNGnya
EndChar

StartChar: BNGra_SIGvirama.rphf
Encoding: 65566 -1 158
Width: 0
VWidth: 2048
GlyphClass: 4
Flags: W
HStem: 652.612 229.966
VStem: -208.544 293.839
LayerCount: 2
Back
Fore
SplineSet
-208.543945312 704.838867188 m 1
 -208.543945312 704.838867188 -199.98046875 712.993164062 -164.298828125 739.693359375 c 0
 -91.0400390625 794.512695312 -7.6767578125 844.537109375 59.5390625 882.578125 c 5
 85.294921875 843.981445312 l 5
 -32.7578125 752.62109375 -94.810546875 705.12890625 -163.018554688 652.612304688 c 5
 -208.543945312 704.838867188 l 1
EndSplineSet
Validated: 524289
Ligature2: "'rphf' Reph Form lookup 3 subtable" BNGra SIGvirama
EndChar

StartChar: BNGra_SIGvirama.blwf
Encoding: 65567 -1 159
Width: 0
VWidth: 0
GlyphClass: 4
Flags: W
HStem: -228 72<-467.385 -293.361>
VStem: -157 69<-76 156> -135 47<-228 -201.273>
LayerCount: 2
Back
Fore
SplineSet
-88 191 m 13xa0
 -88 -228 l 5
 -135 -228 l 5xa0
 -157 -144 l 6
 -157 -144 -299 -228 -383 -228 c 4
 -389 -228 -396 -228 -404 -228 c 4
 -447 -228 -512.275390625 -222.181640625 -567 -139 c 4
 -592 -101 -605 -73 -622 -25 c 5
 -575 5 l 5
 -510 -90 l 6
 -470.559570312 -147.643554688 -429 -156 -401 -156 c 4
 -399 -156 -398 -156 -396 -156 c 4
 -307 -156 -157 -76 -157 -76 c 5
 -157 156 l 5xc0
 -88 191 l 13xa0
EndSplineSet
Validated: 524289
LCarets2: 1 0
Ligature2: "'blwf' Below Base Forms lookup 4 subtable" BNGra SIGvirama
EndChar

StartChar: BNGba_SIGvirama.blwf
Encoding: 65568 -1 160
Width: 0
VWidth: 0
GlyphClass: 4
Flags: W
VStem: -177 65<-205 1>
LayerCount: 2
Back
Fore
SplineSet
-176 76 m 8
 -111 76 l 17
 -112 -282 l 1
 -177 -282 l 1
 -304 -193 -366 -150 -426 -108 c 1
 -426 -27 l 1
 -176 76 l 8
-177 -205 m 4
 -177 1 l 8
 -361 -73 l 0
 -177 -205 l 4
EndSplineSet
Validated: 1
Ligature2: "'blwf' Below Base Forms lookup 4 subtable" BNGba SIGvirama
EndChar

StartChar: BNGka_SIGvirama.half
Encoding: 65569 -1 161
Width: 635
VWidth: 0
GlyphClass: 3
Flags: W
HStem: 575 61<-12 312 377 647>
VStem: 312 65<212 467 542 574> 554.146 71.5596<332.102 420.17>
LayerCount: 2
Back
Fore
SplineSet
378 467 m 5
 377 130 l 5
 312 130 l 5
 175 237 96 299 36 348 c 5
 36 429 l 5
 312 542 l 4
 312 574 l 5
 -12 575 l 5
 -12 636 l 5
 153 636 483 636 647 636 c 5
 647 575 l 5
 377 575 l 4
 378 538 l 5
 526 500 l 2
 572.287109375 486.239257812 625.705078125 445.88671875 625.705078125 380.375976562 c 0
 625.705078125 359.4765625 622.153320312 334.643554688 607 309 c 0
 581 265 567 252 537 217 c 1
 484 242 l 2
 485 243 541 339 541 339 c 2
 549.833984375 354.033203125 554.145507812 367.150390625 554.145507812 378.802734375 c 0
 554.145507812 411.979492188 525.6953125 432.6875 477 444 c 2
 378 467 l 5
312 212 m 4
 312 469 l 12
 104 380 l 4
 312 212 l 4
EndSplineSet
Validated: 524289
Ligature2: "'half' Half Forms lookup 5 subtable" BNGka SIGvirama
EndChar

StartChar: BNGga_SIGvirama.half
Encoding: 65571 -1 163
Width: 376
VWidth: 0
GlyphClass: 3
Flags: W
HStem: 553.962 71.3504<109.191 240.188>
VStem: 19 81<479 549.62> 196 71<312.415 382.666>
LayerCount: 2
Back
Fore
SplineSet
409 541 m 1
 384 494 l 25
 207 541 l 0
 184 546 167 550 153 552 c 0
 146.412571905 553.235142768 140.884572738 553.96175965 136.145569664 553.96175965 c 0
 117.863737265 553.96175965 111.323857336 543.148143497 101 509 c 0
 100 507 100 504 100 502 c 0
 100 487 141 475 197 452 c 0
 235 437 245 426 254 401 c 0
 259 388 265 351 267 319 c 0
 267 319 267 318 267 318 c 0
 267 285 194 238 101 189 c 1
 71 236 l 1
 114 265 196 319 196 340 c 0
 196 340 196 341 196 341 c 0
 194 361 196 374 172 384 c 0
 111 409 19 441 19 479 c 0
 19 484 20 492 22 498 c 0
 48 570 50 580 81 607 c 0
 95.0941698115 619.528150944 113.480066039 625.312160377 133.277292449 625.312160377 c 0
 138.763575472 625.312160377 144.358245283 624.867962264 150 624 c 0
 170 621 190 618 204 615 c 0
 301 594 409 541 409 541 c 1
EndSplineSet
Validated: 524289
LCarets2: 1 0
Ligature2: "'half' Half Forms lookup 5 subtable" BNGga SIGvirama
EndChar

StartChar: BNGnga_SIGvirama.half
Encoding: 65573 -1 165
Width: 590
GlyphClass: 3
Flags: W
HStem: 123 71<227.626 367.987> 342 70<290.085 493.471> 446 59<291 438.76> 575 61<-10 236 495 601> 587 49<297.728 442.071>
VStem: 42 47<419.185 447.681> 228 63<396 446 505 573.236> 443 55<509.683 574.636> 494 69<272.281 336.597>
LayerCount: 2
Back
Fore
SplineSet
236 574 m 5xf680
 -10 575 l 5
 -10 636 l 1
 155 636 437 636 601 636 c 1
 601 575 l 1
 495 575 l 25
 495 575 498 562 498 544 c 0xf7
 498 479 490 446 413 446 c 2
 291 446 l 1
 290 445 290 420 290 396 c 1
 290 396 407 412 450 412 c 0
 524 412 563 374 563 321 c 0
 563 304 559 285 551 266 c 0
 535 225 472 189 392 149 c 0
 357 131 318 123 287 123 c 0
 243 123 184 143 140 215 c 0
 94 291 75 329 42 445 c 1
 89 463 l 1
 92 458 140 352 185 271 c 0
 215 217 247 194 284 194 c 0
 302 194 328 200 354 210 c 0
 411 232 471 263 486 286 c 0
 497 304 494 305 494 315 c 0
 494 335 474 341 432 342 c 0
 403 342 298 342 228 342 c 8
 228 521 l 2
 228 553 236 574 236 574 c 5xf680
291 505 m 1
 396 505 l 2
 428 505 443 517 443 542 c 0
 443 587 442 587 365 587 c 0xef
 307 587 291 586 291 512 c 0
 291 510 291 508 291 505 c 1
EndSplineSet
Validated: 1
LCarets2: 1 0
Ligature2: "'half' Half Forms lookup 5 subtable" BNGnga SIGvirama
EndChar

StartChar: BNGca_SIGvirama.half
Encoding: 65574 -1 166
Width: 535
VWidth: 0
GlyphClass: 3
Flags: W
HStem: 134 71<169.774 301.332> 575 61<-10 86 153 588>
VStem: 86 67<220.608 464.205 515 574> 445 65<321.198 408.903>
LayerCount: 2
Back
Fore
SplineSet
153 464.205078125 m 0
 153 300 l 5
 153 240 169 205 218 205 c 4
 260 205 349 235 410 305 c 4
 436.60546875 335.53125 445 353 445 372 c 4
 445 408 421 412.298828125 387 420.298828125 c 0
 381.159179688 421.672851562 369.987304688 423.9375 365 425 c 0
 257 448 153 464.205078125 153 464.205078125 c 0
153 515 m 0
 153 515 224.893581351 507.365461018 262 503 c 0
 381 489 377.140516465 490.960962948 406 485.205078125 c 0
 408.95703125 484.615312502 412 484 412 484 c 1
 480 470 510 443 510 386 c 4
 510 357 501.151367188 325.504882812 489 306 c 4
 414.010742188 185.627929688 283 134 214 134 c 4
 149 134 86 171 86 293 c 6
 86 574 l 1
 -10 575 l 1
 -10 636 l 1
 155 636 424 636 588 636 c 1
 588 575 l 1
 153 575 l 17
 153 515 l 0
EndSplineSet
Validated: 524289
Ligature2: "'half' Half Forms lookup 5 subtable" BNGca SIGvirama
EndChar

StartChar: BNGtta_SIGvirama.half
Encoding: 65579 -1 171
Width: 571
VWidth: 0
GlyphClass: 3
Flags: W
HStem: 134 71<163.774 280.327> 427 59<256 430.517> 427 51<256 366.363> 575 61<-13 80 147 404 474 582> 708 64<117.379 392.718>
VStem: 80 67<220.608 574> 404 70<636 696.221> 439 65<326.182 415.749>
LayerCount: 2
Back
Fore
SplineSet
147 300 m 5xde
 147 240 163 205 212 205 c 4
 254 205 342 253 398 305 c 4
 427.67578125 332.556640625 439 355 439 386 c 4
 439 427 372 427 331 427 c 4
 303 427 256 427 256 427 c 5xdd
 256 427 250 478 250 478 c 5xbd
 303 484 333 486 368 486 c 4
 384 486 396 486 400 485 c 5
 471 482 504 430 504 381 c 4xdd
 504 351 488.268554688 317.013671875 474 299 c 4
 394 198 277 134 208 134 c 4
 143 134 80 171 80 293 c 6
 80 574 l 5
 -13 575 l 5
 -13 636 l 5
 404 636 l 4
 404 690 388 708 340 708 c 0
 293 708 47 708 47 708 c 2
 43 758 l 1
 43 758 286 772 346 772 c 0
 440 772 474 714 474 636 c 4
 582 636 l 5
 582 575 l 5
 147 575 l 5
 147 300 l 5xde
EndSplineSet
Validated: 524289
Ligature2: "'half' Half Forms lookup 5 subtable" BNGtta SIGvirama
EndChar

StartChar: BNGddha_SIGvirama.half
Encoding: 65587 -1 179
Width: 571
VWidth: 0
GlyphClass: 3
Flags: W
HStem: 134 71<163.774 280.327> 427 59<256 430.517> 427 51<256 366.363> 575 61<-13 80 147 582>
VStem: 80 67<220.608 574> 439 65<325.668 415.749>
LayerCount: 2
Back
Fore
SplineSet
-816 39 m 1049,0,-1
-13 636 m 9,1,-1
 582 636 l 17,2,-1
 582 575 l 1,3,-1
 147 575 l 1,4,-1
 147 300 l 1,5,-1
 147 240 163 205 212 205 c 0,8,-1
 254 205 342 253 398 305 c 0,11,-1
 428 333 439 355 439 386 c 0,14,-1
 439 427 372 427 331 427 c 0,17,-1
 303 427 256 427 256 427 c 1,20,-1
 256 427 250 478 250 478 c 1,23,-1
 303 484 333 486 368 486 c 0,26,-1
 384 486 396 486 400 485 c 1,29,-1
 471 482 504 430 504 381 c 0,32,-1
 504 351 488 317 474 299 c 0,35,-1
 394 198 277 134 208 134 c 0,38,-1
 143 134 80 171 80 293 c 2,41,-1
 80 574 l 1,42,-1
 -13 575 l 1,43,-1
 -13 636 l 9,1,-1
EndSplineSet
Validated: 1
LCarets2: 1 0
Ligature2: "'half' Half Forms lookup 5 subtable" BNGddha SIGvirama
EndChar

StartChar: BNGba_SIGvirama.half
Encoding: 65588 -1 180
Width: 435
VWidth: 0
GlyphClass: 3
Flags: W
HStem: 575 61<-12 317 383 444>
VStem: 317 65<212 469 542 574>
LayerCount: 2
Back
Fore
SplineSet
383 574 m 1
 382 130 l 1
 317 130 l 1
 180 237 89 299 29 348 c 1
 29 429 l 1
 317 542 l 0
 317 574 l 1
 -12 575 l 1
 -12 636 l 1
 153 636 280 636 444 636 c 1
 444 575 l 1
 383 574 l 1
317 212 m 0
 317 469 l 8
 97 380 l 0
 317 212 l 0
EndSplineSet
Validated: 1
LCarets2: 1 0
Ligature2: "'half' Half Forms lookup 5 subtable" BNGba SIGvirama
EndChar

StartChar: BNGpa_SIGvirama.half
Encoding: 65589 -1 181
Width: 555
VWidth: 0
GlyphClass: 3
Flags: W
HStem: 549.054 69.6719<246.6 386.518>
LayerCount: 2
Back
Fore
SplineSet
440 483 m 1
 440 483 423.282226562 500.018554688 401.114257812 517 c 0
 371.256723498 539.871923533 347.134765625 549.053710938 315.592773438 549.053710938 c 0
 288.19921875 549.053710938 269.885742188 541 256 533 c 0
 231.83984375 519.081054688 166.114257812 474.833007812 166.114257812 474.833007812 c 5
 252 344 l 1
 440 483 l 1
555.322265625 384 m 1
 486.885742188 442.362304688 l 0
 260 272 l 1
 215 279 l 1
 115.114257812 442 l 1
 115.114257812 442 70.900390625 411.368164062 54.1142578125 400 c 1
 23.1142578125 440 l 1
 75.1142578125 486 136.114257812 539 216.114257812 585 c 0
 246.829101562 602.661132812 278.34375 618.725585938 307 618.725585938 c 0
 342.7265625 618.725585938 374.1875 609.408203125 397 595 c 0
 472.999536145 546.99926557 587 425 587 425 c 9
 555.322265625 384 l 1
EndSplineSet
Validated: 524289
Ligature2: "'half' Half Forms lookup 5 subtable" BNGpa SIGvirama
EndChar

StartChar: BNGna_SIGvirama.half
Encoding: 65590 -1 182
Width: 450
VWidth: 0
GlyphClass: 3
Flags: W
HStem: 420.554 70.1729<182.576 322.489> 575.328 61<-13 462>
VStem: 90.3555 68.3916<288.075 396.178>
LayerCount: 2
Back
Fore
SplineSet
465 346.328125 m 1
 465 346.328125 345.999023438 399.322265625 245 419.328125 c 0
 240.444335938 420.23046875 235.99609375 420.553710938 231.708007812 420.553710938 c 0
 187.444335938 420.553710938 158.747070312 378.515625 158.747070312 340.033203125 c 0
 158.747070312 328.383789062 161.376953125 317.060546875 167 307.328125 c 0
 195 261.328125 283 176.328125 283 176.328125 c 1
 283 176.328125 254 130.328125 254 130.328125 c 1
 254 130.328125 157 208.328125 136 230.328125 c 0
 105.880859375 263 90.35546875 306.356445312 90.35546875 347.759765625 c 0
 90.35546875 387.459960938 104.629882812 425.36328125 134 450.328125 c 0
 169.502929688 480.505859375 209.908203125 490.7265625 247.963867188 490.7265625 c 0
 274.221679688 490.7265625 297.8125 481.202148438 319 473.328125 c 0
 405.010742188 441.362304688 438 424.328125 492 396.328125 c 9
 465 346.328125 l 1
462 574.328125 m 17
 -13 575.328125 l 1
 -13 636.328125 l 1
 152 636.328125 298 636.65625 462 636.65625 c 9
 462 574.328125 l 17
EndSplineSet
Validated: 524289
Ligature2: "'half' Half Forms lookup 5 subtable" BNGna SIGvirama
EndChar

StartChar: BNGda_SIGvirama.half
Encoding: 65591 -1 183
Width: 495
GlyphClass: 3
Flags: W
HStem: 575.328 61<-11 104.9 171.9 499>
VStem: 104.9 67<420 574.656>
LayerCount: 2
Back
Fore
SplineSet
386.900390625 523 m 1
 432.099609375 500 l 1
 387.599609375 247 l 1
 336.19921875 146 l 1
 298.499023438 146 l 1
 353.099609375 434 l 1
 139.900390625 332 l 1
 104.900390625 382.500976562 l 2
 104.900390625 574.65625 l 1
 -11 575.328125 l 1
 -11 636.328125 l 1
 154 636.328125 335 636.328125 499 636.328125 c 1
 499 575.328125 l 1
 171.900390625 575.328125 l 1
 171.900390625 420 l 2
 386.900390625 523 l 1
EndSplineSet
Validated: 524289
Ligature2: "'half' Half Forms lookup 5 subtable" BNGda SIGvirama
EndChar

StartChar: BNGnna_SIGvirama.half
Encoding: 65592 -1 184
Width: 460
VWidth: 0
GlyphClass: 3
Flags: W
HStem: 538.592 68.2524<170.512 325.776>
VStem: 77.3553 68.3918<406.983 513.054>
LayerCount: 2
Back
Fore
SplineSet
462 460 m 1
 462 460 346 525 232 538 c 0
 228.70472275 538.37577723 225.484614535 538.591627969 222.335916795 538.591627969 c 0
 176.018837109 538.591627969 145.747141609 496.931050812 145.747141609 458.264707012 c 0
 145.747141609 446.868633322 148.155598176 435.601517283 154 426 c 0
 182 380 262 306 262 306 c 1
 262 306 233 260 233 260 c 1
 233 260 143.614567822 326.638434905 123 349 c 0
 92.880634567 381.671854029 77.3553127274 425.028632832 77.3553127274 466.431560212 c 0
 77.3553127274 506.131693282 91.6298631522 544.035383679 121 569 c 0
 155.547608888 598.365467554 199.378285507 606.844032712 237.792922667 606.844032712 c 0
 266.094284206 606.844032712 291.635205726 602.888185302 308 598 c 0
 385 575 432 540 486 511 c 1
 462 460 l 1
EndSplineSet
Validated: 524289
Ligature2: "'half' Half Forms lookup 5 subtable" BNGnna SIGvirama
EndChar

StartChar: BNGdda_SIGvirama.half
Encoding: 65593 -1 185
Width: 630
VWidth: 0
GlyphClass: 3
Flags: W
HStem: 154 63.9822<267.301 361.544> 410 62<345.455 491.232> 575 61<-14 280 345 645>
VStem: 280 65<458 575> 494 64<332.385 406.535>
LayerCount: 2
Back
Fore
SplineSet
552 344 m 0
 537 296 457 235 402 189 c 0
 372 164 338 154 324 154 c 0
 281 154 235 163 177 239 c 0
 135 294 105 334 72 403 c 1
 120 420 l 1
 123 415 157 373 221 291 c 0
 258 244 280 218 314 218 c 0
 314.8 218 315.777777778 217.982222222 316.90962963 217.982222222 c 0
 324.266666667 217.982222222 338.133333333 218.733333333 352 230 c 0
 421 285 466 321 482 344 c 0
 488 353 494 364 494 372 c 0
 494 394 486 410 447 410 c 0
 400 410 280 397 280 397 c 2
 280 575 l 0
 -14 575 l 1
 -14 636 l 1
 151 636 481 636 645 636 c 1
 645 575 l 25
 345 575 l 0
 345 458 l 1
 345 458 393 472 453 472 c 0
 536 472 558 426 558 382 c 0
 558 371 555 354 552 344 c 0
EndSplineSet
Validated: 524289
LCarets2: 1 0
Ligature2: "'half' Half Forms lookup 5 subtable" BNGdda SIGvirama
EndChar

StartChar: BNGma_SIGvirama.half
Encoding: 65594 -1 186
Width: 544
VWidth: 0
GlyphClass: 3
Flags: W
HStem: 342 67<332.722 413.263> 421 69<135.765 189.345> 575 61<-10 141 216 409 469 557>
VStem: 54 65<331.99 407.748> 208.834 67.1661<478.314 530.166> 439 67<435.732 545.159>
LayerCount: 2
Back
Fore
SplineSet
412 342 m 0
 381 342 227 403 176 418 c 0
 170 420 165 421 161 421 c 0
 150 421 145 415 132 394 c 0
 122 377 119 369 119 362 c 0
 119 354 124 347 131 341 c 0
 153 320 176 301 176 301 c 1
 152 261 l 1
 152 261 107 283 90 296 c 0
 69 312 54 336 54 357 c 0
 54 380 59 398 76 426 c 0
 108 479 122 490 149 490 c 0
 162 490 203 478 203 478 c 1
 206.66190379 487.154759474 208.833858761 494.81957013 208.833858761 500.767096583 c 0
 208.833858761 504.564544539 207.948413509 507.66190379 206 510 c 0
 195 525 141 575 141 575 c 1
 -10 575 l 17
 -10 636 l 1
 155 636 557 636 557 636 c 17
 557 575 l 9
 469 575 l 1
 469 575 506 508 506 478 c 0
 506 440 432 342 412 342 c 0
264 459 m 1
 264 459 370 409 387 409 c 0
 400 409 439 458 439 480 c 0
 439 507 409 575 409 575 c 1
 216 575 l 1
 216 575 276 527 276 510 c 0
 276 496 271 482 264 459 c 1
EndSplineSet
Validated: 524289
LCarets2: 1 0
Ligature2: "'half' Half Forms lookup 5 subtable" BNGma SIGvirama
EndChar

StartChar: BNGla_SIGvirama.half
Encoding: 65595 -1 187
Width: 585
VWidth: 0
GlyphClass: 3
Flags: W
HStem: 426 64<158.875 324.585 434.319 571.755> 575 61<-14 595>
VStem: 73 65<300.059 403.122> 126 46<197.87 227.562> 346 52<272 308.909>
LayerCount: 2
Back
Fore
SplineSet
585 384 m 1xe8
 585 384 569 426 520 426 c 2
 495 426 l 2
 437 426 419 402 409 330 c 2
 398 272 l 1
 346 271 l 1
 343 329 l 2
 340 404 318 427 271 427 c 2
 212 427 l 2
 169 427 138 394 138 348 c 0xe8
 138 341 138 334 140 326 c 2
 172 200 l 1
 126 186 l 1xd8
 107 223 93 241 75 333 c 0
 73 343 73 353 73 362 c 0
 73 449 139 494 209 494 c 2
 272 495 l 2
 331 495 368 480 380 439 c 1
 402 482 438 490 499 490 c 2
 519 490 l 2
 527 490 l 0
 585 490 628 421 628 421 c 1
 585 384 l 1xe8
595 574 m 17
 -14 575 l 1
 -14 636 l 1
 151 636 432 636 596 636 c 9
 595 574 l 17
EndSplineSet
Validated: 1
EndChar

StartChar: BNGsha_SIGvirama.half
Encoding: 65596 -1 188
Width: 510
VWidth: 0
GlyphClass: 3
Flags: W
HStem: 264 66.751<37 184.45 283.794 403.674> 526 69<15.3355 190.982 284.308 472.632>
VStem: 201 71<348.986 511.392>
LayerCount: 2
Back
Fore
SplineSet
506 502 m 1
 474 517 400 521 349 521 c 0
 296.078125 521 271.969726562 511.395507812 271.969726562 462.063476562 c 0
 271.969726562 461.059570312 271.98046875 460.038085938 272 459 c 2
 272 384 l 2
 273 355 293 338 312 335 c 0
 331.602539062 331.9375 351.580078125 330.750976562 369.864257812 330.750976562 c 0
 381.427734375 330.750976562 392.314453125 331.225585938 402 332 c 1
 411 277 l 1
 391 274 342 264 307 264 c 0
 263 264 239 301 239 301 c 1
 239 301 204 264 154 264 c 0
 119 264 50 268 30 269 c 1
 37 329 l 1
 40.3330078125 328.833007812 44.6943359375 328.75 49.7958984375 328.75 c 0
 75.3056640625 328.75 119.333007812 330.833007812 146 335 c 0
 165 338 201 354 201 384 c 2
 201 469 l 2
 201 513 169 526 143 526 c 0
 108 526 44 516 -1 511 c 1
 -10 567 l 1
 25 576 105 595 157 595 c 0
 197 595 223 588 247 558 c 1
 267 588 299 590 342 590 c 0
 378 590 491 577 528 554 c 1
 506 502 l 1
EndSplineSet
Validated: 524289
EndChar

StartChar: BNGsa_SIGvirama.half
Encoding: 65597 -1 189
Width: 710
VWidth: 0
GlyphClass: 3
Flags: W
HStem: 324 75<126.545 208.755 467.67 553.331> 575 61<-10 288 352.787 554 617 718>
VStem: 578 75<425.284 539.057>
LayerCount: 2
Back
Fore
SplineSet
324 484 m 1
 324 484 508.772460938 399 526 399 c 0
 539 399 578 445 578 465 c 0
 578 492 554 575 554 575 c 1
 362 575 l 1
 356 561 332 503 324 484 c 1
550 324 m 4
 494 324 348.643554688 399 296 425 c 1
 296 425 235.502929688 324 194 324 c 0
 162 324 65 375 49 383 c 1
 68 431 l 1
 166 403 l 2
 174.188476562 400.66015625 180 399 182 399 c 0
 212 399 262 513 288 575 c 1
 -10 575 l 17
 -10 636 l 1
 155 636 718 636 718 636 c 17
 718 575 l 9
 617 575 l 1
 617 575 653 493 653 463 c 0
 653 439.756835938 581 324 550 324 c 4
EndSplineSet
Validated: 524289
EndChar

StartChar: BNGssa_SIGvirama.half
Encoding: 65599 -1 191
Width: 505
VWidth: 0
GlyphClass: 3
Flags: W
HStem: 575 61<-14 77 141 372 432 516>
VStem: 40.7046 62.2209<404.615 506.349> 406 63<424.46 536.61>
LayerCount: 2
Back
Fore
SplineSet
57 369 m 0
 45.1123595506 379.078651685 40.7045827547 397.705718975 40.7045827547 419.789821964 c 0
 40.7045827547 483.161595758 77 575 77 575 c 1
 -14 575 l 1
 -14 636 l 1
 151 636 516 636 516 636 c 17
 516 575 l 9
 432 575 l 1
 432 575 469 489 469 459 c 0
 469 421 399 305 379 305 c 0
 348 305 122 314 57 369 c 0
119 507 m 1
 116.673933708 497.695734833 102.925522585 450.517378909 102.925522585 423.730571013 c 0
 102.925522585 415.969600124 104.079620598 409.920379402 107 407 c 0
 116 398 340 372 340 372 c 1
 280 408 133 499 119 507 c 1
385 424 m 1
 385 424 406 457 406 472 c 0
 406 499 372 575 372 575 c 1
 141 575 l 25
 135 561 l 1
 238 505 385 424 385 424 c 1
EndSplineSet
Validated: 524289
EndChar

StartChar: NameMe.65640
Encoding: 65633 -1 225
Width: 915
VWidth: 0
Flags: W
HStem: -0 72<242.42 416.639> 447 73<397.426 532.36> 575 61<-14 929>
VStem: 553 69<152 354> 575 47<0 26.7273> 774.586 67.5596<219.464 313.434>
LayerCount: 2
Back
Fore
SplineSet
622 354 m 5xf4
 622 0 l 5
 575 0 l 5xec
 553 84 l 6
 553 84 411 0 327 0 c 4
 321 0 314 -0 306 -0 c 4
 263 -0 198 6 143 89 c 4
 118 127 82 206 65 254 c 5
 105 279 l 5
 200 138 l 6
 239 80 281 72 309 72 c 4
 311 72 312 72 314 72 c 4
 403 72 553 152 553 152 c 5
 553 366 l 5
 553 424 518 447 472 447 c 4
 404 447 258 347 258 347 c 6
 226 388 l 5
 299 452 392 520 472 520 c 4
 599.717773438 520 611.708007812 425 611.708007812 425 c 5
 758 382 l 6
 805.858875685 367.932711533 842.145507812 330.313476562 842.145507812 274.802734375 c 4
 842.145507812 253.903320312 832.020507812 224.470703125 814.440429688 200.426757812 c 4
 790 167 780 153 762.145507812 133.802734375 c 5
 720.145507812 161.802734375 l 6
 761.440429688 234.426757812 l 6
 770.040789249 249.551927833 774.5859375 262.577148438 774.5859375 274.229492188 c 4
 774.5859375 305.40625 755.961914062 317.390625 716 328 c 6
 622 354 l 5xf4
929 575 m 29
 -14 575 l 5
 -14 636 l 5
 151 636 765 636 929 636 c 5
 929 575 l 29
EndSplineSet
Validated: 524289
EndChar

StartChar: NameMe.65641
Encoding: 65634 -1 226
Width: 725
VWidth: 0
Flags: W
HStem: -166 72<244.615 416.867> 450.622 62.9746<141.998 274.321> 575 62<624 738>
VStem: 71.1729 62.1426<522.986 578.523> 559 65<-13 10.9898 82 575> 577 47<-166 -139.273>
LayerCount: 2
Back
Fore
SplineSet
559 0 m 5xf8
 426 76 210 200 150 235 c 1
 150 316 l 1
 402 426 l 1
 402 426 389 466 383 485 c 0
 373.650390625 514.607421875 363 506 363 506 c 2
 363 506 264.709960938 450.622070312 183.05078125 450.622070312 c 0
 151.828125 450.622070312 122.745117188 458.42578125 102 480 c 0
 84.8232421875 497.731445312 71.1728515625 527.5234375 71.1728515625 552.572265625 c 0
 71.1728515625 572.73046875 78.7177734375 597.055664062 97 614 c 0
 131 646 224 653 224 653 c 1
 236 614 l 2
 236 614 181 591 154 578 c 0
 140.60546875 571.59375 133.315429688 561.45703125 133.315429688 550.35546875 c 0
 133.315429688 542.393554688 137.064453125 533.935546875 145 526 c 0
 153.435546875 517.205078125 166.833007812 513.596679688 183.138671875 513.596679688 c 0
 257.678710938 513.596679688 390 589 390 589 c 2
 390 589 394.3359375 591.2265625 400.76171875 591.2265625 c 0
 413.106445312 591.2265625 427.458007812 582.260742188 442 535 c 0
 458 483 487 390 487 390 c 0
 229 273 l 0
 559 82 l 0
 559 636 l 0
 557 660 554 702 554 702 c 1
 590 702 l 1
 613 637 l 1
 738 637 l 17
 738 575 l 1
 624 575 l 1
 624 1 l 29xf8
 624 -166 l 5
 577 -166 l 5xf4
 555 -82 l 6
 555 -82 413 -166 329 -166 c 4
 323 -166 316 -166 308 -166 c 4
 265 -166 199.724609375 -160.181640625 145 -77 c 4
 120 -39 107 -11 90 37 c 5
 137 67 l 5
 202 -28 l 6
 241.440429688 -85.6435546875 283 -94 311 -94 c 4
 313 -94 314 -94 316 -94 c 4
 405 -94 559 -13 559 -13 c 5
 559 0 l 5xf8
EndSplineSet
Validated: 524289
EndChar

StartChar: NameMe.65642
Encoding: 65635 -1 227
Width: 675
VWidth: 0
Flags: W
HStem: -68 72<210.615 384.639> 502 62<489.84 522.617> 549.388 71.3906<243.923 402.654> 575 61<590 693>
VStem: 136.851 82.9395<446.022 515.932> 341.035 71.0049<258.289 339.419> 521 69<83 502 564 575> 543 47<-68 -41.2727>
LayerCount: 2
Back
Fore
SplineSet
521 98 m 5xde
 522.6171875 502 l 0xde
 340 541 l 0
 317.241210938 546.090820312 299.7734375 549.387695312 285.770507812 549.387695312 c 0
 253.01171875 549.387695312 239.213867188 531.342773438 221 476 c 0
 220.181640625 473.545898438 219.790039062 471.240234375 219.790039062 469.06640625 c 0
 219.790039062 442.001953125 280.537109375 435.140625 337 412 c 0
 375 397 385 386 394 361 c 0
 399 348 410 297 412 265 c 0
 412.026367188 264.563476562 412.040039062 264.125 412.040039062 263.68359375 c 0
 412.040039062 230.756835938 338.756835938 184.338867188 246 135 c 1
 216 182 l 1
 259.477539062 210.65625 341.03515625 264.698242188 341.03515625 286.23828125 c 0
 341.03515625 286.497070312 341.0234375 286.750976562 341 287 c 0
 339 307 336 334 312 344 c 0
 250.75 368.682617188 136.850585938 391.694335938 136.850585938 448.177734375 c 0
 136.850585938 453.48046875 137.854492188 459.078125 140 465 c 0
 166 537 179 578 212 603 c 0
 229.905273438 616.428710938 256.889648438 620.778320312 282.793945312 620.778320312 c 0xae
 303.184570312 620.778320312 322.905273438 618.083007812 337 615 c 0
 434 593 468 581 522.837890625 564 c 0
 523 617 l 1
 521 641 515 702 515 702 c 1
 551 702 l 1
 577 636 l 9
 693 636 l 17
 693 575 l 1
 590 575 l 0
 590 98 l 13xde
 590 -68 l 5
 543 -68 l 5xdd
 521 16 l 6
 521 16 379 -68 295 -68 c 4
 289 -68 282 -68 274 -68 c 4
 231 -68 165.724609375 -62.181640625 111 21 c 4
 86 59 73 87 56 135 c 5
 103 165 l 5
 168 70 l 6
 207.440429688 12.3564453125 249 4 277 4 c 4
 279 4 280 4 282 4 c 4
 371 4 521 83 521 83 c 5
 521 98 l 5xde
EndSplineSet
Validated: 524289
EndChar

StartChar: NameMe.65643
Encoding: 65636 -1 228
Width: 650
VWidth: 0
Flags: W
HStem: -171 72<201.615 373.867> 365 60.8096<170.517 330> 575 61<-12 155 201.707 516 582 660>
VStem: 99 65<435.737 519.241> 516 65<-18 9.4307 78 575> 534 47<-171 -144.273>
LayerCount: 2
Back
Fore
SplineSet
213 575 m 1xf8
 181 518 164 494 164 469 c 0
 164 460 164 452 172 443 c 0
 184.99609375 428.704101562 243.596679688 425.809570312 304.997070312 425.809570312 c 0
 338.084960938 425.809570312 371.985351562 426.649414062 400 427 c 1
 404 412 421 342 421 342 c 1
 421 342 302 274 215 225 c 1
 516 78 l 0
 516 575 l 0
 213 575 l 1xf8
516 0 m 1
 379 66 193 156 133 185 c 1
 132 260 l 1
 223 309 330 365 330 365 c 1
 330 365 327 365 322 365 c 0
 312.92578125 365 297.862304688 364.543945312 279.78125 364.543945312 c 0
 222.145507812 364.543945312 133.8359375 369.178710938 111 408 c 0
 103 422 99 436 99 451 c 0
 99 492 116 512 155 575 c 1
 -12 575 l 1
 -12 636 l 1
 153 636 660 636 660 636 c 17
 660 575 l 9
 582 575 l 1
 581 -171 l 1
 534 -171 l 1xf4
 512 -87 l 2
 512 -87 370 -171 286 -171 c 0
 280 -171 273 -171 265 -171 c 0
 222 -171 156.724609375 -165.181640625 102 -82 c 0
 77 -44 64 -16 47 32 c 1
 94 62 l 1
 159 -33 l 2
 198.440429688 -90.6435546875 240 -99 268 -99 c 0
 270 -99 271 -99 273 -99 c 0
 362 -99 516 -18 516 -18 c 1
 516 0 l 1
EndSplineSet
Validated: 524289
EndChar

StartChar: NameMe.65644
Encoding: 65637 -1 229
Width: 0
VWidth: 0
Flags: W
HStem: -181.028 72<214.615 382.66> 3.16211 75.3477<305.991 414.129> 287 70<365.085 568.608> 428 59<366 513.76> 577 57<375.185 515.907>
VStem: 304.912 61.042<341 428 497.002 568.075> 518 55<491.683 573.301> 547 65<-15.0283 118> 565 47<-168.028 -141.301> 569.148 68.3691<214.189 282.735>
LayerCount: 2
Back
Fore
SplineSet
547 118 m 17xfd
 547 118 477 63 451 43 c 0
 419.829456607 19.0226589286 392.525390625 3.162109375 361.516601562 3.162109375 c 0
 317.512695312 3.162109375 268.047851562 32.6064453125 200 103 c 0
 153 152 69 282 30 398 c 1
 77 416 l 1
 80 411 181 231 249 156 c 0
 290.0546875 110.234375 321.59765625 78.509765625 358.565429688 78.509765625 c 0
 376.525390625 78.509765625 395.607421875 86.2060546875 418 103 c 0
 466 139 539 195 554 218 c 0
 565.44921875 235.555664062 569.1484375 250.099609375 569.1484375 260.221679688 c 0xfc40
 569.1484375 280.35546875 548.923828125 286.334960938 507 287 c 0
 478 287 373 287 303 287 c 8
 303 435 l 2
 303 435 232 456 177 484 c 0
 152.287109375 496.581054688 141 503 141 503 c 2
 164 549 l 1
 305 497 l 2
 305 497 304.912109375 499.350585938 304.912109375 503.3984375 c 0
 304.912109375 522.958984375 306.971679688 574.142578125 331 599 c 0
 354 623 373 634 433 634 c 0
 539 634 573 633 573 526 c 0xfe
 573 461 565 428 488 428 c 2
 366 428 l 1
 365 427 365 365 365 341 c 1
 365 341 482 357 525 357 c 0
 599.427734375 357 637.517578125 318.931640625 637.517578125 265.57421875 c 0xfc40
 637.517578125 248.67578125 633.534278148 230.306587753 626 211 c 0
 619.935273995 195.459139613 611.625 184.971679688 611.625 184.971679688 c 9
 612 -168.028320312 l 21
 565 -168.028320312 l 5xfc80
 543 -84.0283203125 l 6
 543 -84.0283203125 383 -181.028320312 299 -181.028320312 c 4
 293 -181.028320312 286 -181.028320312 278 -181.028320312 c 4
 235 -181.028320312 169.724609375 -175.209960938 115 -92.0283203125 c 4
 90 -54.0283203125 77 -26.0283203125 60 21.9716796875 c 5
 107 51.9716796875 l 5
 172 -43.0283203125 l 6
 211.440429688 -100.671875 253 -109.028320312 281 -109.028320312 c 4
 283 -109.028320312 284 -109.028320312 286 -109.028320312 c 4
 375 -109.028320312 547 -15.0283203125 547 -15.0283203125 c 13
 547 118 l 17xfd
366 487 m 1
 471 487 l 2
 503 487 518 499 518 524 c 0xfe
 518 576 517 577 440 577 c 0
 381.825195312 577 365.954101562 571.359375 365.954101562 494.44921875 c 0
 365.954101562 492.037109375 365.969726562 489.5546875 366 487 c 1
EndSplineSet
Validated: 524289
EndChar

StartChar: NameMe.65645
Encoding: 65638 -1 230
Width: 625
VWidth: 0
Flags: W
HStem: -31 72<193.42 367.639> 123 71<238.626 378.787> 342 70<301.085 503.973> 446 59<302 449.76> 575 61<-11 247 506 635> 587 49<308.728 453.071>
VStem: 53 47<419.185 447.681> 239 63<396 446 505 573.236> 454 55<509.683 574.636> 504 69<121 205 271.137 336.467> 526 47<-31 -4.27273>
LayerCount: 2
Back
Fore
SplineSet
302 505 m 1xf780
 407 505 l 2
 439 505 454 517 454 542 c 0
 454 587 453 587 376 587 c 0
 318 587 302 586 302 512 c 0
 302 510 302 508 302 505 c 1xf780
504 205 m 1xfb40
 504 205 441 165 403 149 c 0
 367 134 329 123 298 123 c 0
 254 123 195 143 151 215 c 0
 105 291 86 329 53 445 c 1
 100 463 l 1
 103 458 151 352 196 271 c 0
 226 217 258 194 295 194 c 0
 313 194 339 200 365 210 c 0
 422 232 482 263 497 286 c 0
 508 304 505 305 505 315 c 0
 505 335 485 341 443 342 c 0
 414 342 309 342 239 342 c 8
 239 521 l 2
 239 553 247 574 247 574 c 1
 -11 575 l 1
 -11 636 l 1
 154 636 471 636 635 636 c 1
 635 575 l 1
 506 575 l 25
 506 575 509 562 509 544 c 0xfb80
 509 479 501 446 424 446 c 2
 302 446 l 1
 301 445 301 420 301 396 c 1
 301 396 418 412 461 412 c 0
 534 412 573 375 573 322 c 0
 573 321 573 321 573 320 c 9xfb40
 573 -31 l 1
 526 -31 l 1xfb20
 504 53 l 2
 504 53 362 -31 278 -31 c 0
 272 -31 265 -31 257 -31 c 0
 214 -31 149 -25 94 58 c 0
 69 96 56 124 39 172 c 1
 86 202 l 1
 151 107 l 2
 190 49 232 41 260 41 c 0
 262 41 263 41 265 41 c 0
 354 41 504 121 504 121 c 1
 504 205 l 1xfb40
EndSplineSet
Validated: 1
EndChar

StartChar: NameMe.65646
Encoding: 65639 -1 231
Width: 700
VWidth: 0
Flags: W
HStem: -177 72<209.615 383.639> 0 71<278.136 392.983> 575 61<-12 194 261 710>
VStem: 194 67<86.6083 408 463 574> 520 69<-25 102> 542 47<-177 -150.273> 581 71<242.707 343.49>
LayerCount: 2
Back
Fore
SplineSet
261 408 m 0xf2
 261 166 l 1
 261 106 277 71 326 71 c 0
 381 71 496 144 551 229 c 0
 573 263 581 288 581 307 c 0
 581 343 557 347 523 355 c 0
 517.159179688 356.374023438 505.987304688 358.9375 501 360 c 0
 393 383 261 408 261 408 c 0xf2
520 102 m 5xf8
 520 102 406.918358911 -1.42108547152e-14 322 0 c 0
 257 1.08775719212e-14 194 37 194 159 c 2
 194 574 l 1
 -12 575 l 1
 -12 636 l 1
 153 636 546 636 710 636 c 1
 710 575 l 1
 261 575 l 17
 261 463 l 0
 261 463 332.893554688 455.365234375 370 451 c 0
 489 437 513 434 542 429 c 0xf4
 544.95703125 428.490234375 547 428 548 428 c 1
 622 414 652 369 652 312 c 0xf2
 652 290 641.400390625 249.401367188 631 227 c 0
 618 199 589 159 589 159 c 13
 589 -177 l 5
 542 -177 l 5xf4
 520 -93 l 6
 520 -93 378 -177 294 -177 c 4
 288 -177 281 -177 273 -177 c 4
 230 -177 164.724609375 -171.181640625 110 -88 c 4
 85 -50 72 -22 55 26 c 5
 102 56 l 5
 167 -39 l 6
 206.440429688 -96.6435546875 248 -105 276 -105 c 4
 278 -105 279 -105 281 -105 c 4
 370 -105 520 -25 520 -25 c 5
 520 102 l 5xf8
EndSplineSet
Validated: 524289
EndChar

StartChar: NameMe.65647
Encoding: 65640 -1 232
Width: 735
VWidth: 0
Flags: W
HStem: -181 72<202.42 376.639> 174 82<214.064 278.305> 575 61<-12 142 209 745>
VStem: 142 67<259.941 463 516 574> 426 70<344.354 404.796> 535 47<-181 -154.273> 591 66<254.732 377.514>
LayerCount: 2
Back
Fore
SplineSet
406 345 m 0
 412 349 426 359 426 379 c 0
 426 415 402 424 368 432 c 0
 362 433 351 436 346 437 c 0
 238 460 209 463 209 463 c 1
 209 317 l 1
 210 273 219 256 238 256 c 0
 247 256 259 260 274 268 c 0
 323 294 400 341 406 345 c 0
513 -19 m 1
 513 -19 362 27 279 70 c 0
 287 143 l 1
 287 143 567 208 585 278 c 0
 591 301 591 312 591 337 c 0
 591 364 584 374 546 389 c 0
 522 398 492 405 492 405 c 17
 492 405 496 390 496 381 c 0
 496 349 480 316 436 289 c 0
 392 262 326 223 270 190 c 0
 253 180 234 174 216 174 c 0
 177 174 142 205 142 289 c 2
 142 574 l 1
 -12 575 l 1
 -12 636 l 1
 153 636 581 636 745 636 c 1
 745 575 l 1
 209 575 l 1
 209 516 l 0
 209 516 298 504 355 496 c 0
 430 485 472 478 545 461 c 0
 615 445 657 417 657 342 c 0
 657 314 651 274 645 244 c 0
 629 164 383 101 383 101 c 0
 437 81 683 -13 683 -13 c 2
 668 -61 l 1
 582 -37 l 8
 582 -181 l 1
 535 -181 l 1
 513 -97 l 2
 513 -97 371 -181 287 -181 c 0
 281 -181 274 -181 266 -181 c 0
 223 -181 158 -175 103 -92 c 0
 78 -54 65 -26 48 22 c 1
 95 52 l 1
 160 -43 l 2
 199 -101 241 -109 269 -109 c 0
 271 -109 272 -109 274 -109 c 0
 363 -109 513 -29 513 -29 c 1
 513 -19 l 1
EndSplineSet
Validated: 1
EndChar

StartChar: NameMe.65648
Encoding: 65641 -1 233
Width: 925
VWidth: 0
Flags: W
HStem: -152 72<234.615 446.908> 24.8799 75.2969<361.952 470.021> 291 66<421.081 607.173> 575 62<-13 359 422 935>
VStem: 359 63<345 493 551.756 575> 608.099 71.1387<226.334 287.791> 713 66<7 91.7273> 732 47<-152 -125.273> 794.237 68.2441<307.115 395.602>
LayerCount: 2
Back
Fore
SplineSet
779 68 m 9xfe80
 779 -152 l 1
 732 -152 l 1xfd80
 710 -68 l 2
 710 -68 403 -152 319 -152 c 0
 313 -152 306 -152 298 -152 c 0
 255 -152 189.724609375 -146.181640625 135 -63 c 0
 110 -25 97 3 80 51 c 1
 127 81 l 1
 192 -14 l 2
 231.440429688 -71.6435546875 273 -80 301 -80 c 0
 303 -80 304 -80 306 -80 c 0
 395 -80 720 7 720 7 c 1
 713 72 l 1
 713 73 762 252 791 343 c 0
 793.209960938 350.043945312 794.237304688 356.342773438 794.237304688 362.006835938 c 0
 794.237304688 397.352539062 754.232421875 407.93359375 712 420 c 0
 654 437 499 473 422 493 c 1
 421 492 421 369 421 345 c 1
 421 345 532 357 575 357 c 0
 635.735351562 357 679.237304688 314.080078125 679.237304688 265.31640625 c 0
 679.237304688 251.5546875 672.935546875 238.715820312 666 226 c 0
 644 186 572 118 513 65 c 0
 483.8203125 38.697265625 450.823242188 24.8798828125 419.9140625 24.8798828125 c 0
 375.612304688 24.8798828125 325.327148438 55.3173828125 257 126 c 0
 210 175 125 311 86 427 c 1
 133 448 l 1
 136 443 246 254 306 179 c 0
 344.392578125 131.009765625 379.477539062 100.176757812 416.411132812 100.176757812 c 0
 434.375 100.176757812 453.40234375 108.001953125 475 126 c 0
 520 163 580 212 599 242 c 0
 605.315429688 251.735351562 608.098632812 259.740234375 608.098632812 266.250976562 c 0
 608.098632812 284.484375 586.264648438 291 559 291 c 0
 530 291 428 291 358 291 c 8
 359 575 l 0
 -13 576 l 1
 -13 637 l 1
 152 637 771 636 935 636 c 1
 935 575 l 0
 422 575 l 0
 422 555 l 1
 501 542 633 518 719 491 c 0
 794.010742188 467.1328125 862.481445312 447.625976562 862.481445312 373.022460938 c 0
 862.481445312 360.103515625 860.743164062 345.076171875 856 329 c 2
 779 68 l 9xfe80
EndSplineSet
Validated: 524289
EndChar

StartChar: NameMe.65649
Encoding: 65642 -1 234
Width: 825
VWidth: 0
Flags: W
HStem: -166 72<206.615 378.867> 575 61<-15 521 760 840>
VStem: 521 65<-13 14.5485 82 198 271 459 532 575> 539 47<-166 -139.273> 695 65<39 160 219 575>
LayerCount: 2
Back
Fore
SplineSet
586 0 m 9xe8
 586 -166 l 1
 539 -166 l 1xd8
 517 -82 l 2
 517 -82 375 -166 291 -166 c 0
 285 -166 278 -166 270 -166 c 0
 227 -166 161.724609375 -160.181640625 107 -77 c 0
 82 -39 69 -11 52 37 c 1
 99 67 l 1
 164 -28 l 2
 203.440429688 -85.6435546875 245 -94 273 -94 c 0
 275 -94 276 -94 278 -94 c 0
 367 -94 521 -13 521 -13 c 1
 521 0 l 1
 384 102 203 237 143 281 c 1
 143 362 l 1
 521 532 l 0
 521 575 l 1xe8
 -15 575 l 17
 -15 636 l 1
 150 636 586 636 586 636 c 0xd8
 586 271 l 0
 695 219 l 0
 695 636 l 1
 693 660 690 702 690 702 c 1
 726 702 l 1
 749 636 l 1
 840 636 l 17
 840 575 l 1
 760 575 l 0
 760 39 l 1
 695 39 l 1
 695 160 l 0
 586 198 l 0
 586 0 l 9xe8
521 82 m 0xe8
 521 459 l 8
 214 316 l 4
 521 82 l 0xe8
EndSplineSet
Validated: 524289
EndChar

StartChar: NameMe.65650
Encoding: 65643 -1 235
Width: 0
VWidth: 0
Flags: W
HStem: -200 72<246.615 420.871> 5 72<247.42 421.639> 108 63<639 781.981> 283 60<682 783.639> 449 56<627 699.333> 459 65<627.823 784.713> 559 76<404.888 537.482>
VStem: 558 69<-48 89 179 449 505 538.558> 580 47<-200 -173.273> 788 71<175.276 277.459 348.875 455.189>
LayerCount: 2
Back
Fore
SplineSet
558 89 m 5xf740
 558 89 416 5 332 5 c 4
 326 5 319 5 311 5 c 4
 268 5 203 11 148 94 c 4
 123 132 87 211 70 259 c 5
 110 284 l 5
 205 143 l 6
 244 85 286 77 314 77 c 4
 316 77 317 77 319 77 c 4
 408 77 558 157 558 157 c 5
 558 478 l 5
 558 536 523 559 477 559 c 4
 409 559 227 440 227 440 c 6
 197 478 l 5
 270 546 392 635 472 635 c 4
 570 635 627 580 627 505 c 5xfb40
 630 506 705 524 742 524 c 4
 806 524 860 523 860 410 c 6
 860 402 l 6
 860 369 856 322 815 316 c 5
 856 309 859 262 859 229 c 6
 859 220 l 6
 859 108 806 108 742 108 c 4
 706 108 627 129 627 129 c 4
 627 -200 l 1
 580 -200 l 1xf6c0
 558 -116 l 2
 558 -116 415 -200 331 -200 c 0
 325 -200 318 -200 310 -200 c 0
 267 -200 201.724609375 -194.181640625 147 -111 c 0
 122 -73 109 -45 92 3 c 1
 139 33 l 1
 204 -62 l 2
 243.440429688 -119.643554688 285 -128 313 -128 c 0
 315 -128 316 -128 318 -128 c 0
 407 -128 558 -48 558 -48 c 1
 558 89 l 5xf740
626 179 m 4
 730 171 l 6
 734 171 738 171 742 171 c 4
 768 171 788 181 788 213 c 6
 788 234 l 6
 788 272 772 283 735 283 c 6
 682 283 l 21
 682 307 682 343 682 343 c 29
 735 343 l 6
 772 343 788 354 788 392 c 6
 788 417 l 6
 788 450 769 459 744 459 c 4xf740
 740 459 725 459 720 458 c 6
 627 449 l 6
 626 179 l 4
EndSplineSet
Validated: 524289
EndChar

StartChar: NameMe.65651
Encoding: 65644 -1 236
Width: 710
VWidth: 0
Flags: W
HStem: -177 72<208.42 382.639> 0 71<277.774 389.364> 337 66<383 571.897> 337 58<383 519.344> 575 61<-12 194 261 530 600 734> 708 64<246.908 518.718>
VStem: 194 67<86.6083 574> 519 69<-25 102> 530 70<636 696.221> 541 47<-177 -150.273> 582 72<241.416 324.635>
LayerCount: 2
Back
Fore
SplineSet
519 102 m 1xef
 519 102 408 0 322 0 c 0
 257 0 194 37 194 159 c 2
 194 574 l 1
 -12 575 l 1
 -12 636 l 1
 530 636 l 17
 530 690 514 708 466 708 c 0
 419 708 161 708 161 708 c 2
 157 758 l 1
 157 758 412 772 472 772 c 0
 566 772 600 714 600 636 c 9xee80
 734 636 l 1
 734 575 l 1
 261 575 l 17
 261 166 l 1
 261 106 277 71 326 71 c 0
 381 71 487 150 551 229 c 0
 573 256 582 277 582 292 c 0
 582 332 530 337 481 337 c 0
 453 337 383 337 383 337 c 1xee20
 383 337 377 395 377 395 c 1xde20
 430 401 486 403 521 403 c 0
 537 403 549 403 553 402 c 1
 624 399 654 346 654 297 c 0xee20
 654 271 645 244 630 222 c 0
 616 200 588 156 588 156 c 9
 588 -177 l 1
 541 -177 l 1xee40
 519 -93 l 2
 519 -93 377 -177 293 -177 c 0
 287 -177 280 -177 272 -177 c 0
 229 -177 164 -171 109 -88 c 0
 84 -50 71 -22 54 26 c 1
 101 56 l 1
 166 -39 l 2
 205 -97 247 -105 275 -105 c 0
 277 -105 278 -105 280 -105 c 0
 369 -105 519 -25 519 -25 c 1
 519 102 l 1xef
EndSplineSet
Validated: 1
EndChar

StartChar: NameMe.65652
Encoding: 65645 -1 237
Width: 666
VWidth: 0
Flags: W
HStem: -172 72<195.615 369.639> -0.148438 74.1484<324.496 405.155> 574.179 61.8213<-13 254 326 679>
VStem: 254 72<534.535 574> 506 69<-20 88.373> 528 47<-172 -145.273> 541 73<186.263 263.177>
LayerCount: 2
Back
Fore
SplineSet
541 222 m 0xf2
 541 264.802734375 371.094726562 414.038085938 371.094726562 414.038085938 c 1
 371.094726562 387.907226562 356.845703125 369.026367188 335.094726562 340.038085938 c 0
 295.540039062 287.321289062 238 212 217 185 c 1
 257 144 308 107 343 81 c 0
 349.924804688 75.85546875 356.733398438 74 362 74 c 0
 389.641601562 74 541 185 541 222 c 0xf2
506 88.373046875 m 1xf8
 506 88.373046875 410.350585938 -0.1484375 355.408203125 -0.1484375 c 0
 346.961914062 -0.1484375 344.936523438 0.869140625 339 3 c 0
 300 17 150 149 150 149 c 1
 150 149 151 189 151 217 c 1
 177 249 246.045898438 332.290039062 278.094726562 374.038085938 c 0
 298.725585938 400.913085938 312 421.7890625 312 444 c 0
 312 464.1328125 299.094726562 481.038085938 276.094726562 513.038085938 c 0
 256.250976562 540.646484375 254 562 254 574 c 1
 -13 575 l 1
 -13 636 l 1
 255.591796875 636 l 1
 255.591796875 636 257 660 282 687 c 0
 314.219726562 721.797851562 398 790 436 816 c 1
 468 779 l 1
 429 742 370.40234375 689.618164062 340 658 c 0
 333.306640625 651.0390625 323.81640625 636 323.81640625 636 c 1
 679 636 l 1
 679 575 l 1
 326 574.178710938 l 0
 326 507 614 317 614 225 c 0xf2
 614 192.985351562 575 152 575 152 c 9
 575 -172 l 1
 528 -172 l 1xf4
 506 -88 l 2
 506 -88 364 -172 280 -172 c 0
 274 -172 267 -172 259 -172 c 0
 216 -172 150.724609375 -166.181640625 96 -83 c 0
 71 -45 58 -17 41 31 c 1
 88 61 l 1
 153 -34 l 2
 192.440429688 -91.6435546875 234 -100 262 -100 c 0
 264 -100 265 -100 267 -100 c 0
 356 -100 506 -20 506 -20 c 1
 506 88.373046875 l 1xf8
EndSplineSet
Validated: 524289
EndChar

StartChar: NameMe.65653
Encoding: 65646 -1 238
Width: 710
VWidth: 0
Flags: W
HStem: -177 72<208.42 382.639> 0 71<277.774 389.364> 337 66<383 571.897> 337 58<383 519.344> 575 61<-12 194 261 734>
VStem: 194 67<86.6083 574> 519 69<-25 102> 541 47<-177 -150.273> 582 72<241.416 324.635>
LayerCount: 2
Back
Fore
SplineSet
-12 636 m 9xee
 734 636 l 17
 734 575 l 1
 261 575 l 17
 261 166 l 1
 261 106 277 71 326 71 c 0
 381 71 487 150 551 229 c 0
 573 256 582 277 582 292 c 0
 582 332 530 337 481 337 c 0
 453 337 383 337 383 337 c 1xec80
 383 337 377 395 377 395 c 1xdc80
 430 401 486 403 521 403 c 0
 537 403 549 403 553 402 c 1
 624 399 654 346 654 297 c 0xec80
 654 271 645 244 630 222 c 0
 616 200 588 156 588 156 c 9
 588 -177 l 1
 541 -177 l 1xed
 519 -93 l 2
 519 -93 377 -177 293 -177 c 0
 287 -177 280 -177 272 -177 c 0
 229 -177 164 -171 109 -88 c 0
 84 -50 71 -22 54 26 c 1
 101 56 l 1
 166 -39 l 2
 205 -97 247 -105 275 -105 c 0
 277 -105 278 -105 280 -105 c 0
 369 -105 519 -25 519 -25 c 1
 519 102 l 1
 519 102 408 0 322 0 c 0
 257 0 194 37 194 159 c 2
 194 574 l 1
 -12 575 l 1
 -12 636 l 9xee
EndSplineSet
Validated: 1
EndChar

StartChar: NameMe.65654
Encoding: 65647 -1 239
Width: 666
VWidth: 0
Flags: W
HStem: -21 72<202.42 376.639> 539 68<221.627 377.883> 575 61<582 683>
VStem: 128 69<406.771 513.074> 513 69<131 474.527 540 575> 535 47<-21 5.72727>
LayerCount: 2
Back
Fore
SplineSet
582 203 m 9xb8
 582 -21 l 1
 535 -21 l 1xb4
 513 63 l 2
 513 63 371 -21 287 -21 c 0
 281 -21 274 -21 266 -21 c 0
 223 -21 158 -15 103 68 c 0
 78 106 65 134 48 182 c 1
 95 212 l 1
 160 117 l 2
 199 59 241 51 269 51 c 0
 271 51 272 51 274 51 c 0
 363 51 513 131 513 131 c 1
 513 203 l 1
 513 465 l 1
 491 473 397 524 283 538 c 0
 280 538 276 539 273 539 c 0
 227 539 197 497 197 458 c 0
 197 447 199 436 205 426 c 0
 233 380 321 295 321 295 c 1
 321 295 292 249 292 249 c 1
 292 249 195 327 174 349 c 0
 144 382 128 425 128 466 c 0
 128 506 143 544 172 569 c 0
 207 598 250 607 289 607 c 0xd8
 317 607 342 602 359 598 c 0
 445 575 459 561 513 540 c 1
 513 636 l 16xb8
 535 702 l 1
 582 702 l 1
 582 636 l 8xb4
 683 636 l 17
 683 575 l 1
 582 575 l 0
 582 203 l 9xb8
EndSplineSet
Validated: 1
EndChar

StartChar: NameMe.65655
Encoding: 65648 -1 240
Width: 690
VWidth: 0
Flags: W
HStem: -0 72<242.42 416.639> 447 73<397.426 532.229> 575 61<-14 699>
VStem: 553 69<152 424.203> 575 47<0 26.7273>
LayerCount: 2
Back
Fore
SplineSet
622 370 m 0xf0
 622 352 622 0 622 0 c 5
 575 0 l 5xe8
 553 84 l 6
 553 84 411 0 327 0 c 4
 321 0 314 -0 306 -0 c 4
 263 -0 198 6 143 89 c 4
 118 127 82 206 65 254 c 5
 105 279 l 5
 200 138 l 6
 239 80 281 72 309 72 c 4
 311 72 312 72 314 72 c 4
 403 72 553 152 553 152 c 5
 553 366 l 1
 553 424 518 447 472 447 c 0
 404 447 258 347 258 347 c 2
 226 388 l 1
 299 452 392 520 472 520 c 0
 585.717773438 520 622 428 622 370 c 0xf0
699 575 m 25
 -14 575 l 1
 -14 636 l 1
 151 636 535 636 699 636 c 1
 699 575 l 25
EndSplineSet
Validated: 524289
EndChar

StartChar: NameMe.65656
Encoding: 65649 -1 241
Width: 690
VWidth: 0
Flags: W
HStem: -165 72<242.42 416.639> 533 72<130.073 378.469> 575 61<622 704>
VStem: 393 69<415.883 516.88> 557 38<677.684 702> 575 47<-165 -138.273>
LayerCount: 2
Back
Fore
SplineSet
553 0 m 1xb4
 406 84 213 194 153 231 c 1
 152 317 l 1
 152 317 393 375 393 454 c 0
 393 514 383 533 282 533 c 0
 231 533 130 534 130 534 c 1
 122 586 l 1
 122 586 213 605 280 605 c 0
 281 605 284 605 285 605 c 0
 441 605 462 548 462 441 c 0
 462 333 230 266 230 266 c 0
 557 82 l 0
 557 702 l 0
 595 702 l 1xd8
 614 636 l 9
 704 636 l 17
 704 575 l 1
 622 575 l 0
 622 0 l 25
 622 -165 l 1
 575 -165 l 1
 553 -81 l 2
 553 -81 411 -165 327 -165 c 0
 321 -165 314 -165 306 -165 c 0
 263 -165 198 -159 143 -76 c 0
 118 -38 105 -10 88 38 c 1
 135 68 l 1
 200 -27 l 2
 239 -85 281 -93 309 -93 c 0
 311 -93 312 -93 314 -93 c 0
 403 -93 553 -13 553 -13 c 1
 553 0 l 1xb4
EndSplineSet
Validated: 1
EndChar

StartChar: NameMe.65657
Encoding: 65650 -1 242
Width: 0
VWidth: 0
Flags: W
HStem: -32 72<96.4202 270.639> 575 61<-11 113 180 590>
VStem: 113 67<332 575> 402 74<119 224.778> 429 47<-32 -5.27273>
LayerCount: 2
Back
Fore
SplineSet
402 175 m 1xf0
 429 367 l 1xe8
 148 244 l 1
 113 295 l 2
 113 575 l 1
 -11 575 l 1
 -11 636 l 1
 154 636 426 636 590 636 c 1
 590 575 l 1
 180 575 l 1
 180 332 l 2
 459 452 l 1
 504 429 l 1
 476 217 l 9xf0
 476 -32 l 1
 429 -32 l 1xe8
 407 52 l 2
 407 52 265 -32 181 -32 c 0
 175 -32 168 -32 160 -32 c 0
 117 -32 52 -26 -3 57 c 0
 -28 95 -41 123 -58 171 c 1
 -11 201 l 1
 54 106 l 2
 93 48 135 40 163 40 c 0
 165 40 166 40 168 40 c 0
 257 40 402 119 402 119 c 1
 402 175 l 1xf0
EndSplineSet
Validated: 1
EndChar

StartChar: NameMe.65658
Encoding: 65651 -1 243
Width: 665
VWidth: 0
Flags: W
HStem: -165 72<227.615 400.711> 575 61<603 678> 606.29 55.7998<251.3 382.959>
VStem: 179.42 62.707<516.104 597.539> 538 65<-13 9.6554 77 459 528 575> 556 47<-165 -137.318>
LayerCount: 2
Back
Fore
SplineSet
603 0 m 29xd8
 603 -165 l 5
 556 -165 l 5
 534 -78 l 6
 534 -78 396 -165 312 -165 c 4
 306 -165 299 -165 291 -165 c 4
 248 -165 182.724609375 -159.181640625 128 -76 c 4
 103 -38 90 -10 73 38 c 5
 120 68 l 5
 185 -27 l 6
 224.440429688 -84.6435546875 266 -93 294 -93 c 4
 296 -93 297 -93 299 -93 c 4
 388 -93 535 -13 535 -13 c 5
 535 0 l 5
 398 102 220 237 160 281 c 1
 160 358 l 1
 296 419.513671875 l 1
 296 419.513671875 189 481 181 534 c 0
 180.088867188 540.036132812 179.419921875 546.204101562 179.419921875 552.463867188 c 0
 179.419921875 599.310546875 209.483398438 653.943359375 258 661 c 0
 262.954101562 661.75390625 268.40625 662.08984375 274.192382812 662.08984375 c 0
 322.13671875 662.08984375 393 639 393 639 c 1
 383 599 l 2
 383 599 327.110351562 606.290039062 295.51953125 606.290039062 c 0xb4
 292.009765625 606.290039062 288.799804688 606.200195312 286 606 c 0
 263.469726562 604.197265625 242.126953125 584.526367188 242.126953125 554.307617188 c 0
 242.126953125 550.995117188 242.443359375 547.561523438 243 544 c 0
 248 512 364 450 364 450 c 1
 538 528 l 0
 539 636 l 1
 537 660 534 702 534 702 c 1
 570 702 l 1
 593 636 l 9
 678 636 l 17
 678 575 l 1
 603 575 l 0
 603 0 l 29xd8
538 77 m 0x98
 538 459 l 8
 226 315 l 0
 538 77 l 0x98
EndSplineSet
Validated: 524289
EndChar

StartChar: NameMe.65659
Encoding: 65652 -1 244
Width: 0
VWidth: 0
Flags: W
HStem: -86 72<177.615 351.639> 425.226 70.1729<181.576 330.97> 575 61<-14 488 555 655>
VStem: 89.3555 68.3916<292.746 400.85> 488 67<66 353 426 574> 510 45<-86 -59.2727>
LayerCount: 2
Back
Fore
SplineSet
555 -86 m 21xf4
 510 -86 l 1xf4
 488 -2 l 2
 488 -2 346 -86 262 -86 c 0
 256 -86 249 -86 241 -86 c 0
 198 -86 132.724609375 -80.181640625 78 3 c 0
 53 41 40 69 23 117 c 1
 70 147 l 1
 135 52 l 2
 174.440429688 -5.6435546875 216 -14 244 -14 c 0
 246 -14 247 -14 249 -14 c 0
 338 -14 488 66 488 66 c 9
 488 353 l 17
 488 353 358 404 244 424 c 0
 239.42578125 424.802734375 234.99609375 425.225585938 230.708007812 425.225585938 c 0
 186.444335938 425.225585938 157.747070312 383.1875 157.747070312 344.705078125 c 0
 157.747070312 333.055664062 160.376953125 321.732421875 166 312 c 0
 194 266 282 181 282 181 c 1
 282 181 253 135 253 135 c 1
 253 135 156 213 135 235 c 0
 104.880859375 267.671875 89.35546875 311.028320312 89.35546875 352.431640625 c 0
 89.35546875 392.131835938 103.629882812 430.03515625 133 455 c 0
 168.502929688 485.177734375 208.908203125 495.3984375 246.963867188 495.3984375 c 0
 273.221679688 495.3984375 298.361328125 490.532226562 320 484 c 0
 406.010742188 458.034179688 434 446 488 426 c 0
 488 574 l 1xf8
 -14 575 l 1
 -14 636 l 1
 151 636 491 636 655 636 c 1
 655 575 l 1
 555 575 l 1
 555 -86 l 21xf4
EndSplineSet
Validated: 524289
EndChar

StartChar: NameMe.65660
Encoding: 65653 -1 245
Width: 735
VWidth: 0
Flags: W
HStem: -42 72<204.615 394.531> 549.054 69.6719<281.6 421.518> 575 61<658 746>
VStem: 591 67<111 384 455 575> 611 47<-42 -15.2727>
LayerCount: 2
Back
Fore
SplineSet
493.114257812 470.637695312 m 1xc0
 493.114257812 470.637695312 458.282226562 500.018554688 436.114257812 517 c 0
 406.256835938 539.872070312 382.134765625 549.053710938 350.592773438 549.053710938 c 0
 323.19921875 549.053710938 304.885742188 541 291 533 c 0
 266.83984375 519.081054688 201.114257812 474.833007812 201.114257812 474.833007812 c 1
 301.114257812 313 l 1
 493.114257812 470.637695312 l 1xc0
589 197 m 1
 590.322265625 384 l 1
 538 431 l 16
 312.114257812 240 l 1
 267.114257812 247 l 1
 150.114257812 442 l 1
 150.114257812 442 105.900390625 411.368164062 89.1142578125 400 c 1
 58.1142578125 440 l 1
 110.114257812 486 171.114257812 539 251.114257812 585 c 0
 281.829101562 602.661132812 313.34375 618.725585938 342 618.725585938 c 0xc8
 377.7265625 618.725585938 409.1875 609.408203125 432 595 c 0
 508 546.999023438 591 455 591 455 c 9
 591 617 l 1
 589 641 583 702 583 702 c 1
 619 702 l 1
 645 636 l 9
 746 636 l 17
 746 575 l 1
 658 575 l 0
 658 197 l 9xb0
 658 -42 l 1
 611 -42 l 1xa8
 589 42 l 2
 589 42 373 -42 289 -42 c 0
 283 -42 276 -42 268 -42 c 0
 225 -42 159.724609375 -36.181640625 105 47 c 0
 80 85 67 113 50 161 c 1
 97 191 l 1
 162 96 l 2
 201.440429688 38.3564453125 243 30 271 30 c 0
 273 30 274 30 276 30 c 0
 365 30 589 111 589 111 c 1
 589 197 l 1
EndSplineSet
Validated: 524289
EndChar

StartChar: NameMe.65661
Encoding: 65654 -1 246
Width: 900
VWidth: 0
Flags: W
HStem: -165 72<223.42 396.711> 432 61<599 763.115> 575 61<-14 144 179 915>
VStem: 343 81<379.507 431.383> 533 66<-13 9.84032 75 432> 552 47<-165 -137.318> 781 70<321.78 414.661>
LayerCount: 2
Back
Fore
SplineSet
599 0 m 9xfa
 599 -165 l 1
 552 -165 l 1xf6
 530 -78 l 2
 530 -78 392 -165 308 -165 c 0
 302 -165 295 -165 287 -165 c 0
 244 -165 179 -159 124 -76 c 0
 99 -38 86 -10 69 38 c 1
 116 68 l 1
 181 -27 l 2
 220 -85 262 -93 290 -93 c 0
 292 -93 293 -93 295 -93 c 0
 384 -93 531 -13 531 -13 c 1
 531 0 l 1
 393 69 230 160 166 197 c 1
 165 272 l 1
 287 352 343 386 343 409 c 0
 343 416 338 421 329 427 c 0
 289 452 133 543 133 543 c 2
 144 575 l 0
 -14 575 l 1
 -14 636 l 1
 151 636 915 636 915 636 c 17
 915 575 l 0
 179 575 l 1
 179 575 297 523 367 481 c 0
 402 460 424 440 424 415 c 0
 424 376 372 327 233 238 c 1
 533 75 l 0
 533 493 l 0
 741 493 l 18
 793 493 851 443 851 370 c 0
 851 348 846 325 834 300 c 0
 812 256 786 222 751 186 c 1
 699 212 l 2
 700 213 768 329 768 329 c 2
 777 344 781 358 781 371 c 0
 781 407 750 432 704 432 c 2
 599 432 l 0
 599 0 l 9xfa
EndSplineSet
Validated: 1
EndChar

StartChar: NameMe.65662
Encoding: 65655 -1 247
Width: 665
VWidth: 0
Flags: W
HStem: -165 72<205.615 378.711> 575 61<-14 516 582 678>
VStem: 516 65<-13 14.5422 82 459 532 575> 534 47<-165 -137.318>
LayerCount: 2
Back
Fore
SplineSet
516 0 m 1xe0
 379 102 198 236 138 281 c 5
 138 362 l 1
 516 532 l 0
 516 575 l 1
 -14 575 l 17
 -14 636 l 1
 151 636 678 636 678 636 c 1
 678 575 l 9
 582 575 l 17
 581 0 l 9xe0
 581 -165 l 1
 534 -165 l 1xd0
 512 -78 l 2
 512 -78 374 -165 290 -165 c 0
 284 -165 277 -165 269 -165 c 0
 226 -165 160.724609375 -159.181640625 106 -76 c 0
 81 -38 68 -10 51 38 c 1
 98 68 l 1
 163 -27 l 2
 202.440429688 -84.6435546875 244 -93 272 -93 c 0
 274 -93 275 -93 277 -93 c 0
 366 -93 516 -13 516 -13 c 1
 516 0 l 1xe0
516 82 m 0
 516 459 l 8
 209 316 l 0
 516 82 l 0
EndSplineSet
Validated: 524289
EndChar

StartChar: NameMe.65663
Encoding: 65656 -1 248
Width: 700
VWidth: 0
Flags: W
HStem: 0 72<206.615 391.076> 286 68<241.552 439.472> 340 85<482.14 539.964> 456 60.0977<241.122 370> 575 61<-10 710>
VStem: 175 65<356.449 454.844> 562 69<152 318.688> 584 47<0 26.7273>
LayerCount: 2
Back
Fore
SplineSet
710 574 m 1x9c
 -10 575 l 1
 -10 636 l 1
 155 636 546 636 710 636 c 1
 710 574 l 1x9c
631 280 m 0xbe
 631 0 l 1
 584 0 l 1xbd
 562 84 l 2
 562 84 375 0 291 0 c 0
 285 0 278 0 270 0 c 0
 227 0 161.724609375 5.818359375 107 89 c 0
 82 127 69 155 52 203 c 1
 99 233 l 1
 164 138 l 2
 203.440429688 80.3564453125 245 72 273 72 c 0
 275 72 276 72 278 72 c 0
 367 72 562 152 562 152 c 1
 562 277 l 1
 562 295 529 340 517 340 c 0
 516 340 516 340 515 340 c 0xbe
 507 337 442 286 416 286 c 0
 347 286 303 286 261 286 c 0
 230 286 175 304 175 359 c 0
 175 388 175 398 175 428 c 0
 175 464 185 492 200 504 c 0
 211.946289062 513.134765625 236.236328125 516.09765625 262.72265625 516.09765625 c 0
 311.620117188 516.09765625 375 506 375 506 c 1
 370 456 l 2
 370 456 297 456 257 456 c 0
 240 456 240 430 240 414 c 0
 240 401 241 393 241 377 c 0
 241 363 255 354 271 354 c 0
 296 354 338 354 394 354 c 0xde
 419 354 503 421 514 424 c 0
 516 425 518 425 520 425 c 0
 558 425 631 318 631 280 c 0xbe
EndSplineSet
Validated: 524289
EndChar

StartChar: NameMe.65664
Encoding: 65657 -1 249
Width: 665
VWidth: 0
Flags: W
HStem: 0 72<211.42 385.639> 342 67<419.217 499.529> 421 69<221.765 275.345> 575 61<-10 227 302 495 555 673>
VStem: 140 65<331.99 407.748> 294.834 67.1661<478.314 530.166> 525 66.0199<152 363 436.25 545.831> 544 47<0 26.7273>
LayerCount: 2
Back
Fore
SplineSet
350 459 m 1xfe
 350 459 456 409 473 409 c 0
 486 409 525 458 525 480 c 0
 525 507 495 575 495 575 c 1
 302 575 l 1
 302 575 362 527 362 510 c 0
 362 496 357 482 350 459 c 1xfe
494 342 m 0
 472 342 312 400 262 418 c 0
 256 420 251 421 247 421 c 0
 236 421 231 415 218 394 c 0
 208 377 205 369 205 362 c 0
 205 354 210 347 217 341 c 0
 239 320 262 301 262 301 c 1
 238 261 l 1
 238 261 193 283 176 296 c 0
 155 312 140 336 140 357 c 0
 140 380 145 398 162 426 c 0
 194 479 208 490 235 490 c 0
 248 490 289 478 289 478 c 1
 292.66190379 487.154759474 294.833858761 494.81957013 294.833858761 500.767096583 c 0
 294.833858761 504.564544539 293.948413509 507.66190379 292 510 c 0
 281 525 227 575 227 575 c 1
 -10 575 l 17
 -10 636 l 1
 155 636 673 636 673 636 c 1
 673 575 l 9
 555 575 l 1
 555 575 591.019911111 509.774755556 591.019911111 478.258955852 c 0xfe
 591.019911111 477.833066667 591.013333333 477.413333333 591 477 c 9
 591 0 l 1
 544 0 l 1xfd
 522 84 l 2
 522 84 380 0 296 0 c 0
 290 0 283 0 275 0 c 0
 232 0 167 6 112 89 c 0
 87 127 74 155 57 203 c 1
 104 233 l 1
 169 138 l 2
 208 80 250 72 278 72 c 0
 280 72 281 72 283 72 c 0
 372 72 522 152 522 152 c 1
 522 363 l 1
 522 363 505 342 494 342 c 0
EndSplineSet
Validated: 524289
EndChar

StartChar: NameMe.65665
Encoding: 65658 -1 250
Width: 700
VWidth: 0
Flags: W
HStem: -167 72<235.615 409.639> 575 61<-13 155 187 550 616 712>
VStem: 344.049 88.168<380.118 431.281> 550 65<-15 9.8843 82 575> 568 47<-167 -140.273>
LayerCount: 2
Back
Fore
SplineSet
187 575 m 5xf0
 187 575 298.419921875 523.053710938 368 481 c 4
 404.286132812 459.068359375 432.216796875 438.158203125 432.216796875 414.08984375 c 4
 432.216796875 377.799804688 380.083984375 329.782226562 243 242 c 5
 550 82 l 4
 550 575 l 4
 187 575 l 5xf0
550 0 m 5
 413 69 227 167 167 197 c 5
 166 272 l 5
 288.25 352.46875 344.048828125 386.241210938 344.048828125 408.984375 c 4
 344.048828125 415.635742188 339.276367188 421.34375 330 427 c 4
 290 452 142 545 142 545 c 6
 155 575 l 4
 -13 575 l 5
 -13 636 l 5
 152 636 712 636 712 636 c 21
 712 575 l 13
 616 575 l 21
 615 0 l 13xf0
 615 -167 l 5
 568 -167 l 5xe8
 546 -83 l 6
 546 -83 404 -167 320 -167 c 4
 314 -167 307 -167 299 -167 c 4
 256 -167 190.724609375 -161.181640625 136 -78 c 4
 111 -40 98 -12 81 36 c 5
 128 66 l 5
 193 -29 l 6
 232.440429688 -86.6435546875 274 -95 302 -95 c 4
 304 -95 305 -95 307 -95 c 4
 396 -95 550 -15 550 -15 c 5
 550 0 l 5
EndSplineSet
Validated: 524289
EndChar

StartChar: NameMe.65666
Encoding: 65659 -1 251
Width: 665
VWidth: 0
Flags: W
HStem: -167 72<209.615 381.867> -0.433594 97.9033<245.673 341> 575 61<-10 524 590 672>
VStem: 245.673 95.3271<-0.433594 97.4697> 524 65<-13 14.5485 82 459 532 575> 542 47<-167 -140.273>
LayerCount: 2
Back
Fore
SplineSet
245.672851562 19.318359375 m 6xf0
 245.672851562 76 l 6
 245.672851562 88.8818359375 252.543945312 97.4697265625 266.284179688 97.4697265625 c 6
 319.530273438 97.4697265625 l 6
 334.989257812 97.4697265625 341 89.740234375 341 76 c 6
 341 19.318359375 l 6
 341 3.8603515625 331.552734375 -0.43359375 319.530273438 -0.43359375 c 6
 266.284179688 -0.43359375 l 6
 254.26171875 -0.43359375 245.672851562 7.294921875 245.672851562 19.318359375 c 6xf0
524 82 m 0xf8
 524 459 l 8
 217 316 l 0
 524 82 l 0xf8
524 0 m 1
 387 102 206 237 146 281 c 1
 146 362 l 1
 524 532 l 0
 524 575 l 1
 -10 575 l 17
 -10 636 l 1
 155 636 672 636 672 636 c 1
 672 575 l 9
 590 575 l 17
 589 0 l 9xf8
 589 -167 l 1
 542 -167 l 1xf4
 520 -83 l 2
 520 -83 378 -167 294 -167 c 0
 288 -167 281 -167 273 -167 c 0
 230 -167 164.724609375 -161.181640625 110 -78 c 0
 85 -40 72 -12 55 36 c 1
 102 66 l 1
 167 -29 l 2
 206.440429688 -86.6435546875 248 -95 276 -95 c 0
 278 -95 279 -95 281 -95 c 0
 370 -95 524 -13 524 -13 c 1
 524 0 l 1
EndSplineSet
Validated: 524289
EndChar

StartChar: NameMe.65667
Encoding: 65660 -1 252
Width: 700
VWidth: 0
Flags: W
HStem: -68 72<217.615 399.061> 426 67<207.219 325.224 426.523 546.807> 575 61<-10 562 629 710>
VStem: 122 65<299.385 406.122> 167 46<216.87 249.792> 347 47<292 324.455> 562 67<84 411.076 477 574> 582 47<-68 -41.2727>
LayerCount: 2
Back
Fore
SplineSet
562 145 m 1xe6
 562 338 l 0
 562 387 552 426 494 426 c 2
 491 426 l 2
 433 426 420.182617188 413.391601562 405 343 c 2
 394 292 l 1
 347 291 l 1
 344 342 l 2
 340.224609375 406.189453125 314 427 278 427 c 2
 261 427 l 2
 218 427 187 397 187 351 c 0xf6
 187 344 187.291015625 336.83203125 189 329 c 2
 213 219 l 1
 167 205 l 1xec
 148 242 142.444335938 243.778320312 124 336 c 0
 122 346 122 356 122 365 c 0
 122 452 188 497 258 497 c 2
 279 498 l 2
 338 498 364 483 376 442 c 1
 398 485 434 493 495 493 c 2
 499 493 l 2
 499 493 504 493 504 493 c 0
 530 493 562 477 562 477 c 0
 562 574 l 1xf6
 -10 575 l 1
 -10 636 l 1
 155 636 546 636 710 636 c 5
 710 575 l 5
 629 575 l 1xe5
 629 145 l 25xe6
 629 -68 l 1
 582 -68 l 1xe5
 560 16 l 2
 560 16 386 -68 302 -68 c 0
 296 -68 289 -68 281 -68 c 0
 238 -68 172.724609375 -62.181640625 118 21 c 0
 93 59 80 87 63 135 c 1
 110 165 l 1
 175 70 l 2
 214.440429688 12.3564453125 256 4 284 4 c 0
 286 4 287 4 289 4 c 0
 378 4 562 84 562 84 c 1
 562 145 l 1xe6
EndSplineSet
Validated: 524289
EndChar

StartChar: NameMe.65668
Encoding: 65661 -1 253
Width: 660
VWidth: 0
Flags: W
HStem: -74 72<186.615 360.639> 264 66.751<47 194.45 293.794 413.674> 526 69<25.3355 200.982 294.308 486.52> 575 61<566 670>
VStem: 211 71<348.986 511.392> 497 69<78 509.715 572 575 636 661.773> 519 47<-74 -47.2727 691.227 717>
LayerCount: 2
Back
Fore
SplineSet
497 119 m 1xdc
 497 489 l 1
 497 519 410 521 359 521 c 0
 306.078125 521 281.969726562 511.395507812 281.969726562 462.063476562 c 0
 281.969726562 461.059570312 281.98046875 460.038085938 282 459 c 2
 282 384 l 2
 283 355 303 338 322 335 c 0
 341.602539062 331.9375 361.580078125 330.750976562 379.864257812 330.750976562 c 0
 391.427734375 330.750976562 402.314453125 331.225585938 412 332 c 1
 421 277 l 1
 401 274 352 264 317 264 c 0
 273 264 249 301 249 301 c 1
 249 301 214 264 164 264 c 0
 129 264 60 268 40 269 c 1
 47 329 l 1
 50.3330078125 328.833007812 54.6943359375 328.75 59.7958984375 328.75 c 0
 85.3056640625 328.75 129.333007812 330.833007812 156 335 c 0
 175 338 211 354 211 384 c 2
 211 469 l 2
 211 513 179 526 153 526 c 0
 118 526 54 516 9 511 c 1
 0 567 l 1
 35 576 115 595 167 595 c 0xec
 207 595 233 588 257 558 c 1
 277 588 309 590 352 590 c 0
 388 590 468 587 497 572 c 1
 497 589 497 636 497 636 c 0xdc
 519 717 l 1
 566 717 l 1xda
 566 636 l 8
 670 636 l 17
 670 575 l 1
 566 575 l 0
 566 119 l 9xdc
 566 -74 l 1
 519 -74 l 1xda
 497 10 l 2
 497 10 355 -74 271 -74 c 0
 265 -74 258 -74 250 -74 c 0
 207 -74 141.724609375 -68.181640625 87 15 c 0
 62 53 49 81 32 129 c 1
 79 159 l 1
 144 64 l 2
 183.440429688 6.3564453125 225 -2 253 -2 c 0
 255 -2 256 -2 258 -2 c 0
 347 -2 497 78 497 78 c 1
 497 119 l 1xdc
EndSplineSet
Validated: 524289
EndChar

StartChar: NameMe.65669
Encoding: 65662 -1 254
Width: 675
VWidth: 0
Flags: W
HStem: -167 72<227.615 401.639> 335 64<445.25 542> 575 61<-10 170 199 542 608 689>
VStem: 542 65<-15 9.87791 70 335 399 575> 560 47<-167 -140.273>
LayerCount: 2
Back
Fore
SplineSet
542 0 m 1xf0
 405 69 214 166 154 196 c 1
 153 271 l 1
 262 339 324 371 324 394 c 0
 324 406 319 414 305 424 c 0
 280.587890625 441.4375 153 544 153 544 c 2
 170 575 l 0
 -10 575 l 1
 -10 636 l 1
 155 636 689 636 689 636 c 17
 689 575 l 9
 608 575 l 17
 607 0 l 9xf0
 607 -167 l 1
 560 -167 l 1xe8
 538 -83 l 2
 538 -83 396 -167 312 -167 c 0
 306 -167 299 -167 291 -167 c 0
 248 -167 182.724609375 -161.181640625 128 -78 c 0
 103 -40 90 -12 73 36 c 1
 120 66 l 1
 185 -29 l 2
 224.440429688 -86.6435546875 266 -95 294 -95 c 0
 296 -95 297 -95 299 -95 c 0
 388 -95 542 -15 542 -15 c 1
 542 0 l 1xf0
199 575 m 17
 199 575 312 493 365 461 c 0
 390 446 469 399 542 399 c 0
 542 575 l 0
 199 575 l 17
542 335 m 0
 464 335 407 363 407 363 c 1
 407 363 303 293 218 238 c 1
 542 70 l 0
 542 335 l 0
EndSplineSet
Validated: 524289
EndChar

StartChar: NameMe.65670
Encoding: 65663 -1 255
Width: 710
VWidth: 0
Flags: W
HStem: 0 72<222.615 400.582> 324 75<126.545 208.755 475.576 549.262> 575 61<-10 288 352.787 554 617 718>
VStem: 550 69<152 324> 572 47<0 26.7273> 578 75<424.281 539.057>
LayerCount: 2
Back
Fore
SplineSet
324 484 m 5xe4
 324 484 508.772460938 399 526 399 c 4
 539 399 578 445 578 465 c 4
 578 492 554 575 554 575 c 5
 362 575 l 5
 356 561 332 503 324 484 c 5xe4
550 324 m 4xf0
 506 324 348.643554688 399 296 425 c 5
 296 425 235.502929688 324 194 324 c 4
 162 324 65 375 49 383 c 5
 68 431 l 5
 166 403 l 6
 174.188476562 400.66015625 180 399 182 399 c 4
 212 399 262 513 288 575 c 5
 -10 575 l 21
 -10 636 l 5
 155 636 718 636 718 636 c 21
 718 575 l 13
 617 575 l 5
 617 575 653 493 653 463 c 4xe4
 653 439.756835938 619 391 619 391 c 13
 619 0 l 1
 572 0 l 1xe8
 550 84 l 2
 550 84 391 0 307 0 c 0
 301 0 294 0 286 0 c 0
 243 0 177.724609375 5.818359375 123 89 c 0
 98 127 85 155 68 203 c 1
 115 233 l 1
 180 138 l 2
 219.440429688 80.3564453125 261 72 289 72 c 0
 291 72 292 72 294 72 c 0
 383 72 550 152 550 152 c 9
 550 324 l 4xf0
EndSplineSet
Validated: 524289
EndChar

StartChar: NameMe.65671
Encoding: 65664 -1 256
Width: 675
VWidth: 0
Flags: W
HStem: -162 72<172.509 322.567> 443 72<192.128 503.041> 575 61<-12 687>
VStem: 453 47<-162 -134.667> 527 65<303.208 423.284>
LayerCount: 2
Back
Fore
SplineSet
687 575 m 0
 -12 575 l 1
 -12 636 l 1
 153 636 523 636 687 636 c 1
 687 575 l 0
431 -2 m 1
 431 -2 276 70 192 128 c 0
 200 198 l 1
 200 198 527 251 527 342 c 0
 527 439 489 443 419 443 c 0
 368 443 192 444 192 444 c 1
 184 496 l 1
 184 496 314 515 409 515 c 0
 410 515 412 515 413 515 c 0
 583 515 592 424 592 319 c 0
 592 212 307 147 307 147 c 0
 346 125 590 -18 590 -18 c 2
 565 -65 l 1
 500 -34 l 25
 500 -162 l 1
 453 -162 l 1
 432 -80 l 2
 432 -80 312 -162 247 -162 c 0
 245 -162 242 -162 241 -162 c 0
 198 -162 131 -154 91 -79 c 0
 71 -42 68 -32 56 3 c 1
 97 30 l 1
 138 -30 l 2
 177 -88 211 -90 239 -90 c 0
 241 -90 242 -90 244 -90 c 0
 292 -90 431 -22 431 -22 c 1
 431 -2 l 1
EndSplineSet
Validated: 1
EndChar

StartChar: NameMe.65672
Encoding: 65665 -1 257
Width: 750
VWidth: 0
Flags: W
HStem: -200 72<293.42 467.639> -88 98<338 433> 44 77<351.837 455.977> 378 70<396.16 609.751> 575 61<-8 331 396 760>
VStem: 331 65<432 575> 338 95<-88 10> 604 69<-48 182> 620 69<275.219 366.171>
LayerCount: 2
Back
Fore
SplineSet
338 -68 m 2xfa
 338 -11 l 2
 338 2 345 10 358 10 c 2
 412 10 l 2
 427 10 433 2 433 -11 c 2
 433 -68 l 2
 433 -83 424 -88 412 -88 c 2
 358 -88 l 2
 346 -88 338 -80 338 -68 c 2xfa
604 182 m 1xf9
 604 182 539 118 502 85 c 0
 472 58 442 44 410 44 c 0
 367 44 318 72 251 141 c 0
 204 190 119 326 80 442 c 1
 127 460 l 1
 130 455 230 269 300 194 c 0
 340 150 369 121 403 121 c 0
 421 121 440 129 463 148 c 0
 559 230 603 271 614 301 c 0
 618 312 620 321 620 329 c 0
 620 364 589 378 550 378 c 0
 503 378 331 362 331 362 c 2
 331 575 l 0
 -8 575 l 1
 -8 636 l 1
 157 636 596 636 760 636 c 1
 760 575 l 0
 396 575 l 0
 396 432 l 1
 396 432 496 448 556 448 c 0
 639 448 689 386 689 326 c 0xfc80
 689 315 687 300 684 290 c 0
 683 286 673 266 673 266 c 9
 673 -200 l 1
 626 -200 l 1
 604 -116 l 2
 604 -116 462 -200 378 -200 c 0
 372 -200 365 -200 357 -200 c 0
 314 -200 249 -194 194 -111 c 0
 169 -73 156 -45 139 3 c 1
 186 33 l 1
 251 -62 l 2
 290 -120 332 -128 360 -128 c 0
 362 -128 363 -128 365 -128 c 0
 454 -128 604 -48 604 -48 c 1
 604 182 l 1xf9
EndSplineSet
Validated: 1
EndChar

StartChar: NameMe.65673
Encoding: 65666 -1 258
Width: 750
VWidth: 0
Flags: W
HStem: -200 98<290 385> -68 72<294.42 468.639> 78 77<350.309 456.984> 403 70<397.16 610.751> 575 61<-12 332 397 761>
VStem: 290 95<-200 -102> 332 65<457 575> 605 69<84 207> 621 69<300.751 391.171>
LayerCount: 2
Back
Fore
SplineSet
290 -180 m 2xfc
 290 -123 l 2
 290 -110 297 -102 310 -102 c 2
 364 -102 l 2
 379 -102 385 -110 385 -123 c 2
 385 -180 l 2
 385 -195 376 -200 364 -200 c 2
 310 -200 l 2
 298 -200 290 -192 290 -180 c 2xfc
605 207 m 1xf9
 605 207 540 149 503 119 c 0
 472 93 443 78 411 78 c 0
 368 78 312 102 250 175 c 0
 208 224 122 346 83 462 c 1
 128 485 l 1
 131 480 241 303 301 228 c 0
 338 181 370 155 404 155 c 0
 422 155 441 164 464 182 c 0
 560 258 604 296 615 326 c 0
 619 337 621 346 621 354 c 0
 621 389 590 403 551 403 c 0
 504 403 332 387 332 387 c 2
 332 575 l 0
 -12 575 l 1
 -12 636 l 1
 153 636 597 636 761 636 c 1
 761 575 l 0
 397 575 l 0
 397 457 l 1
 397 457 497 473 557 473 c 0
 640 473 690 411 690 351 c 0xfa80
 690 340 688 325 685 315 c 0
 684 311 674 291 674 291 c 1
 674 -68 l 1
 627 -68 l 1
 605 16 l 2
 605 16 463 -68 379 -68 c 0
 373 -68 366 -68 358 -68 c 0
 315 -68 250 -62 195 21 c 0
 170 59 157 87 140 135 c 1
 187 165 l 1
 252 70 l 2
 291 12 333 4 361 4 c 0
 363 4 364 4 366 4 c 0
 455 4 605 84 605 84 c 1
 605 207 l 1xf9
EndSplineSet
Validated: 1
EndChar

StartChar: NameMe.65674
Encoding: 65667 -1 259
Width: 725
VWidth: 0
Flags: W
HStem: -201 72<215.42 389.639> -92 98<268 363> 35 71<284.774 396.364> 372 66<390 578.897> 372 58<390 526.344> 575 61<-10 201 268 734>
VStem: 201 67<121.608 574> 268 95<-92 6> 526 69<-49 137> 548 47<-201 -174.273> 589 72<276.416 359.635>
LayerCount: 2
Back
Fore
SplineSet
-10 636 m 9xf680
 734 636 l 17
 734 575 l 1
 268 575 l 17xf5
 268 201 l 1
 268 141 284 106 333 106 c 0
 388 106 494 185 558 264 c 0
 580 291 589 312 589 327 c 0
 589 367 537 372 488 372 c 0
 460 372 390 372 390 372 c 1xf620
 390 372 384 430 384 430 c 1xee20
 437 436 493 438 528 438 c 0
 544 438 556 438 560 437 c 1
 631 434 661 381 661 332 c 0xf620
 661 306 652 279 637 257 c 0
 623 235 595 191 595 191 c 9
 595 -201 l 1
 548 -201 l 1xf440
 526 -117 l 2
 526 -117 384 -201 300 -201 c 0
 294 -201 287 -201 279 -201 c 0
 236 -201 171 -195 116 -112 c 0
 91 -74 78 -46 61 2 c 1
 108 32 l 1
 173 -63 l 2
 212 -121 254 -129 282 -129 c 0
 284 -129 285 -129 287 -129 c 0
 376 -129 526 -49 526 -49 c 1
 526 137 l 1
 526 137 415 35 329 35 c 0
 264 35 201 72 201 194 c 2
 201 574 l 1
 -10 575 l 1
 -10 636 l 9xf680
268 -72 m 2
 268 -15 l 2
 268 -2 275 6 288 6 c 2
 342 6 l 2
 357 6 363 -2 363 -15 c 2
 363 -72 l 2
 363 -87 354 -92 342 -92 c 2
 288 -92 l 2
 276 -92 268 -84 268 -72 c 2
EndSplineSet
Validated: 1
EndChar

StartChar: NameMe.65675
Encoding: 65668 -1 260
Width: 700
VWidth: 0
Flags: W
HStem: -166.672 72<238.615 412.639> -34 97<258 353> 575.328 61<-10 158 190 553 619 712>
VStem: 258 95<-34 63> 347.049 88.168<380.446 431.609> 553 65<-14.6719 10.2124 82.3281 575.328> 571 47<-166.672 -139.945>
LayerCount: 2
Back
Fore
SplineSet
190 575.328125 m 1xec
 190 575.328125 301.419921875 523.381835938 371 481.328125 c 0
 407.286132812 459.396484375 435.216796875 438.486328125 435.216796875 414.41796875 c 0
 435.216796875 378.127929688 383.083984375 330.110351562 246 242.328125 c 1
 553 82.328125 l 0
 553 575.328125 l 0
 190 575.328125 l 1xec
553 0.328125 m 1
 416 69.328125 230 167.328125 170 197.328125 c 1
 169 272.328125 l 1
 291.25 352.796875 347.048828125 386.569335938 347.048828125 409.3125 c 0
 347.048828125 415.963867188 342.276367188 421.671875 333 427.328125 c 0
 293 452.328125 145 545.328125 145 545.328125 c 2
 158 575.328125 l 0
 -10 575.328125 l 1
 -10 636.328125 l 1
 155 636.328125 712 636.328125 712 636.328125 c 17
 712 575.328125 l 9
 619 575.328125 l 17
 618 0.328125 l 9xec
 618 -166.671875 l 1
 571 -166.671875 l 1xe2
 549 -82.671875 l 2
 549 -82.671875 407 -166.671875 323 -166.671875 c 0
 317 -166.671875 310 -166.671875 302 -166.671875 c 0
 259 -166.671875 193.724609375 -160.853515625 139 -77.671875 c 0
 114 -39.671875 101 -11.671875 84 36.328125 c 1
 131 66.328125 l 1
 196 -28.671875 l 2
 235.440429688 -86.3154296875 277 -94.671875 305 -94.671875 c 0
 307 -94.671875 308 -94.671875 310 -94.671875 c 0
 399 -94.671875 553 -14.671875 553 -14.671875 c 1
 553 0.328125 l 1
258 -15 m 2xf0
 258 42 l 2
 258 55 265 63 278 63 c 2
 332 63 l 2
 347 63 353 56 353 42 c 2
 353 -15 l 2
 353 -30 344 -34 332 -34 c 2
 278 -34 l 2
 266 -34 258 -27 258 -15 c 2xf0
EndSplineSet
Validated: 524289
EndChar

StartChar: NameMe.65676
Encoding: 65669 -1 261
Width: 0
VWidth: 0
Flags: W
HStem: -118 72<249.42 421.741> 256 73<273.014 348.74> 377 61<505.149 604 670 825.115> 456 70<151.041 225.772> 575 61<-14 239 302 449 501 604 670 990>
VStem: 75 67<380.571 452.385> 182 72<163.093 238.238> 264 66<497.257 564.886> 354.586 72.4984<319.73 382.849> 442.701 58.2991<439.431 575> 604 66<37 164.01 221 377 438 575> 622 47<-118 -91.2727> 843 70<267.916 359.661>
LayerCount: 2
Back
Fore
SplineSet
604 438 m 0xffe8
 604 575 l 0
 501 575 l 0
 501 575 501 569 501 543 c 0
 501 523 502 495 504 466 c 0
 505 444 519 438 532 438 c 1
 604 438 l 0xffe8
604 377 m 1
 545 377 477 377 452 423 c 0
 444.921568627 436.411764706 442.700884275 460.926951173 442.700884275 486.410965617 c 0
 442.700884275 529.331410996 449 575 449 575 c 0
 302 575 l 0
 325 537 330 526 330 518 c 0
 330 508 316 491 303 471 c 1
 303 471 385 426 411 404 c 0
 419.487004213 396.455996255 427.084758544 388.022742626 427.084758544 377.023113003 c 0
 427.084758544 376.358241924 427.056999532 375.683994382 427 375 c 0
 424 346 416 319 410 300 c 1
 604 221 l 0
 604 377 l 1
604 56 m 9
 604 158 l 0
 574 167 366 237 315 253 c 0
 309 255 304 256 300 256 c 0
 289 256 282 249 269 228 c 0
 259 211 254 201 254 194 c 0
 254 186 257 179 264 173 c 0
 303 138 364 88 364 88 c 1
 335 49 l 1
 335 49 264 81 217 126 c 0
 198 144 182 169 182 191 c 0
 182 214 187 222 210 261 c 0
 242 315 263 329 290 329 c 0
 303 329 344 319 344 319 c 1
 347.638405691 329.308816123 354.586310373 344.39801968 354.586310373 357.355012541 c 0
 354.586310373 365.765058921 351.659179135 373.276811381 343 378 c 0
 324 388 216 442 183 454 c 0
 179 455 175 456 173 456 c 0
 165 456 160 451 152 436 c 0
 145 423 142 418 142 410 c 0
 142 404 144 399 149 394 c 0
 175 370 190 356 190 356 c 1
 167 317 l 1
 167 317 114 348 102 359 c 0
 88 371 75 383 75 402 c 0
 75 419 85 439 102 467 c 0
 124 506 132 526 161 526 c 0
 184 526 242 497 242 497 c 1
 242 497 264 521 264 531 c 0
 264 542 239 575 239 575 c 1
 -14 575 l 1
 -14 636 l 1
 151 636 990 636 990 636 c 17
 990 575 l 0
 670 575 l 1
 670 438 l 0
 803 438 l 2
 855 438 913 388 913 315 c 0
 913 293 908 270 896 245 c 0
 874 201 848 179 813 143 c 1
 761 169 l 2
 762 170 830 274 830 274 c 2
 839 289 843 303 843 316 c 0
 843 352 812 377 766 377 c 2
 670 377 l 0xffe8
 669 56 l 9
 669 -118 l 1
 622 -118 l 1xffd8
 600 -34 l 2
 600 -34 396 -118 334 -118 c 0
 328 -118 321 -118 313 -118 c 0
 270 -118 205 -112 150 -29 c 0
 125 9 112 37 95 85 c 1
 142 115 l 1
 207 20 l 2
 246 -38 288 -46 316 -46 c 0
 318 -46 319 -46 321 -46 c 0
 387 -46 604 37 604 37 c 1
 604 56 l 9
EndSplineSet
Validated: 524289
EndChar

StartChar: NameMe.65677
Encoding: 65670 -1 262
Width: 975
VWidth: 0
Flags: W
HStem: -125 72<298.42 489.11> 25 75<362.807 470.312> 103 66<728.032 834.938> 275 60<756 834.639> 291 66<409.073 575.692> 438 78<747.416 835.064> 575 62<-10 390 453 986>
VStem: 609 71<225.994 287.502> 659 69<27 108> 681 47<-125 -98.2727> 839 71<175.018 269.459 340.875 434.708>
LayerCount: 2
Back
Fore
SplineSet
624 347 m 1xf720
 624 347 680 322 680 265 c 0
 680 252 674 239 667 226 c 0
 659 212 621 170 621 170 c 0
 781 169 l 2
 781 169 794 169 798 169 c 0
 828 169 839 182 839 214 c 2
 839 226 l 2
 839 264 823 275 786 275 c 2
 756 275 l 17
 756 299 756 335 756 335 c 25
 786 335 l 2
 823 335 839 346 839 384 c 2
 839 391 l 2
 839 424 829 438 797 438 c 0
 782 438 765 430 755 426 c 2
 624 347 l 1xf720
576 357 m 1xee20
 536 397 478 453 438 492 c 1
 437 491 416 380 409 347 c 1
 409 347 509 356 576 357 c 1xee20
659 114 m 1xeea0
 581 129 l 0
 581 129 532 81 514 65 c 0
 485 39 452 25 421 25 c 0
 377 25 326 55 258 126 c 0
 211 175 126 311 87 427 c 1
 134 448 l 1
 137 443 247 254 307 179 c 0
 345 131 380 100 417 100 c 0
 435 100 454 108 476 126 c 0
 521 163 581 212 600 242 c 0
 606 252 609 260 609 266 c 0xef20
 609 284 587 291 560 291 c 0
 531 291 410 291 340 291 c 8
 390 575 l 0
 -10 576 l 1
 -10 637 l 1
 155 637 822 636 986 636 c 1
 986 575 l 0
 453 575 l 0
 449 555 l 1
 504 503 551 458 611 402 c 1
 677 453 766 516 809 516 c 0
 873 516 911 483 911 399 c 2
 911 394 l 2
 911 361 907 314 866 308 c 1
 907 301 910 254 910 221 c 2
 910 215 l 2
 910 106 839 103 784 103 c 0
 772 103 728 108 728 108 c 9xeea0
 728 -125 l 1
 681 -125 l 1xee60
 659 -41 l 2
 659 -41 478 -125 383 -125 c 0
 377 -125 370 -125 362 -125 c 0
 319 -125 254 -119 199 -36 c 0
 174 2 161 30 144 78 c 1
 191 108 l 1
 256 13 l 2
 295 -45 337 -53 365 -53 c 0
 367 -53 368 -53 370 -53 c 0
 468 -53 659 27 659 27 c 1
 659 114 l 1xeea0
EndSplineSet
Validated: 1
EndChar

StartChar: NameMe.65678
Encoding: 65671 -1 263
Width: 235
VWidth: 0
Flags: W
HStem: 575 61<-14 99 165 246>
VStem: 41.1172 67.3458<380.6 504.114> 124.255 69.4916<121.057 257.367>
LayerCount: 2
Back
Fore
SplineSet
99 575 m 0
 -14 575 l 1
 -14 636 l 1
 151 636 82 636 246 636 c 1
 246 575 l 1
 165 575 l 0
 165 575 161 567 131 506 c 0
 120.931252313 485.862504626 108.462985573 466.324889016 108.462985573 444.599443332 c 0
 108.462985573 438.274648542 109.519709581 431.764428415 112 425 c 0
 139 353 175 275 189 217 c 0
 192 207 192 204 193 196 c 0
 193.497035469 191.824902061 193.74702668 187.491695798 193.74702668 183.026903797 c 0
 193.74702668 142.577476594 173.228459498 91.3278665922 130 49 c 0
 112 31 97 16 55 -14 c 1
 25 22 l 1
 82 92 l 2
 101.794914524 116.50798941 124.255398034 149.01268578 124.255398034 179.46366811 c 0
 124.255398034 181.317479426 124.172155068 183.163679274 124 185 c 0
 124 187 124 187 124 189 c 0
 115 235 65 357 47 407 c 0
 42.9013113216 418.203082388 41.1171858225 429.18217479 41.1171858225 439.998481556 c 0
 41.1171858225 468.766689304 53.7381641498 496.383344652 69 524 c 0
 85 554 99 575 99 575 c 0
EndSplineSet
Validated: 524289
EndChar

